<?xml version="1.0" encoding="UTF-8"?>
<svg id="Capa_1" xmlns="http://www.w3.org/2000/svg" version="1.1" viewBox="0 0 450 291">
  <!-- Generator: Adobe Illustrator 29.5.0, SVG Export Plug-In . SVG Version: 2.1.0 Build 137)  -->
  <defs>
    <style>
      .st0 {
        fill: #fff;
      }

      .st1 {
        fill: #f7a400;
      }
    </style>
  </defs>
  <path class="st1" d="M54.26,61.62c-.67,2-1.44,2.77-3.77,2.44-6.21-.89-8.65-4.55-8.54-9.65.11-3.88,1-9.32-.67-9.87-3.33-1.11-11.32,10.32-16.64,22.96-4.55,10.76-6.21,24.3-2.33,26.07,3.22,1.44,8.32-4.77,12.09-12.54-5.66.33-8.32-2.44-8.99-8.65-.22-2,.78-2.55,2.66-3,3.77-1,10.1-2.11,13.53-2.55,3.22-.44,4.88.11,6.32,2.11,1,1.44,1.89,3.11,2.55,4.44,1.22,2.66,1.11,4.33-.11,7.21-4.22,10.21-9.87,17.97-15.75,22.08-3.77,2.66-7.99,3.55-12.2,2.77-3.88-.67-7.32-2.11-10.43-4.22-2.33-1.66-4.77-4.77-5.66-8.21-4.33-15.98,7.32-46.59,23.85-58.8,3.44-2.55,7.65-2.77,10.76-2.33,4.22.55,9.21,2.66,11.98,5.44,2.66,2.66,3.44,5.66,3.55,9.65.11,4.1-1.11,11.2-2.22,14.64ZM85.88,85.8c-7.1,1.22-15.09,2.55-20.75,4.1-2.44,4.55-4.66,8.88-6.55,12.65-1.22,2.33-2.11,2.44-4.22,1.55-1.89-.78-3.77-1.89-5.33-3.66-1.55-1.77-1.55-3.33-.22-6.43,7.32-16.31,21.86-43.38,31.28-58.13,1.78-2.77,3.77-4.22,7.65-4.1,4.55.11,10.54,1.66,14.09,3.11,2.66,1.11,3,2.77,2.55,5.55-2,13.98-4.55,40.71-5.99,61.24-.11,2.55-.78,3.22-3.22,3.22s-5.33-.44-6.88-1c-2.22-.78-2.88-2.22-2.88-5.55,0-3.55.22-7.77.44-12.54ZM73.68,73.82c4.33-.67,8.76-1.33,12.98-1.66.67-8.76,1.55-17.86,2.55-25.74-4.33,7.32-9.98,17.31-15.53,27.4ZM138.74,76.93c2.88-11.87,8.32-30.51,12.09-41.16,1-2.77,2.44-3.22,4.88-2.44,1.66.55,3.55,1.44,4.99,2.33,2.44,1.55,3.22,2.88,2.11,6.43-4.99,15.86-13.2,42.27-17.75,59.35-.67,2.66-2.44,3.22-5.1,2.55-2-.55-4.44-1.55-6.21-2.55-2-1.11-3.11-2.66-3.88-5.66-1.89-8.32-3.22-19.41-4.1-33.73-2.77,8.76-7.54,24.41-11.98,40.05-.67,2.33-1.77,3-4.22,2.22-1.55-.55-3.55-1.55-4.77-2.33-2.44-1.55-3.11-2.66-2.11-7.43,2.44-11.32,11.98-42.71,17.42-58.58.78-2.11,1.89-2.88,3.55-2.88,1.78,0,6.1,1.55,9.32,3.22,2.55,1.33,3.11,2.55,3.33,5.55.66,10.43,1.44,23.19,2.44,35.06ZM189.24,85.8c-7.1,1.22-15.09,2.55-20.75,4.1-2.44,4.55-4.66,8.88-6.54,12.65-1.22,2.33-2.11,2.44-4.22,1.55-1.89-.78-3.77-1.89-5.32-3.66-1.55-1.77-1.55-3.33-.22-6.43,7.32-16.31,21.85-43.38,31.28-58.13,1.78-2.77,3.77-4.22,7.65-4.1,4.55.11,10.54,1.66,14.09,3.11,2.66,1.11,3,2.77,2.55,5.55-2,13.98-4.55,40.71-5.99,61.24-.11,2.55-.78,3.22-3.22,3.22s-5.32-.44-6.88-1c-2.22-.78-2.88-2.22-2.88-5.55,0-3.55.22-7.77.44-12.54ZM177.03,73.82c4.33-.67,8.76-1.33,12.98-1.66.66-8.76,1.55-17.86,2.55-25.74-4.33,7.32-9.98,17.31-15.53,27.4ZM219.5,48.2c-.78-1.55-1.89-3.66-2.55-5.55-1.11-2.66-1-4.1,1.44-5.44,10.87-6.21,34.61-10.1,41.6,9.32,6.21,17.2-5.77,46.93-36.72,58.47-2.88,1.11-5.21,1-7.76-.89-2.44-2-4.1-3.55-6.32-5.88-2.22-2.33-3.33-3.77-1.77-9.54,3.11-11.43,7.88-27.4,12.09-40.49ZM221.49,90.24c21.41-10.65,27.18-31.95,24.85-38.83-1.22-3.33-5.32-5.66-11.09-3.55-4.88,13.2-9.54,27.85-13.76,42.38ZM307.64,37.88c3,3,4.22,6.43,4.44,10.65.78,15.09-5.44,39.27-17.97,51.59-4.22,4.1-8.76,5.21-14.2,4.55-3.55-.44-7.77-1.78-10.65-3.77-2.22-1.55-4.66-4.55-5.66-7.99-4.77-15.86,4.88-44.04,20.3-56.8,3.22-2.66,8.21-3.99,11.76-3.44,4.66.67,9.43,2.66,11.98,5.21ZM296.43,45.2c-3.44-1.11-11.32,11.21-15.2,21.63-3.88,10.32-5.99,24.41-1.89,26.07,3.99,1.66,10.32-7.99,14.76-21.19,3.44-10.21,5.88-25.41,2.33-26.51ZM326.66,81.92c-2.33,6.99-4.55,13.98-6.43,20.41-.66,2.33-1.44,2.77-3.77,2.22-2.33-.67-4.44-1.44-5.99-2.55-2-1.44-2.22-3-1.66-6.1,2.11-10.21,7.99-29.62,13.09-45.6-.89-1.66-2-3.77-2.66-5.55-1-2.77-.89-4.1,1.44-5.44,10.87-6.1,31.73-11.32,38.5-3.22,2.77,3.33,5.1,7.99,5.88,13.87.78,6.21-2.11,11.32-6.43,15.53-4.44,4.33-10.76,8.65-17.97,12.2,3.55,5.99,9.43,14.09,13.65,19.08,1.77,2,1.22,3.11-.33,4.44-1.89,1.55-2.88,1.78-4.77,2.33-2.11.67-4.77.78-7.77-2.11-4.22-3.77-10.54-12.2-14.76-19.53ZM338.53,48.97c-2.11,5.21-4.33,11.54-6.77,18.31,13.09-4.99,21.63-15.09,20.75-18.64-.55-2.55-6.88-3.11-13.98.33ZM373.45,46.86c-1.22-2.11-2.22-5.33-2.66-7.32-.44-2.22.11-2.66,1.89-3.11,7.65-2.22,21.86-3.88,32.06-4.22,2.33-.11,3.77,1,4.33,3.11.78,2.33,1.11,3.99,1.33,6.21.11,2.44-.55,3.33-2.99,3.55-5.1.55-11.43,1.33-17.42,2.33-1.66,4.55-3.66,9.76-5.66,15.2,2.77-.44,5.55-.67,8.54-.78,2.44-.11,3.77.44,4.55,2.55.78,2.22,1.33,4.22,1.55,6.43.33,2.44-.33,3.11-2.77,3.66-5.66,1.11-11.98,2.33-17.53,3.77-1.22,3.44-2.44,6.88-3.44,10.1,4.55-.89,8.54-1.44,13.31-1.78,2.44-.22,3.88.33,4.66,2.44.89,2.33,1.44,4.33,1.66,6.55.33,2.44-.22,3.22-2.66,3.77-6.32,1.44-13.42,3-19.41,4.66-3.33.89-4.99.44-6.99-1.22-1.44-1.22-2.88-2.66-4.44-4.77-1.22-1.66-2-4.1-1.33-7.21,2.22-9.87,8.54-29.29,13.42-43.93ZM398.89,85.47c3.44-1.77,8.21-1.33,10.54.67,6.55,5.77,12.87,7.65,15.64,5.21,3.22-2.66-8.32-9.65-14.2-16.42-4.1-4.77-6.1-12.09-2.44-20.19,3.11-7.21,9.98-15.53,16.64-19.75,2.55-1.55,6.77-3.22,11.43-1.55,3.55,1.33,7.54,3.88,9.65,6.32,3.11,3.44,2.77,7.21,2.44,10.21-.78,5.1-3.55,13.76-5.88,18.31-1.11,2.11-2.22,2.55-4.22,1.66-5.66-2.44-8.21-5.88-7.21-10.32.89-3.99,4.22-12.43,2.89-13.09-2.33-1.33-16.64,13.31-10.65,21.41,6.55,8.65,20.86,14.31,15.64,24.41-3.77,7.32-9.87,12.76-18.97,12.76-7.32,0-14.42-3.44-20.64-12.31-3.22-4.55-2.77-6.21-.66-7.32Z"/>
  <path class="st1" d="M179.01,290.85c21.47-.79,42.92-.43,64.42-.84,18.23-.34,36.44-1.17,54.66-1.67,18.3-.5,36.61-.85,54.91-1.24,9.8-.21,19.58-.39,29.38-.56,13.3-.23,27.57.47,40.54-1.64,11.84-1.92,21.77-10.56,21.22-18.88-.55-8.16-8.48-17.21-21.22-18.88-13.28-1.75-27.07-.83-40.54-.6-9.8.17-19.6.35-29.38.56-18.32.39-36.61,1-54.91,1.71-18.23.71-36.51,1.36-54.66,2.66-11.28.81-22.54,1.63-33.75,2.84-5.06.55-10.12,1.25-15.2,1.72,3.97-.37-4.56.24-5.51.3-3.32.22-6.66.45-9.98.68-12.96.88-25.6,7.15-24.97,16.92.61,8.76,11.02,17.44,24.99,16.92Z"/>
  <path d="M280.48,216.54c1.45.52,1.22,1.59.42,3.14-.89,1.78-2.39,3.42-3.61,4.5-1.31,1.12-3.51,1.78-5.34,1.59-1.92-.19-3.47-.89-4.59-1.55-.98-.61-2.15-1.78-2.58-3.19-2.02-6.47,2.67-19.31,9.23-24.93,1.73-1.45,3.38-1.78,4.73-1.64,2.02.19,4.4,1.22,5.58,2.3,1.31,1.22,1.55,2.53,1.5,4.17-.05,1.87-.56,4.55-1.17,6.04-.28.75-.52,1.27-1.73.99-2.44-.56-3.28-1.78-3.37-3.98-.05-1.59.7-3.75-.33-4.17-1.36-.56-5.15,5.72-6.75,10.03-1.73,4.64-2.48,10.03-.84,10.64.89.33,2.11-.52,4.03-2.67,1.31-1.45,3.05-1.87,4.83-1.26ZM297.92,217.33c-3,.51-6.37,1.08-8.76,1.73-1.03,1.92-1.97,3.75-2.77,5.34-.51.99-.89,1.03-1.78.66-.8-.33-1.59-.8-2.25-1.55-.66-.75-.66-1.41-.09-2.72,3.09-6.89,9.23-18.32,13.22-24.56.75-1.17,1.59-1.78,3.23-1.73,1.92.05,4.45.7,5.95,1.31,1.12.47,1.26,1.17,1.08,2.34-.84,5.9-1.92,17.2-2.53,25.87-.05,1.08-.33,1.36-1.36,1.36s-2.25-.19-2.91-.42c-.94-.33-1.22-.94-1.22-2.34,0-1.5.09-3.28.19-5.3ZM292.77,212.27c1.83-.28,3.7-.56,5.48-.7.28-3.7.66-7.54,1.08-10.87-1.83,3.09-4.22,7.31-6.56,11.58ZM325.81,199.85c-1.5.14-3.47.33-5.11.51-2.53,7.31-5.48,16.78-7.55,24.14-.28.98-.61,1.17-1.59.89-.98-.28-2.06-.75-2.91-1.36-.84-.61-.94-1.31-.66-2.62.98-4.92,3.66-14.11,5.62-20.06-1.12.19-2.25.42-2.95.56-.98.19-1.5.09-2.02-.75-.56-.94-1.12-2.48-1.31-3.37-.19-.94.14-1.17.89-1.36,4.41-.98,11.34-1.69,15.7-1.78,1.08,0,1.45.28,1.78.75.61.94,1.03,2.2,1.17,3.09.14.98.05,1.26-1.08,1.36ZM328.97,200.88c-.52-.89-.94-2.25-1.12-3.09-.19-.94.05-1.12.8-1.31,3.23-.94,9.23-1.64,13.54-1.78.98-.05,1.59.42,1.83,1.31.33.98.47,1.69.56,2.62.05,1.03-.23,1.41-1.27,1.5-2.15.23-4.83.56-7.36.98-.7,1.92-1.55,4.12-2.39,6.42,1.17-.19,2.34-.28,3.61-.33,1.03-.05,1.59.19,1.92,1.08.33.94.56,1.78.66,2.72.14,1.03-.14,1.31-1.17,1.55-2.39.47-5.06.99-7.4,1.59-.52,1.45-1.03,2.91-1.45,4.26,1.92-.38,3.61-.61,5.62-.75,1.03-.09,1.64.14,1.97,1.03.38.98.61,1.83.7,2.76.14,1.03-.09,1.36-1.12,1.59-2.67.61-5.67,1.27-8.2,1.97-1.41.38-2.11.19-2.95-.52-.61-.51-1.22-1.12-1.88-2.01-.52-.7-.84-1.73-.56-3.05.94-4.17,3.61-12.37,5.67-18.56ZM361.64,207.12c-.28.84-.61,1.17-1.59,1.03-2.62-.38-3.66-1.92-3.61-4.08.05-1.64.42-3.94-.28-4.17-1.41-.47-4.78,4.36-7.03,9.7-1.92,4.55-2.62,10.26-.98,11.01,1.36.61,3.52-2.01,5.11-5.3-2.39.14-3.52-1.03-3.8-3.65-.09-.84.33-1.08,1.12-1.26,1.59-.42,4.26-.89,5.72-1.08,1.36-.19,2.06.05,2.67.89.42.61.8,1.31,1.08,1.88.52,1.12.47,1.83-.05,3.05-1.78,4.31-4.17,7.59-6.65,9.33-1.59,1.12-3.37,1.5-5.15,1.17-1.64-.28-3.09-.89-4.41-1.78-.98-.7-2.01-2.01-2.39-3.47-1.83-6.75,3.09-19.68,10.08-24.84,1.45-1.08,3.23-1.17,4.55-.98,1.78.23,3.89,1.12,5.06,2.3,1.12,1.12,1.45,2.39,1.5,4.08.05,1.73-.47,4.73-.94,6.19ZM381.44,197.09c1.27,1.26,1.78,2.72,1.88,4.5.33,6.37-2.3,16.59-7.59,21.79-1.78,1.73-3.7,2.2-6,1.92-1.5-.19-3.28-.75-4.5-1.59-.94-.66-1.97-1.92-2.39-3.37-2.02-6.7,2.06-18.61,8.58-23.99,1.36-1.12,3.47-1.69,4.97-1.45,1.97.28,3.98,1.12,5.06,2.2ZM376.71,200.18c-1.45-.47-4.78,4.73-6.42,9.14-1.64,4.36-2.53,10.31-.8,11.01,1.69.7,4.36-3.37,6.23-8.95,1.45-4.31,2.48-10.73.98-11.2ZM389.48,215.69c-.98,2.95-1.92,5.91-2.72,8.62-.28.98-.61,1.17-1.59.94-.98-.28-1.87-.61-2.53-1.08-.84-.61-.94-1.26-.7-2.58.89-4.31,3.37-12.51,5.53-19.26-.38-.7-.84-1.59-1.12-2.34-.42-1.17-.38-1.73.61-2.3,4.59-2.58,13.4-4.78,16.26-1.36,1.17,1.41,2.16,3.37,2.48,5.86.33,2.62-.89,4.78-2.72,6.56-1.87,1.83-4.55,3.66-7.59,5.16,1.5,2.53,3.98,5.95,5.77,8.06.75.84.51,1.31-.14,1.88-.8.66-1.22.75-2.02.98-.89.28-2.02.33-3.28-.89-1.78-1.59-4.45-5.15-6.23-8.25ZM394.5,201.77c-.89,2.2-1.83,4.87-2.86,7.73,5.53-2.11,9.14-6.37,8.76-7.87-.24-1.08-2.91-1.31-5.9.14ZM415.79,192.35c-.8.14-1.5.09-2.16-.19-1.31-.56-2.34-1.73-2.34-2.39,0-.38.14-.56.84-.8,3.37-1.12,5.58-2.01,8.67-3.56.84-.42,1.12-.42,1.5.28.28.56.47,1.55.47,2.48,0,.61-.23,1.12-.8,1.64-1.17,1.08-3.42,2.06-6.19,2.53ZM416.26,196.99c.94.75,1.03,1.17.66,2.25-2.16,5.81-6.05,18.28-7.97,25.12-.28,1.03-.66,1.22-1.64.94-.98-.28-2.11-.8-2.9-1.36-.84-.61-.98-1.22-.7-2.58,1.12-5.34,5.11-19.31,7.17-25.17.42-1.12,1.03-1.31,2.06-.98s2.48,1.12,3.33,1.78ZM427.54,217.33c-3,.51-6.37,1.08-8.76,1.73-1.03,1.92-1.97,3.75-2.76,5.34-.52.99-.89,1.03-1.78.66-.8-.33-1.59-.8-2.25-1.55-.66-.75-.66-1.41-.09-2.72,3.09-6.89,9.23-18.32,13.22-24.56.75-1.17,1.59-1.78,3.23-1.73,1.92.05,4.45.7,5.95,1.31,1.12.47,1.27,1.17,1.08,2.34-.84,5.9-1.92,17.2-2.53,25.87-.05,1.08-.33,1.36-1.36,1.36s-2.25-.19-2.91-.42c-.94-.33-1.22-.94-1.22-2.34,0-1.5.09-3.28.19-5.3ZM422.38,212.27c1.83-.28,3.7-.56,5.48-.7.28-3.7.66-7.54,1.08-10.87-1.83,3.09-4.22,7.31-6.56,11.58Z"/>
  <path class="st1" d="M289.26,139.8c-3.44,9.37-9.59,28.77-12.44,39.24-.44,1.61-.95,1.9-2.49,1.46-1.54-.44-3.07-1.02-4.39-1.98-1.24-.88-1.54-1.98-1.02-4.1,1.32-5.93,5.2-19.76,8.27-29.21-2.12-1.39-2.71-1.83-1.54-3.81,1.24-2.2,3.15-4.76,4.46-6.44,1.24-1.54,1.9-1.76,3.51-1.24,1.54.51,3.22,1.32,4.69,2.56,1.39,1.17,1.61,1.76.95,3.51Z"/>
  <path class="st1" d="M293.15,156.52c-.56-.97-1.02-2.46-1.23-3.38-.2-1.02.05-1.23.87-1.43,3.54-1.02,10.09-1.79,14.81-1.95,1.08-.05,1.74.46,2,1.43.36,1.08.51,1.84.62,2.87.05,1.13-.26,1.54-1.38,1.64-2.36.26-5.28.61-8.05,1.08-.77,2.1-1.69,4.51-2.61,7.02,1.28-.2,2.56-.31,3.95-.36,1.13-.05,1.74.21,2.1,1.18.36,1.03.61,1.95.72,2.97.15,1.13-.15,1.43-1.28,1.69-2.61.51-5.53,1.08-8.1,1.74-.56,1.59-1.13,3.18-1.59,4.66,2.1-.41,3.95-.67,6.15-.82,1.13-.1,1.79.15,2.15,1.13.41,1.08.67,2,.77,3.02.15,1.13-.1,1.49-1.23,1.74-2.92.67-6.2,1.38-8.97,2.15-1.54.41-2.31.2-3.23-.56-.67-.56-1.33-1.23-2.05-2.2-.56-.77-.92-1.9-.61-3.33,1.02-4.56,3.94-13.53,6.2-20.29ZM314.97,172.71c-1.08,3.23-2.1,6.46-2.97,9.43-.31,1.08-.67,1.28-1.74,1.02-1.08-.31-2.05-.67-2.77-1.18-.92-.67-1.02-1.38-.77-2.82.97-4.71,3.69-13.68,6.05-21.06-.41-.77-.92-1.74-1.23-2.56-.46-1.28-.41-1.9.67-2.51,5.02-2.82,14.65-5.23,17.78-1.49,1.28,1.54,2.36,3.69,2.72,6.4.36,2.87-.97,5.23-2.97,7.17-2.05,2-4.97,4-8.3,5.64,1.64,2.77,4.36,6.51,6.3,8.81.82.92.56,1.43-.15,2.05-.87.72-1.33.82-2.2,1.08-.97.31-2.2.36-3.59-.97-1.95-1.74-4.87-5.64-6.82-9.02ZM320.45,157.49c-.97,2.41-2,5.33-3.13,8.46,6.05-2.31,9.99-6.97,9.58-8.61-.26-1.18-3.18-1.43-6.46.15ZM345.07,174.5c-3.28.56-6.97,1.18-9.58,1.9-1.13,2.1-2.15,4.1-3.02,5.84-.56,1.08-.97,1.13-1.95.72-.87-.36-1.74-.87-2.46-1.69-.72-.82-.72-1.54-.1-2.97,3.38-7.53,10.09-20.03,14.45-26.85.82-1.28,1.74-1.95,3.54-1.9,2.1.05,4.87.77,6.51,1.43,1.23.51,1.38,1.28,1.18,2.56-.92,6.46-2.1,18.8-2.77,28.28-.05,1.18-.36,1.49-1.49,1.49s-2.46-.21-3.18-.46c-1.02-.36-1.33-1.02-1.33-2.56,0-1.64.1-3.59.21-5.79ZM339.43,168.97c2-.31,4.05-.62,5.99-.77.31-4.05.72-8.25,1.18-11.89-2,3.38-4.61,7.99-7.17,12.66Z"/>
  <path class="st0" d="M220.02,260.68v18.78h-3.08v-8.21h-8.84v8.21h-3.08v-18.78h3.08v8.05h8.84v-8.05h3.08ZM223.05,271.95c0-1.49.31-2.82.92-3.97.63-1.15,1.48-2.04,2.54-2.67,1.08-.65,2.27-.97,3.57-.97,1.17,0,2.19.23,3.05.7.88.45,1.59,1.02,2.11,1.7v-2.16h3.11v14.89h-3.11v-2.21c-.52.7-1.23,1.29-2.13,1.76-.9.47-1.93.7-3.08.7-1.28,0-2.45-.33-3.51-.97-1.06-.67-1.91-1.59-2.54-2.76-.61-1.19-.92-2.53-.92-4.03ZM235.24,272.01c0-1.03-.22-1.92-.65-2.67-.41-.76-.96-1.33-1.65-1.73-.68-.4-1.42-.6-2.22-.6s-1.53.2-2.22.6c-.68.38-1.24.95-1.67,1.7-.41.74-.62,1.62-.62,2.65s.21,1.93.62,2.7c.43.77.99,1.37,1.67,1.78.7.4,1.44.59,2.22.59s1.53-.2,2.22-.59c.68-.4,1.23-.97,1.65-1.73.43-.77.65-1.68.65-2.7ZM247.8,279.71c-1.17,0-2.22-.21-3.16-.62-.92-.43-1.65-1.01-2.19-1.73-.54-.74-.83-1.56-.87-2.46h3.19c.05.63.35,1.16.89,1.59.56.41,1.25.62,2.08.62s1.53-.16,2-.49c.49-.34.73-.77.73-1.3,0-.56-.27-.97-.81-1.24-.52-.27-1.36-.57-2.51-.89-1.12-.31-2.03-.6-2.73-.89-.7-.29-1.32-.73-1.84-1.32-.5-.6-.76-1.38-.76-2.35,0-.79.23-1.51.7-2.16.47-.67,1.14-1.19,2-1.57.88-.38,1.89-.57,3.03-.57,1.69,0,3.05.43,4.08,1.3,1.04.85,1.6,2.01,1.68,3.49h-3.08c-.05-.67-.32-1.2-.81-1.59-.49-.4-1.14-.6-1.97-.6s-1.43.15-1.86.46c-.43.31-.65.71-.65,1.22,0,.4.14.73.43,1,.29.27.64.49,1.05.65.41.14,1.03.33,1.84.57,1.08.29,1.96.59,2.65.89.7.29,1.31.72,1.81,1.3.5.58.77,1.34.78,2.3,0,.85-.23,1.6-.7,2.27-.47.67-1.13,1.19-2,1.57-.85.38-1.85.57-3,.57ZM260.42,267.09v8.24c0,.56.13.96.38,1.22.27.23.72.35,1.35.35h1.89v2.57h-2.43c-1.39,0-2.45-.32-3.19-.97-.74-.65-1.11-1.7-1.11-3.16v-8.24h-1.76v-2.51h1.76v-3.7h3.11v3.7h3.62v2.51h-3.62ZM265.85,271.95c0-1.49.31-2.82.92-3.97.63-1.15,1.48-2.04,2.54-2.67,1.08-.65,2.27-.97,3.57-.97,1.17,0,2.19.23,3.05.7.88.45,1.59,1.02,2.11,1.7v-2.16h3.11v14.89h-3.11v-2.21c-.52.7-1.23,1.29-2.14,1.76-.9.47-1.93.7-3.08.7-1.28,0-2.45-.33-3.51-.97-1.06-.67-1.91-1.59-2.54-2.76-.61-1.19-.92-2.53-.92-4.03ZM278.04,272.01c0-1.03-.22-1.92-.65-2.67-.42-.76-.96-1.33-1.65-1.73-.68-.4-1.42-.6-2.21-.6s-1.53.2-2.22.6c-.68.38-1.24.95-1.68,1.7-.41.74-.62,1.62-.62,2.65s.21,1.93.62,2.7c.43.77.99,1.37,1.68,1.78.7.4,1.44.59,2.22.59s1.53-.2,2.21-.59c.68-.4,1.23-.97,1.65-1.73.43-.77.65-1.68.65-2.7ZM295.29,259.47v20h-3.08v-20h3.08ZM305.8,279.71c-1.4,0-2.67-.32-3.81-.95-1.13-.65-2.03-1.55-2.67-2.7-.65-1.17-.97-2.52-.97-4.05s.33-2.85,1-4.03c.67-1.17,1.58-2.07,2.73-2.7,1.15-.63,2.44-.95,3.86-.95s2.71.32,3.86.95c1.15.63,2.06,1.53,2.73,2.7.67,1.17,1,2.51,1,4.03s-.34,2.86-1.03,4.03c-.68,1.17-1.62,2.08-2.81,2.73-1.17.63-2.47.95-3.89.95ZM305.8,277.03c.79,0,1.53-.19,2.21-.57.7-.38,1.27-.95,1.7-1.7.43-.76.65-1.68.65-2.76s-.21-1.99-.62-2.73c-.41-.76-.96-1.32-1.65-1.7-.68-.38-1.42-.57-2.22-.57s-1.53.19-2.22.57c-.67.38-1.2.95-1.59,1.7-.4.74-.6,1.65-.6,2.73,0,1.6.41,2.85,1.22,3.73.83.87,1.87,1.3,3.11,1.3ZM321.97,279.71c-1.17,0-2.22-.21-3.16-.62-.92-.43-1.65-1.01-2.19-1.73-.54-.74-.83-1.56-.86-2.46h3.19c.05.63.35,1.16.89,1.59.56.41,1.25.62,2.08.62s1.53-.16,2-.49c.49-.34.73-.77.73-1.3,0-.56-.27-.97-.81-1.24-.52-.27-1.36-.57-2.51-.89-1.12-.31-2.03-.6-2.73-.89-.7-.29-1.32-.73-1.84-1.32-.5-.6-.76-1.38-.76-2.35,0-.79.23-1.51.7-2.16.47-.67,1.13-1.19,2-1.57.88-.38,1.89-.57,3.03-.57,1.69,0,3.05.43,4.08,1.3,1.05.85,1.6,2.01,1.68,3.49h-3.08c-.05-.67-.32-1.2-.81-1.59-.49-.4-1.14-.6-1.97-.6s-1.43.15-1.86.46c-.43.31-.65.71-.65,1.22,0,.4.14.73.43,1,.29.27.64.49,1.05.65.42.14,1.03.33,1.84.57,1.08.29,1.96.59,2.65.89.7.29,1.31.72,1.81,1.3.51.58.77,1.34.78,2.3,0,.85-.23,1.6-.7,2.27-.47.67-1.13,1.19-2,1.57-.85.38-1.85.57-3,.57ZM350.1,262.14l-7.51,17.32h-3.11l7.59-17h-10v-2.62h13.02v2.3ZM359.14,271.95c0-1.49.31-2.82.92-3.97.63-1.15,1.48-2.04,2.54-2.67,1.08-.65,2.27-.97,3.57-.97,1.17,0,2.19.23,3.05.7.88.45,1.59,1.02,2.11,1.7v-2.16h3.11v14.89h-3.11v-2.21c-.52.7-1.23,1.29-2.13,1.76-.9.47-1.93.7-3.08.7-1.28,0-2.45-.33-3.51-.97-1.06-.67-1.91-1.59-2.54-2.76-.61-1.19-.92-2.53-.92-4.03ZM371.32,272.01c0-1.03-.22-1.92-.65-2.67-.41-.76-.96-1.33-1.65-1.73-.68-.4-1.42-.6-2.22-.6s-1.53.2-2.21.6c-.68.38-1.24.95-1.68,1.7-.41.74-.62,1.62-.62,2.65s.21,1.93.62,2.7c.43.77.99,1.37,1.68,1.78.7.4,1.44.59,2.21.59s1.53-.2,2.22-.59c.68-.4,1.23-.97,1.65-1.73.43-.77.65-1.68.65-2.7ZM385.99,264.33c1.17,0,2.22.24,3.14.73.94.49,1.67,1.21,2.19,2.16.52.95.78,2.11.78,3.46v8.78h-3.05v-8.32c0-1.33-.33-2.35-1-3.05-.67-.72-1.58-1.08-2.73-1.08s-2.07.36-2.76,1.08c-.67.7-1,1.72-1,3.05v8.32h-3.08v-14.89h3.08v1.7c.5-.61,1.14-1.09,1.92-1.43.79-.34,1.63-.51,2.51-.51ZM381.1,263.04c.14-1.05.49-1.83,1.03-2.35.54-.54,1.22-.81,2.03-.81.34,0,.64.05.89.16.25.11.56.27.92.49.27.18.5.32.68.41.2.09.41.14.65.14.31,0,.56-.09.76-.27.22-.2.35-.49.41-.87h1.73c-.14,1.05-.49,1.84-1.03,2.38-.54.52-1.22.78-2.03.78-.34,0-.65-.05-.92-.16-.27-.13-.57-.3-.89-.51-.32-.2-.58-.33-.76-.4-.16-.09-.35-.14-.57-.14-.31,0-.57.1-.78.3-.2.2-.32.49-.38.86h-1.73ZM402.48,279.71c-1.4,0-2.67-.32-3.81-.95-1.14-.65-2.03-1.55-2.67-2.7-.65-1.17-.97-2.52-.97-4.05s.33-2.85,1-4.03c.67-1.17,1.58-2.07,2.73-2.7,1.15-.63,2.44-.95,3.86-.95s2.71.32,3.86.95c1.15.63,2.06,1.53,2.73,2.7.67,1.17,1,2.51,1,4.03s-.34,2.86-1.03,4.03c-.69,1.17-1.62,2.08-2.81,2.73-1.17.63-2.47.95-3.89.95ZM402.48,277.03c.79,0,1.53-.19,2.21-.57.7-.38,1.27-.95,1.7-1.7.43-.76.65-1.68.65-2.76s-.21-1.99-.62-2.73c-.42-.76-.96-1.32-1.65-1.7-.68-.38-1.42-.57-2.22-.57s-1.53.19-2.22.57c-.67.38-1.2.95-1.59,1.7-.4.74-.6,1.65-.6,2.73,0,1.6.41,2.85,1.22,3.73.83.87,1.87,1.3,3.11,1.3ZM418.66,279.71c-1.17,0-2.22-.21-3.16-.62-.92-.43-1.65-1.01-2.19-1.73-.54-.74-.83-1.56-.86-2.46h3.19c.05.63.35,1.16.89,1.59.56.41,1.25.62,2.08.62s1.53-.16,2-.49c.49-.34.73-.77.73-1.3,0-.56-.27-.97-.81-1.24-.52-.27-1.36-.57-2.51-.89-1.12-.31-2.03-.6-2.73-.89-.7-.29-1.32-.73-1.84-1.32-.5-.6-.76-1.38-.76-2.35,0-.79.23-1.51.7-2.16.47-.67,1.13-1.19,2-1.57.88-.38,1.89-.57,3.03-.57,1.69,0,3.05.43,4.08,1.3,1.04.85,1.6,2.01,1.68,3.49h-3.08c-.05-.67-.32-1.2-.81-1.59-.49-.4-1.14-.6-1.97-.6s-1.43.15-1.86.46c-.43.31-.65.71-.65,1.22,0,.4.14.73.43,1,.29.27.64.49,1.05.65.42.14,1.03.33,1.84.57,1.08.29,1.96.59,2.65.89.7.29,1.31.72,1.81,1.3.51.58.77,1.34.78,2.3,0,.85-.23,1.6-.7,2.27-.47.67-1.13,1.19-2,1.57-.85.38-1.85.57-3,.57Z"/>
  <g>
    <path class="st1" d="M43,193.88c2.82-.13,4.3,1.07,5.51,3.49,1.07,2.01,2.28,5.24,2.69,7.52.67,2.69-.13,3.36-2.82,3.63-8.73.81-24.04,3.22-31.43,5.1-5.1,1.21-6.58.27-7.93-1.48-1.61-1.88-4.57-5.78-6.04-8.46-1.07-2.15-2.28-5.24,1.07-7.79,21.36-16.92,49.16-48.89,45.54-52.25-2.28-2.15-8.6,3.22-15.18,9.27-4.16,3.63-10.88,3.36-15.45,1.48-2.42-1.07-3.49-3.36.54-9.27,6.31-9.4,15.45-16.39,23.91-18.13,10.21-2.15,18.27,4.84,20.95,10.48,4.03,8.6.94,15.98-4.57,24.72-6.58,10.34-19.21,23.91-30.89,33.18,4.84-.94,10.48-1.34,14.1-1.48Z"/>
    <path class="st1" d="M122.65,145.52c1.07,18.27-6.45,47.28-21.49,61.92-5.1,4.97-10.48,6.31-17.06,5.64-4.3-.54-9.27-2.15-12.76-4.7-2.55-1.75-5.51-5.37-6.72-9.4-5.37-18.94,5.78-53.46,24.31-68.24,4.03-3.22,9.27-4.43,13.97-3.9,5.64.67,11.55,3.22,14.51,6.04,3.76,3.49,4.97,7.66,5.24,12.63ZM85.31,167.69c-4.97,13.43-6.58,29.01-1.75,31.03,4.7,1.88,12.22-9.67,17.46-25.25,4.03-12.09,6.98-30.22,2.96-31.57-3.9-1.34-13.16,10.88-18.67,25.79Z"/>
    <path class="st1" d="M156.49,193.88c2.82-.13,4.3,1.07,5.51,3.49,1.07,2.01,2.28,5.24,2.69,7.52.67,2.69-.13,3.36-2.82,3.63-8.73.81-24.04,3.22-31.43,5.1-5.1,1.21-6.58.27-7.93-1.48-1.61-1.88-4.57-5.78-6.04-8.46-1.07-2.15-2.28-5.24,1.07-7.79,21.36-16.92,49.16-48.89,45.54-52.25-2.28-2.15-8.6,3.22-15.18,9.27-4.16,3.63-10.88,3.36-15.45,1.48-2.42-1.07-3.49-3.36.54-9.27,6.31-9.4,15.45-16.39,23.91-18.13,10.21-2.15,18.27,4.84,20.95,10.48,4.03,8.6.94,15.98-4.57,24.72-6.58,10.34-19.21,23.91-30.89,33.18,4.84-.94,10.48-1.34,14.1-1.48Z"/>
    <path class="st1" d="M230.37,173.87c.94,2.69,1.34,4.57,1.61,7.12.27,2.82-.4,3.76-3.22,3.9-2.69.13-5.51.4-8.19.54-3.22,9.67-6.04,18.81-8.06,25.79-.81,2.96-1.88,3.49-4.7,2.69-2.28-.67-5.24-2.01-7.52-3.76-2.28-1.88-2.69-3.63-1.75-7.52.81-3.49,2.42-8.87,4.43-15.45-5.37.67-10.48,1.48-15.18,2.28-2.55.54-4.84.54-6.72-1.88-2.28-2.55-4.43-5.91-6.18-9.13-1.48-2.69-.94-5.1,1.07-8.06,8.73-12.89,26.46-33.04,37.61-42.71,2.69-2.28,4.16-2.55,6.98-1.48,2.96.94,11.28,5.78,13.97,8.06,2.55,2.15,2.82,3.36,1.61,6.45-2.82,7.52-6.72,18.13-10.48,29.42,2.55.13,3.9,1.34,4.7,3.76ZM208.21,170.91c2.96-8.73,6.18-17.86,9.13-26.06-8.73,8.19-18.54,18.94-25.92,27.81,4.97-.67,11.01-1.21,16.79-1.75Z"/>
  </g>
</svg>