<svg width="450" height="291" viewBox="0 0 450 291" fill="none" xmlns="http://www.w3.org/2000/svg">
<path d="M54.2604 61.6194C53.5947 63.6164 52.8182 64.3929 50.4884 64.0601C44.2758 63.1726 41.8351 59.5116 41.9461 54.4083C42.057 50.5255 42.9445 45.0894 41.2804 44.5347C37.9522 43.4253 29.9645 54.8521 24.6394 67.4993C20.0909 78.2604 18.4268 91.7951 22.3097 93.5701C25.527 95.0123 30.6302 88.7997 34.4021 81.0339C28.7442 81.3667 26.0817 78.5932 25.416 72.3806C25.1941 70.3837 26.1926 69.829 28.0786 69.3852C31.8505 68.3868 38.1741 67.2774 41.6132 66.8336C44.8305 66.3899 46.4946 66.9446 47.9368 68.9415C48.9353 70.3837 49.8228 72.0478 50.4884 73.3791C51.7088 76.0416 51.5978 77.7057 50.3775 80.5902C46.1618 90.7966 40.5038 98.5624 34.624 102.667C30.8521 105.33 26.6364 106.217 22.4206 105.441C18.5377 104.775 15.0986 103.333 11.9923 101.225C9.66256 99.5609 7.22188 96.4545 6.33436 93.0154C2.00771 77.0401 13.6564 46.4207 30.1864 34.2173C33.6256 31.6657 37.8413 31.4438 40.9476 31.8876C45.1633 32.4423 50.1556 34.5501 52.9291 37.3236C55.5917 39.9862 56.3682 42.9815 56.4792 46.9754C56.5901 51.0802 55.3698 58.1803 54.2604 61.6194ZM85.88 85.8043C78.7798 87.0247 70.7921 88.3559 65.1342 89.9091C62.6935 94.4576 60.4747 98.7843 58.5888 102.556C57.3684 104.886 56.4809 104.997 54.373 104.109C52.4871 103.333 50.6011 102.223 49.0479 100.448C47.4948 98.6733 47.4948 97.1202 48.8261 94.0139C56.1481 77.7057 70.6812 50.6364 80.1111 35.8814C81.8861 33.1079 83.883 31.6657 87.7659 31.7766C92.3145 31.8876 98.3052 33.4407 101.855 34.8829C104.518 35.9923 104.851 37.6564 104.407 40.4299C102.41 54.4083 99.8584 81.1449 98.4162 101.669C98.3052 104.22 97.6396 104.886 95.1989 104.886C92.7582 104.886 89.8738 104.442 88.3206 103.888C86.1018 103.111 85.4362 101.669 85.4362 98.3405C85.4362 94.7905 85.6581 90.5747 85.88 85.8043ZM73.6766 73.8228C78.0032 73.1572 82.4408 72.4915 86.6565 72.1587C87.3222 63.3945 88.2097 54.2974 89.2082 46.4207C84.8815 53.7427 79.2236 63.7273 73.6766 73.8228ZM138.745 76.9291C141.629 65.0586 147.065 46.4207 150.837 35.7705C151.835 32.997 153.278 32.5532 155.718 33.3298C157.382 33.8845 159.268 34.772 160.711 35.6595C163.151 37.2127 163.928 38.544 162.818 42.094C157.826 57.9584 149.617 84.3621 145.068 101.447C144.402 104.109 142.627 104.664 139.965 103.998C137.968 103.444 135.527 102.445 133.752 101.447C131.755 100.337 130.646 98.7843 129.869 95.7889C127.983 87.4684 126.652 76.3744 125.765 62.0632C122.991 70.8274 118.221 86.47 113.783 102.112C113.117 104.442 112.008 105.108 109.567 104.331C108.014 103.777 106.017 102.778 104.797 102.002C102.356 100.448 101.691 99.339 102.689 94.5686C105.13 83.2527 114.671 51.8567 120.107 35.9923C120.883 33.8845 121.993 33.1079 123.657 33.1079C125.432 33.1079 129.758 34.6611 132.976 36.3252C135.527 37.6564 136.082 38.8768 136.304 41.8722C136.969 52.3005 137.746 65.0586 138.745 76.9291ZM189.236 85.8043C182.136 87.0247 174.148 88.3559 168.49 89.9091C166.05 94.4576 163.831 98.7843 161.945 102.556C160.724 104.886 159.837 104.997 157.729 104.109C155.843 103.333 153.957 102.223 152.404 100.448C150.851 98.6733 150.851 97.1202 152.182 94.0139C159.504 77.7057 174.037 50.6364 183.467 35.8814C185.242 33.1079 187.239 31.6657 191.122 31.7766C195.671 31.8876 201.661 33.4407 205.211 34.8829C207.874 35.9923 208.207 37.6564 207.763 40.4299C205.766 54.4083 203.214 81.1449 201.772 101.669C201.661 104.22 200.996 104.886 198.555 104.886C196.114 104.886 193.23 104.442 191.677 103.888C189.458 103.111 188.792 101.669 188.792 98.3405C188.792 94.7905 189.014 90.5747 189.236 85.8043ZM177.033 73.8228C181.359 73.1572 185.797 72.4915 190.013 72.1587C190.678 63.3945 191.566 54.2974 192.564 46.4207C188.238 53.7427 182.58 63.7273 177.033 73.8228ZM219.497 48.1957C218.721 46.6426 217.611 44.5347 216.946 42.6487C215.836 39.9862 215.947 38.544 218.388 37.2127C229.26 31 253.001 27.1172 259.99 46.5316C266.203 63.7273 254.222 93.4592 223.269 104.997C220.385 106.106 218.055 105.995 215.504 104.109C213.063 102.112 211.399 100.559 209.18 98.2296C206.961 95.8999 205.852 94.4576 207.405 88.6888C210.511 77.262 215.282 61.2866 219.497 48.1957ZM221.494 90.2419C242.906 79.5917 248.675 58.2912 246.345 51.413C245.125 48.0848 241.02 45.755 235.251 47.8629C230.37 61.0647 225.71 75.7088 221.494 90.2419ZM307.636 37.8783C310.631 40.8737 311.851 44.3128 312.073 48.5285C312.85 63.6164 306.637 87.8012 294.101 100.116C289.885 104.22 285.337 105.33 279.901 104.664C276.351 104.22 272.135 102.889 269.25 100.892C267.032 99.339 264.591 96.3436 263.593 92.9045C258.822 77.0401 268.474 48.8614 283.895 36.1033C287.112 33.4407 292.104 32.1094 295.654 32.6641C300.314 33.3298 305.084 35.3267 307.636 37.8783ZM296.431 45.2003C292.992 44.0909 285.115 56.4053 281.232 66.8336C277.349 77.151 275.241 91.2404 279.346 92.9045C283.34 94.5686 289.663 84.9168 294.101 71.715C297.54 61.5085 299.981 46.3097 296.431 45.2003ZM326.662 81.9214C324.332 88.9106 322.113 95.8999 320.227 102.334C319.562 104.664 318.785 105.108 316.455 104.553C314.126 103.888 312.018 103.111 310.465 102.002C308.468 100.559 308.246 99.0062 308.801 95.8999C310.908 85.6934 316.788 66.2789 321.891 50.3036C321.004 48.6395 319.895 46.5316 319.229 44.7566C318.23 41.9831 318.341 40.6518 320.671 39.3205C331.543 33.2188 352.4 28.0047 359.167 36.1033C361.941 39.4315 364.27 44.0909 365.047 49.9708C365.824 56.1834 362.939 61.2866 358.613 65.5023C354.175 69.829 347.851 74.1556 340.64 77.7057C344.19 83.6965 350.07 91.7951 354.286 96.7874C356.061 98.7843 355.506 99.8937 353.953 101.225C352.067 102.778 351.069 103 349.183 103.555C347.075 104.22 344.412 104.331 341.417 101.447C337.201 97.6749 330.878 89.2435 326.662 81.9214ZM338.532 48.9723C336.425 54.1865 334.206 60.51 331.765 67.2774C344.856 62.2851 353.398 52.1896 352.511 48.6395C351.956 46.0879 345.633 45.5332 338.532 48.9723ZM373.453 46.8644C372.233 44.7566 371.235 41.5393 370.791 39.5424C370.347 37.3236 370.902 36.8799 372.677 36.4361C380.332 34.2173 394.532 32.5532 404.738 32.2204C407.068 32.1094 408.51 33.2188 409.065 35.3267C409.842 37.6564 410.174 39.3205 410.396 41.5393C410.507 43.98 409.842 44.8675 407.401 45.0894C402.298 45.6441 395.974 46.4207 389.983 47.4191C388.319 51.9677 386.322 57.1818 384.325 62.6179C387.099 62.1741 389.872 61.9523 392.868 61.8413C395.308 61.7304 396.64 62.2851 397.416 64.3929C398.193 66.6117 398.748 68.6087 398.97 70.8274C399.302 73.2681 398.637 73.9338 396.196 74.4885C390.538 75.5979 384.215 76.8182 378.668 78.2604C377.447 81.6996 376.227 85.1387 375.228 88.3559C379.777 87.4684 383.771 86.9137 388.541 86.5809C390.982 86.359 392.424 86.9137 393.201 89.0216C394.088 91.3513 394.643 93.3482 394.865 95.567C395.198 98.0077 394.643 98.7843 392.202 99.339C385.879 100.781 378.778 102.334 372.788 103.998C369.46 104.886 367.795 104.442 365.798 102.778C364.356 101.558 362.914 100.116 361.361 98.0077C360.141 96.3436 359.364 93.9029 360.03 90.7966C362.248 80.923 368.572 61.5085 373.453 46.8644ZM398.89 85.4715C402.329 83.6965 407.099 84.1402 409.429 86.1371C415.975 91.906 422.298 93.792 425.072 91.3513C428.289 88.6888 416.751 81.6996 410.871 74.9322C406.767 70.1618 404.77 62.8398 408.431 54.7412C411.537 47.5301 418.415 39.2096 425.072 34.9939C427.623 33.4407 431.839 31.7766 436.498 33.4407C440.048 34.772 444.042 37.3236 446.15 39.7643C449.256 43.2034 448.924 46.9754 448.591 49.9708C447.814 55.074 445.041 63.7273 442.711 68.2758C441.602 70.3837 440.492 70.8274 438.495 69.9399C432.837 67.4993 430.286 64.0601 431.284 59.6225C432.172 55.6287 435.5 47.1973 434.169 46.5316C431.839 45.2003 417.528 59.8444 423.518 67.943C430.064 76.5963 444.375 82.2543 439.161 92.3498C435.389 99.6718 429.287 105.108 420.19 105.108C412.868 105.108 405.768 101.669 399.555 92.7935C396.338 88.245 396.782 86.5809 398.89 85.4715Z" fill="#F7A400"/>
<path d="M28.902 195.376C33.7392 194.436 39.3827 194.032 43.0106 193.898C45.8324 193.764 47.3104 194.973 48.5197 197.392C49.5947 199.407 50.804 202.632 51.2071 204.916C51.8789 207.604 51.0727 208.276 48.3853 208.544C39.6514 209.35 24.3335 211.769 16.9432 213.65C11.8372 214.86 10.3592 213.919 9.01552 212.172C7.4031 210.291 4.44701 206.394 2.96896 203.707C1.89402 201.557 0.684704 198.467 4.0439 195.914C25.4084 178.983 53.2226 147.004 49.5947 143.644C47.3104 141.495 40.9951 146.869 34.4111 152.916C30.2457 156.544 23.5273 156.275 18.9588 154.394C16.5401 153.319 15.4652 151.035 19.4962 145.123C25.8115 135.717 34.9485 128.73 43.4137 126.983C53.6257 124.833 61.6878 131.82 64.3751 137.464C68.4062 146.063 65.3157 153.453 59.8066 162.187C53.2226 172.534 40.592 186.105 28.902 195.376ZM117.462 132.895C121.224 136.389 122.434 140.554 122.702 145.526C123.777 163.8 116.253 192.823 101.204 207.469C96.0975 212.441 90.7228 213.785 84.1388 213.113C79.839 212.575 74.8674 210.963 71.3738 208.41C68.8208 206.663 65.8647 203.035 64.6554 199.004C59.2807 180.058 70.4332 145.526 88.976 130.745C93.0071 127.52 98.2474 126.311 102.95 126.848C108.594 127.52 114.506 130.073 117.462 132.895ZM104.025 141.898C100.129 140.554 90.8572 152.782 85.3481 167.696C80.3765 181.133 78.7641 196.72 83.6013 198.735C88.3042 200.617 95.8288 189.061 101.069 173.474C105.1 161.381 108.056 143.241 104.025 141.898ZM142.406 195.376C147.243 194.436 152.887 194.032 156.515 193.898C159.337 193.764 160.815 194.973 162.024 197.392C163.099 199.407 164.308 202.632 164.711 204.916C165.383 207.604 164.577 208.276 161.89 208.544C153.156 209.35 137.838 211.769 130.447 213.65C125.341 214.86 123.863 213.919 122.52 212.172C120.907 210.291 117.951 206.394 116.473 203.707C115.398 201.557 114.189 198.467 117.548 195.914C138.913 178.983 166.727 147.004 163.099 143.644C160.815 141.495 154.499 146.869 147.915 152.916C143.75 156.544 137.031 156.275 132.463 154.394C130.044 153.319 128.969 151.035 133 145.123C139.316 135.717 148.453 128.73 156.918 126.983C167.13 124.833 175.192 131.82 177.879 137.464C181.91 146.063 178.82 153.453 173.311 162.187C166.727 172.534 154.096 186.105 142.406 195.376ZM211.69 169.846C214.377 170.652 216.93 171.996 218.946 174.146C227.276 182.746 225.261 193.629 219.214 201.826C212.093 211.366 203.225 214.188 193.684 214.322C186.16 214.322 178.098 211.366 170.842 202.901C166.542 197.929 167.617 195.779 169.901 194.301C173.664 191.614 179.038 192.554 182.129 194.57C191.131 200.482 197.312 199.407 202.821 193.629C208.062 188.12 207.793 181.402 205.912 178.983C204.031 176.565 201.343 175.758 196.775 176.565C191.669 177.505 187.503 175.624 184.95 169.443C183.876 166.89 184.279 164.875 186.832 163.934C206.315 156.813 216.393 150.094 216.393 144.719C216.393 143.107 215.586 142.435 214.108 142.435C211.421 142.435 207.256 144.854 204.031 147.004C198.925 150.497 191.938 149.154 188.175 145.526C186.294 143.644 186.563 141.629 188.175 139.613C192.341 134.373 200.403 128.595 208.196 126.714C213.84 125.37 221.767 124.967 227.948 134.373C234.801 144.854 231.173 155.469 225.53 160.978C221.902 164.472 217.199 167.428 211.69 169.846Z" fill="#F7A400"/>
<path d="M179.008 290.848C200.48 290.058 221.923 290.418 243.425 290.008C261.651 289.668 279.862 288.838 298.088 288.338C316.388 287.838 334.702 287.488 353.002 287.098C362.801 286.888 372.585 286.708 382.384 286.538C395.681 286.308 409.952 287.008 422.924 284.898C434.76 282.978 444.691 274.338 444.145 266.018C443.599 257.858 435.66 248.808 422.924 247.138C409.642 245.388 395.858 246.308 382.384 246.538C372.585 246.708 362.786 246.888 353.002 247.098C334.687 247.488 316.388 248.098 298.088 248.808C279.862 249.518 261.577 250.168 243.425 251.468C232.15 252.278 220.89 253.098 209.674 254.308C204.612 254.858 199.551 255.558 194.474 256.028C198.444 255.658 189.914 256.268 188.969 256.328C185.649 256.548 182.313 256.778 178.993 257.008C166.036 257.888 153.388 264.158 154.023 273.928C154.628 282.688 165.047 291.368 179.008 290.848Z" fill="#F7A400"/>
<path d="M280.483 216.535C281.936 217.051 281.701 218.128 280.905 219.675C280.014 221.456 278.514 223.096 277.296 224.174C275.984 225.299 273.781 225.955 271.953 225.768C270.032 225.58 268.485 224.877 267.36 224.221C266.376 223.612 265.205 222.44 264.783 221.034C262.767 214.567 267.454 201.725 274.015 196.101C275.749 194.649 277.39 194.321 278.749 194.461C280.764 194.649 283.154 195.68 284.326 196.758C285.638 197.976 285.872 199.288 285.826 200.929C285.779 202.803 285.263 205.475 284.654 206.974C284.373 207.724 284.138 208.24 282.92 207.959C280.483 207.396 279.639 206.178 279.546 203.975C279.499 202.381 280.248 200.226 279.217 199.804C277.858 199.241 274.062 205.522 272.469 209.833C270.735 214.473 269.985 219.862 271.625 220.472C272.516 220.8 273.734 219.956 275.656 217.8C276.968 216.348 278.702 215.926 280.483 216.535ZM297.924 217.332C294.925 217.847 291.551 218.41 289.16 219.066C288.129 220.987 287.192 222.815 286.395 224.408C285.88 225.393 285.505 225.44 284.614 225.065C283.818 224.737 283.021 224.268 282.365 223.518C281.709 222.768 281.709 222.112 282.271 220.8C285.364 213.911 291.504 202.475 295.487 196.242C296.237 195.07 297.081 194.461 298.721 194.508C300.643 194.555 303.173 195.211 304.673 195.82C305.798 196.289 305.938 196.992 305.751 198.164C304.907 204.069 303.829 215.363 303.22 224.034C303.173 225.111 302.892 225.393 301.861 225.393C300.83 225.393 299.611 225.205 298.955 224.971C298.018 224.643 297.737 224.034 297.737 222.628C297.737 221.128 297.831 219.347 297.924 217.332ZM292.769 212.27C294.597 211.989 296.471 211.708 298.252 211.567C298.534 207.865 298.908 204.022 299.33 200.694C297.502 203.787 295.112 208.005 292.769 212.27ZM325.808 199.851C324.308 199.991 322.34 200.179 320.7 200.366C318.169 207.677 315.216 217.144 313.154 224.502C312.873 225.486 312.545 225.674 311.561 225.393C310.577 225.111 309.499 224.643 308.655 224.034C307.812 223.424 307.718 222.721 307.999 221.409C308.983 216.488 311.655 207.302 313.623 201.35C312.498 201.538 311.373 201.772 310.67 201.913C309.686 202.1 309.171 202.007 308.655 201.163C308.093 200.226 307.53 198.679 307.343 197.789C307.155 196.851 307.483 196.617 308.233 196.43C312.639 195.445 319.575 194.742 323.933 194.649C325.011 194.649 325.386 194.93 325.714 195.398C326.324 196.336 326.745 197.601 326.886 198.492C327.027 199.476 326.933 199.757 325.808 199.851ZM328.972 200.882C328.456 199.991 328.034 198.632 327.847 197.789C327.659 196.851 327.894 196.664 328.643 196.476C331.877 195.539 337.876 194.836 342.188 194.695C343.172 194.649 343.781 195.117 344.015 196.008C344.344 196.992 344.484 197.695 344.578 198.632C344.625 199.663 344.344 200.038 343.312 200.132C341.157 200.366 338.485 200.694 335.955 201.116C335.252 203.038 334.408 205.24 333.564 207.537C334.736 207.349 335.908 207.256 337.173 207.209C338.204 207.162 338.766 207.396 339.095 208.287C339.423 209.224 339.657 210.068 339.751 211.005C339.891 212.036 339.61 212.317 338.579 212.551C336.189 213.02 333.518 213.536 331.174 214.145C330.659 215.598 330.143 217.051 329.721 218.41C331.643 218.035 333.33 217.8 335.345 217.66C336.376 217.566 336.986 217.8 337.314 218.691C337.689 219.675 337.923 220.519 338.017 221.456C338.157 222.487 337.923 222.815 336.892 223.049C334.22 223.659 331.221 224.315 328.69 225.018C327.284 225.393 326.581 225.205 325.738 224.502C325.129 223.987 324.519 223.377 323.863 222.487C323.348 221.784 323.02 220.753 323.301 219.441C324.238 215.27 326.909 207.068 328.972 200.882ZM361.639 207.115C361.358 207.959 361.03 208.287 360.046 208.146C357.421 207.771 356.39 206.224 356.437 204.069C356.484 202.428 356.859 200.132 356.156 199.898C354.75 199.429 351.376 204.256 349.126 209.599C347.205 214.145 346.502 219.862 348.142 220.612C349.501 221.222 351.657 218.597 353.25 215.316C350.86 215.457 349.735 214.285 349.454 211.661C349.36 210.817 349.782 210.583 350.579 210.396C352.172 209.974 354.844 209.505 356.297 209.318C357.656 209.13 358.359 209.365 358.968 210.208C359.39 210.817 359.765 211.52 360.046 212.083C360.561 213.208 360.514 213.911 359.999 215.129C358.218 219.441 355.828 222.721 353.344 224.455C351.751 225.58 349.97 225.955 348.189 225.627C346.548 225.346 345.096 224.737 343.783 223.846C342.799 223.143 341.768 221.831 341.393 220.378C339.565 213.629 344.486 200.694 351.469 195.539C352.922 194.461 354.703 194.367 356.015 194.555C357.796 194.789 359.905 195.68 361.077 196.851C362.202 197.976 362.53 199.241 362.577 200.929C362.623 202.663 362.108 205.662 361.639 207.115ZM381.443 197.086C382.709 198.351 383.224 199.804 383.318 201.585C383.646 207.959 381.022 218.175 375.726 223.377C373.945 225.111 372.023 225.58 369.727 225.299C368.227 225.111 366.446 224.549 365.228 223.705C364.29 223.049 363.259 221.784 362.838 220.331C360.822 213.629 364.9 201.725 371.414 196.336C372.773 195.211 374.882 194.649 376.382 194.883C378.35 195.164 380.366 196.008 381.443 197.086ZM376.71 200.179C375.257 199.71 371.93 204.912 370.289 209.318C368.649 213.676 367.759 219.628 369.493 220.331C371.18 221.034 373.851 216.957 375.726 211.38C377.179 207.068 378.21 200.647 376.71 200.179ZM389.481 215.691C388.497 218.644 387.559 221.597 386.763 224.315C386.482 225.299 386.153 225.486 385.169 225.252C384.185 224.971 383.295 224.643 382.639 224.174C381.795 223.565 381.701 222.909 381.936 221.597C382.826 217.285 385.31 209.083 387.466 202.335C387.091 201.632 386.622 200.741 386.341 199.991C385.919 198.82 385.966 198.257 386.95 197.695C391.543 195.117 400.354 192.915 403.213 196.336C404.384 197.742 405.369 199.71 405.697 202.194C406.025 204.819 404.806 206.974 402.978 208.755C401.104 210.583 398.432 212.411 395.386 213.911C396.886 216.441 399.37 219.862 401.151 221.971C401.9 222.815 401.666 223.284 401.01 223.846C400.213 224.502 399.791 224.596 398.995 224.83C398.104 225.111 396.979 225.158 395.714 223.94C393.933 222.346 391.262 218.785 389.481 215.691ZM394.496 201.772C393.605 203.975 392.668 206.646 391.637 209.505C397.167 207.396 400.776 203.131 400.401 201.632C400.166 200.554 397.495 200.319 394.496 201.772ZM415.789 192.352C414.992 192.493 414.29 192.446 413.633 192.165C412.321 191.602 411.29 190.431 411.29 189.775C411.29 189.4 411.431 189.212 412.134 188.978C415.508 187.853 417.711 186.963 420.804 185.416C421.647 184.994 421.929 184.994 422.304 185.697C422.585 186.26 422.772 187.244 422.772 188.181C422.772 188.79 422.538 189.306 421.976 189.821C420.804 190.899 418.554 191.884 415.789 192.352ZM416.258 196.992C417.195 197.742 417.289 198.164 416.914 199.241C414.758 205.053 410.868 217.519 408.947 224.362C408.666 225.393 408.291 225.58 407.306 225.299C406.322 225.018 405.198 224.502 404.401 223.94C403.557 223.331 403.417 222.721 403.698 221.362C404.823 216.019 408.806 202.053 410.868 196.195C411.29 195.07 411.899 194.883 412.93 195.211C413.961 195.539 415.414 196.336 416.258 196.992ZM427.538 217.332C424.538 217.847 421.164 218.41 418.774 219.066C417.743 220.987 416.806 222.815 416.009 224.408C415.493 225.393 415.118 225.44 414.228 225.065C413.431 224.737 412.635 224.268 411.978 223.518C411.322 222.768 411.322 222.112 411.885 220.8C414.978 213.911 421.117 202.475 425.101 196.242C425.851 195.07 426.694 194.461 428.335 194.508C430.256 194.555 432.787 195.211 434.287 195.82C435.411 196.289 435.552 196.992 435.365 198.164C434.521 204.069 433.443 215.363 432.834 224.034C432.787 225.111 432.506 225.393 431.475 225.393C430.444 225.393 429.225 225.205 428.569 224.971C427.632 224.643 427.35 224.034 427.35 222.628C427.35 221.128 427.444 219.347 427.538 217.332ZM422.383 212.27C424.21 211.989 426.085 211.708 427.866 211.567C428.147 207.865 428.522 204.022 428.944 200.694C427.116 203.787 424.726 208.005 422.383 212.27Z" fill="black"/>
<path d="M289.259 139.798C285.819 149.167 279.67 168.565 276.815 179.033C276.376 180.643 275.864 180.936 274.327 180.497C272.789 180.058 271.252 179.472 269.935 178.521C268.69 177.642 268.397 176.544 268.91 174.421C270.227 168.492 274.107 154.657 277.181 145.214C275.059 143.824 274.473 143.384 275.644 141.408C276.889 139.212 278.792 136.65 280.109 134.966C281.354 133.429 282.013 133.21 283.623 133.722C285.16 134.234 286.844 135.04 288.308 136.284C289.699 137.455 289.918 138.041 289.259 139.798Z" fill="#F7A400"/>
<path d="M293.146 156.519C292.582 155.545 292.121 154.059 291.916 153.137C291.711 152.112 291.967 151.907 292.787 151.702C296.323 150.677 302.881 149.909 307.595 149.755C308.671 149.704 309.337 150.216 309.593 151.19C309.952 152.266 310.106 153.034 310.208 154.059C310.259 155.186 309.952 155.596 308.825 155.699C306.468 155.955 303.547 156.314 300.78 156.775C300.012 158.876 299.089 161.284 298.167 163.794C299.448 163.59 300.729 163.487 302.113 163.436C303.24 163.385 303.855 163.641 304.213 164.614C304.572 165.639 304.828 166.561 304.931 167.586C305.084 168.713 304.777 169.021 303.65 169.277C301.036 169.789 298.116 170.353 295.554 171.019C294.99 172.608 294.427 174.196 293.966 175.682C296.066 175.272 297.911 175.016 300.114 174.862C301.241 174.76 301.908 175.016 302.266 175.989C302.676 177.065 302.932 177.988 303.035 179.012C303.189 180.14 302.932 180.498 301.805 180.754C298.884 181.421 295.605 182.138 292.838 182.906C291.301 183.316 290.533 183.111 289.61 182.343C288.944 181.779 288.278 181.113 287.561 180.14C286.997 179.371 286.638 178.244 286.946 176.809C287.971 172.249 290.891 163.282 293.146 156.519ZM314.967 172.71C313.891 175.938 312.867 179.166 311.996 182.138C311.688 183.214 311.329 183.419 310.253 183.163C309.177 182.855 308.204 182.497 307.487 181.984C306.564 181.318 306.462 180.601 306.718 179.166C307.691 174.452 310.407 165.485 312.764 158.107C312.354 157.338 311.842 156.365 311.534 155.545C311.073 154.264 311.124 153.649 312.2 153.034C317.222 150.216 326.855 147.808 329.98 151.548C331.261 153.086 332.337 155.238 332.696 157.953C333.055 160.823 331.722 163.18 329.724 165.127C327.675 167.125 324.754 169.123 321.423 170.763C323.063 173.53 325.779 177.27 327.726 179.576C328.546 180.498 328.289 181.011 327.572 181.625C326.701 182.343 326.24 182.445 325.369 182.702C324.395 183.009 323.166 183.06 321.782 181.728C319.835 179.986 316.914 176.092 314.967 172.71ZM320.45 157.492C319.476 159.9 318.452 162.821 317.324 165.947C323.37 163.641 327.316 158.978 326.906 157.338C326.65 156.16 323.729 155.904 320.45 157.492ZM345.066 174.503C341.787 175.067 338.098 175.682 335.485 176.399C334.358 178.5 333.333 180.498 332.462 182.24C331.898 183.316 331.488 183.368 330.515 182.958C329.644 182.599 328.773 182.087 328.055 181.267C327.338 180.447 327.338 179.73 327.953 178.295C331.334 170.763 338.047 158.261 342.402 151.446C343.222 150.165 344.144 149.499 345.937 149.55C348.038 149.601 350.805 150.319 352.445 150.985C353.674 151.497 353.828 152.266 353.623 153.547C352.701 160.003 351.522 172.351 350.856 181.83C350.805 183.009 350.498 183.316 349.37 183.316C348.243 183.316 346.911 183.111 346.194 182.855C345.169 182.497 344.861 181.83 344.861 180.293C344.861 178.654 344.964 176.707 345.066 174.503ZM339.43 168.97C341.428 168.662 343.478 168.355 345.425 168.201C345.732 164.153 346.142 159.952 346.604 156.314C344.605 159.695 341.992 164.307 339.43 168.97Z" fill="#F7A400"/>
<path d="M220.023 260.685V279.465H216.943V271.251H208.107V279.465H205.027V260.685H208.107V268.738H216.943V260.685H220.023ZM223.052 271.953C223.052 270.458 223.358 269.134 223.971 267.981C224.601 266.828 225.448 265.937 226.511 265.306C227.592 264.658 228.781 264.333 230.078 264.333C231.248 264.333 232.266 264.568 233.131 265.036C234.014 265.486 234.716 266.054 235.239 266.738V264.577H238.346V279.465H235.239V277.25C234.716 277.952 234.005 278.538 233.104 279.006C232.203 279.474 231.176 279.709 230.024 279.709C228.744 279.709 227.574 279.384 226.511 278.736C225.448 278.069 224.601 277.15 223.971 275.98C223.358 274.791 223.052 273.449 223.052 271.953ZM235.239 272.007C235.239 270.981 235.022 270.089 234.59 269.332C234.176 268.576 233.626 267.999 232.942 267.603C232.257 267.207 231.519 267.008 230.726 267.008C229.933 267.008 229.195 267.207 228.51 267.603C227.826 267.981 227.267 268.549 226.835 269.305C226.421 270.044 226.213 270.927 226.213 271.953C226.213 272.98 226.421 273.881 226.835 274.656C227.267 275.43 227.826 276.025 228.51 276.439C229.213 276.835 229.951 277.033 230.726 277.033C231.519 277.033 232.257 276.835 232.942 276.439C233.626 276.043 234.176 275.466 234.59 274.71C235.022 273.935 235.239 273.034 235.239 272.007ZM247.796 279.709C246.625 279.709 245.572 279.501 244.635 279.087C243.716 278.655 242.987 278.078 242.446 277.358C241.906 276.619 241.618 275.799 241.581 274.899H244.77C244.824 275.529 245.121 276.061 245.662 276.493C246.22 276.907 246.914 277.114 247.742 277.114C248.607 277.114 249.274 276.952 249.742 276.628C250.228 276.286 250.472 275.853 250.472 275.331C250.472 274.773 250.201 274.358 249.661 274.088C249.138 273.818 248.301 273.521 247.148 273.196C246.031 272.89 245.121 272.593 244.419 272.305C243.716 272.016 243.104 271.575 242.581 270.981C242.077 270.386 241.825 269.603 241.825 268.63C241.825 267.837 242.059 267.117 242.527 266.468C242.996 265.802 243.662 265.279 244.527 264.901C245.41 264.522 246.418 264.333 247.553 264.333C249.247 264.333 250.607 264.766 251.633 265.63C252.678 266.477 253.237 267.639 253.309 269.116H250.228C250.174 268.45 249.904 267.918 249.418 267.522C248.931 267.126 248.274 266.927 247.445 266.927C246.634 266.927 246.013 267.081 245.581 267.387C245.148 267.693 244.932 268.098 244.932 268.603C244.932 268.999 245.076 269.332 245.364 269.603C245.653 269.873 246.004 270.089 246.418 270.251C246.833 270.395 247.445 270.584 248.256 270.818C249.337 271.107 250.219 271.404 250.904 271.71C251.606 271.998 252.21 272.431 252.714 273.007C253.219 273.584 253.48 274.349 253.498 275.304C253.498 276.151 253.264 276.907 252.795 277.574C252.327 278.24 251.66 278.763 250.796 279.141C249.949 279.519 248.949 279.709 247.796 279.709ZM260.42 267.09V275.331C260.42 275.889 260.546 276.295 260.799 276.547C261.069 276.781 261.519 276.898 262.15 276.898H264.041V279.465H261.609C260.222 279.465 259.159 279.141 258.421 278.493C257.682 277.844 257.313 276.79 257.313 275.331V267.09H255.556V264.577H257.313V260.875H260.42V264.577H264.041V267.09H260.42ZM265.853 271.953C265.853 270.458 266.16 269.134 266.772 267.981C267.403 266.828 268.249 265.937 269.312 265.306C270.393 264.658 271.582 264.333 272.879 264.333C274.05 264.333 275.068 264.568 275.932 265.036C276.815 265.486 277.518 266.054 278.04 266.738V264.577H281.148V279.465H278.04V277.25C277.518 277.952 276.806 278.538 275.905 279.006C275.005 279.474 273.978 279.709 272.825 279.709C271.546 279.709 270.375 279.384 269.312 278.736C268.249 278.069 267.403 277.15 266.772 275.98C266.16 274.791 265.853 273.449 265.853 271.953ZM278.04 272.007C278.04 270.981 277.824 270.089 277.392 269.332C276.977 268.576 276.428 267.999 275.743 267.603C275.059 267.207 274.32 267.008 273.528 267.008C272.735 267.008 271.996 267.207 271.312 267.603C270.627 267.981 270.069 268.549 269.636 269.305C269.222 270.044 269.015 270.927 269.015 271.953C269.015 272.98 269.222 273.881 269.636 274.656C270.069 275.43 270.627 276.025 271.312 276.439C272.014 276.835 272.753 277.033 273.528 277.033C274.32 277.033 275.059 276.835 275.743 276.439C276.428 276.043 276.977 275.466 277.392 274.71C277.824 273.935 278.04 273.034 278.04 272.007ZM295.293 259.469V279.465H292.213V259.469H295.293ZM305.796 279.709C304.391 279.709 303.121 279.393 301.986 278.763C300.851 278.114 299.959 277.214 299.311 276.061C298.662 274.89 298.338 273.539 298.338 272.007C298.338 270.494 298.671 269.152 299.338 267.981C300.004 266.81 300.914 265.91 302.067 265.279C303.22 264.649 304.508 264.333 305.931 264.333C307.354 264.333 308.642 264.649 309.795 265.279C310.948 265.91 311.858 266.81 312.524 267.981C313.191 269.152 313.524 270.494 313.524 272.007C313.524 273.521 313.182 274.863 312.497 276.034C311.813 277.205 310.876 278.114 309.687 278.763C308.516 279.393 307.219 279.709 305.796 279.709ZM305.796 277.033C306.588 277.033 307.327 276.844 308.011 276.466C308.714 276.088 309.282 275.52 309.714 274.764C310.146 274.007 310.362 273.088 310.362 272.007C310.362 270.927 310.155 270.017 309.741 269.278C309.327 268.522 308.777 267.954 308.093 267.576C307.408 267.198 306.669 267.008 305.877 267.008C305.084 267.008 304.346 267.198 303.661 267.576C302.995 267.954 302.463 268.522 302.067 269.278C301.67 270.017 301.472 270.927 301.472 272.007C301.472 273.611 301.878 274.854 302.688 275.736C303.517 276.601 304.553 277.033 305.796 277.033ZM321.973 279.709C320.802 279.709 319.749 279.501 318.812 279.087C317.893 278.655 317.164 278.078 316.623 277.358C316.083 276.619 315.794 275.799 315.758 274.899H318.947C319.001 275.529 319.298 276.061 319.839 276.493C320.397 276.907 321.091 277.114 321.919 277.114C322.784 277.114 323.45 276.952 323.919 276.628C324.405 276.286 324.648 275.853 324.648 275.331C324.648 274.773 324.378 274.358 323.838 274.088C323.315 273.818 322.478 273.521 321.325 273.196C320.208 272.89 319.298 272.593 318.596 272.305C317.893 272.016 317.281 271.575 316.758 270.981C316.254 270.386 316.002 269.603 316.002 268.63C316.002 267.837 316.236 267.117 316.704 266.468C317.173 265.802 317.839 265.279 318.704 264.901C319.586 264.522 320.595 264.333 321.73 264.333C323.423 264.333 324.784 264.766 325.81 265.63C326.855 266.477 327.414 267.639 327.486 269.116H324.405C324.351 268.45 324.081 267.918 323.595 267.522C323.108 267.126 322.451 266.927 321.622 266.927C320.811 266.927 320.19 267.081 319.758 267.387C319.325 267.693 319.109 268.098 319.109 268.603C319.109 268.999 319.253 269.332 319.541 269.603C319.83 269.873 320.181 270.089 320.595 270.251C321.01 270.395 321.622 270.584 322.433 270.818C323.514 271.107 324.396 271.404 325.081 271.71C325.783 271.998 326.387 272.431 326.891 273.007C327.396 273.584 327.657 274.349 327.675 275.304C327.675 276.151 327.441 276.907 326.972 277.574C326.504 278.24 325.837 278.763 324.973 279.141C324.126 279.519 323.126 279.709 321.973 279.709ZM350.101 262.145L342.589 279.465H339.482L347.075 262.469H337.077V259.848H350.101V262.145ZM359.135 271.953C359.135 270.458 359.442 269.134 360.054 267.981C360.685 266.828 361.531 265.937 362.594 265.306C363.675 264.658 364.864 264.333 366.161 264.333C367.332 264.333 368.35 264.568 369.214 265.036C370.097 265.486 370.8 266.054 371.322 266.738V264.577H374.429V279.465H371.322V277.25C370.8 277.952 370.088 278.538 369.187 279.006C368.287 279.474 367.26 279.709 366.107 279.709C364.828 279.709 363.657 279.384 362.594 278.736C361.531 278.069 360.685 277.15 360.054 275.98C359.442 274.791 359.135 273.449 359.135 271.953ZM371.322 272.007C371.322 270.981 371.106 270.089 370.673 269.332C370.259 268.576 369.71 267.999 369.025 267.603C368.341 267.207 367.602 267.008 366.809 267.008C366.017 267.008 365.278 267.207 364.594 267.603C363.909 267.981 363.351 268.549 362.918 269.305C362.504 270.044 362.297 270.927 362.297 271.953C362.297 272.98 362.504 273.881 362.918 274.656C363.351 275.43 363.909 276.025 364.594 276.439C365.296 276.835 366.035 277.033 366.809 277.033C367.602 277.033 368.341 276.835 369.025 276.439C369.71 276.043 370.259 275.466 370.673 274.71C371.106 273.935 371.322 273.034 371.322 272.007ZM385.987 264.333C387.158 264.333 388.203 264.577 389.122 265.063C390.059 265.549 390.788 266.27 391.311 267.225C391.833 268.179 392.094 269.332 392.094 270.683V279.465H389.041V271.143C389.041 269.81 388.708 268.792 388.041 268.089C387.375 267.369 386.465 267.008 385.312 267.008C384.159 267.008 383.24 267.369 382.556 268.089C381.889 268.792 381.556 269.81 381.556 271.143V279.465H378.475V264.577H381.556V266.279C382.06 265.666 382.7 265.189 383.474 264.847C384.267 264.504 385.105 264.333 385.987 264.333ZM381.097 263.036C381.241 261.991 381.583 261.208 382.123 260.685C382.664 260.145 383.339 259.875 384.15 259.875C384.492 259.875 384.789 259.929 385.042 260.037C385.294 260.145 385.6 260.307 385.96 260.523C386.231 260.703 386.456 260.839 386.636 260.929C386.834 261.019 387.05 261.064 387.284 261.064C387.591 261.064 387.843 260.974 388.041 260.794C388.257 260.595 388.392 260.307 388.446 259.929H390.176C390.032 260.974 389.689 261.766 389.149 262.307C388.609 262.829 387.933 263.09 387.122 263.09C386.78 263.09 386.474 263.036 386.204 262.928C385.933 262.802 385.636 262.631 385.312 262.415C384.988 262.217 384.735 262.082 384.555 262.01C384.393 261.919 384.204 261.874 383.988 261.874C383.682 261.874 383.42 261.973 383.204 262.172C383.006 262.37 382.88 262.658 382.826 263.036H381.097ZM402.482 279.709C401.077 279.709 399.807 279.393 398.672 278.763C397.537 278.114 396.645 277.214 395.997 276.061C395.348 274.89 395.024 273.539 395.024 272.007C395.024 270.494 395.357 269.152 396.024 267.981C396.69 266.81 397.6 265.91 398.753 265.279C399.906 264.649 401.194 264.333 402.617 264.333C404.04 264.333 405.328 264.649 406.481 265.279C407.634 265.91 408.543 266.81 409.21 267.981C409.877 269.152 410.21 270.494 410.21 272.007C410.21 273.521 409.868 274.863 409.183 276.034C408.498 277.205 407.562 278.114 406.373 278.763C405.202 279.393 403.905 279.709 402.482 279.709ZM402.482 277.033C403.274 277.033 404.013 276.844 404.697 276.466C405.4 276.088 405.967 275.52 406.4 274.764C406.832 274.007 407.048 273.088 407.048 272.007C407.048 270.927 406.841 270.017 406.427 269.278C406.012 268.522 405.463 267.954 404.779 267.576C404.094 267.198 403.355 267.008 402.563 267.008C401.77 267.008 401.032 267.198 400.347 267.576C399.68 267.954 399.149 268.522 398.753 269.278C398.356 270.017 398.158 270.927 398.158 272.007C398.158 273.611 398.564 274.854 399.374 275.736C400.203 276.601 401.239 277.033 402.482 277.033ZM418.659 279.709C417.488 279.709 416.435 279.501 415.498 279.087C414.579 278.655 413.849 278.078 413.309 277.358C412.769 276.619 412.48 275.799 412.444 274.899H415.633C415.687 275.529 415.984 276.061 416.525 276.493C417.083 276.907 417.777 277.114 418.605 277.114C419.47 277.114 420.136 276.952 420.605 276.628C421.091 276.286 421.334 275.853 421.334 275.331C421.334 274.773 421.064 274.358 420.524 274.088C420.001 273.818 419.164 273.521 418.011 273.196C416.894 272.89 415.984 272.593 415.282 272.305C414.579 272.016 413.967 271.575 413.444 270.981C412.94 270.386 412.688 269.603 412.688 268.63C412.688 267.837 412.922 267.117 413.39 266.468C413.858 265.802 414.525 265.279 415.39 264.901C416.272 264.522 417.281 264.333 418.416 264.333C420.109 264.333 421.47 264.766 422.496 265.63C423.541 266.477 424.1 267.639 424.172 269.116H421.091C421.037 268.45 420.767 267.918 420.281 267.522C419.794 267.126 419.137 266.927 418.308 266.927C417.497 266.927 416.876 267.081 416.444 267.387C416.011 267.693 415.795 268.098 415.795 268.603C415.795 268.999 415.939 269.332 416.227 269.603C416.516 269.873 416.867 270.089 417.281 270.251C417.696 270.395 418.308 270.584 419.119 270.818C420.199 271.107 421.082 271.404 421.767 271.71C422.469 271.998 423.073 272.431 423.577 273.007C424.082 273.584 424.343 274.349 424.361 275.304C424.361 276.151 424.127 276.907 423.658 277.574C423.19 278.24 422.523 278.763 421.659 279.141C420.812 279.519 419.812 279.709 418.659 279.709Z" fill="white"/>
</svg>
