<svg width="445" height="113" viewBox="0 0 445 113" fill="none" xmlns="http://www.w3.org/2000/svg">
<path d="M37.7793 83.7959C70.3189 84.7106 102.663 87.7049 135.198 89.311C162.774 90.6861 190.392 91.172 217.99 92.2573C245.698 93.3506 273.41 94.7172 301.104 96.0097C315.934 96.6998 330.738 97.4425 345.563 98.205C365.679 99.2409 387.144 102.068 407.016 99.6629C425.146 97.4782 441.281 82.9143 441.546 67.7855C441.79 52.9464 430.981 35.6878 411.961 31.2719C392.127 26.6514 371.185 26.8121 350.801 25.7569C335.977 24.9944 321.15 24.25 306.343 23.5616C278.626 22.2675 250.903 21.3734 223.167 20.6605C195.542 19.9556 167.836 19.1355 140.245 19.5073C123.108 19.7428 105.991 19.998 88.8897 20.9644C81.1711 21.4076 73.4332 22.1226 65.7028 22.4193C71.7481 22.1828 58.7827 22.3558 57.3481 22.3613C52.3034 22.3971 47.235 22.4493 42.189 22.5032C22.5005 22.6817 2.57451 32.6565 2.25353 50.4212C2.02024 66.3535 16.6221 83.2128 37.7793 83.7959Z" fill="#F7A400"/>
<path d="M67.6469 51.2578C68.4862 51.8503 68.5356 52.5414 68.2887 53.8251C67.252 58.9101 62.8087 61.6254 60.2909 63.304C57.1806 65.3775 55.9958 67.3029 55.9958 68.5865C55.9958 69.4258 56.6376 69.8207 57.23 69.8207C59.0073 69.7714 60.9821 67.846 63.105 66.1674C64.7341 64.8838 67.0051 64.6863 68.8318 65.6737C69.7698 66.1674 70.1154 66.8586 68.4862 68.9815C66.0671 72.1905 62.9568 74.4121 60.044 75.0539C56.292 75.8438 53.5767 73.869 52.3424 71.8449C49.6271 67.451 51.2069 63.7483 53.2804 61.3786C56.3413 57.9227 61.7226 57.2315 63.3024 50.9123C63.5493 49.9249 63.9442 49.7274 64.8823 49.9742C65.7709 50.2211 66.9558 50.7642 67.6469 51.2578ZM71.1522 45.7778C70.7078 47.8514 68.7331 49.4805 66.0671 48.5425C63.5493 47.6539 63.6974 45.3335 64.1417 44.0499C64.6848 42.3714 66.314 41.2359 68.4368 41.5321C70.2635 41.7789 71.6952 43.3587 71.1522 45.7778ZM88.9109 65.4762C90.4413 66.0193 90.1945 67.1548 89.3552 68.784C88.4172 70.66 86.8374 72.388 85.5538 73.5234C84.1714 74.7083 81.8511 75.3995 79.9257 75.202C77.9015 75.0045 76.2723 74.264 75.0874 73.5728C74.0507 72.931 72.8165 71.6968 72.3721 70.2157C70.2492 63.4027 75.1862 49.8755 82.0979 43.9512C83.9246 42.4207 85.6525 42.0751 87.0842 42.2232C89.2071 42.4207 91.7249 43.5068 92.9592 44.6423C94.3415 45.9259 94.5884 47.3083 94.539 49.0362C94.4896 51.011 93.9466 53.8251 93.3048 55.4049C93.0085 56.1948 92.7617 56.7378 91.4781 56.4416C88.9109 55.8492 88.0222 54.5656 87.9235 52.2452C87.8741 50.5667 88.664 48.2957 87.5779 47.8514C86.1462 47.2589 82.1473 53.8744 80.4687 58.4164C78.642 63.304 77.8521 68.9815 79.5801 69.6233C80.5181 69.9689 81.8017 69.0802 83.8258 66.8092C85.2082 65.2788 87.0348 64.8344 88.9109 65.4762ZM113.545 44.9879C114.878 46.3209 115.421 47.8514 115.519 49.7274C115.865 56.4416 113.1 67.2042 107.522 72.6842C105.646 74.5108 103.621 75.0045 101.202 74.7083C99.6225 74.5108 97.7465 73.9184 96.4629 73.0298C95.4755 72.3386 94.3893 71.0056 93.945 69.4752C91.8221 62.4153 96.1173 49.8755 102.98 44.198C104.411 43.0132 106.633 42.4207 108.213 42.6676C110.286 42.9638 112.409 43.8524 113.545 44.9879ZM108.558 48.2463C107.028 47.7526 103.523 53.2326 101.795 57.8733C100.067 62.4647 99.1288 68.7346 100.955 69.4752C102.733 70.2157 105.547 65.9206 107.522 60.0456C109.052 55.5036 110.138 48.74 108.558 48.2463ZM111.126 40.1497C109.941 40.3966 108.904 40.2978 108.213 39.9029C107.077 39.2611 106.09 38.1256 106.09 37.5331C106.09 37.1382 106.238 36.9407 106.979 36.6939C110.533 35.509 113.89 34.0279 117.346 32.3C118.235 31.8557 118.63 32.0531 118.975 32.7443C119.272 33.3368 119.469 34.3241 119.469 35.2128C119.469 35.904 119.222 36.6445 118.432 37.1876C116.556 38.4712 113.446 39.656 111.126 40.1497ZM125.19 68.6852C124.993 65.7231 125.092 57.6759 125.24 53.5288C123.709 58.4658 120.895 67.8953 119.414 73.5728C119.069 74.8071 118.575 75.0539 117.439 74.6589C116.847 74.4615 116.057 74.0665 115.415 73.6716C114.181 72.931 113.984 72.0917 114.428 70.0676C115.81 63.5508 119.957 50.1717 122.031 44.2968C122.475 43.1613 122.969 42.7663 123.907 42.7663C125.24 42.7663 127.61 43.5562 128.794 44.1486C130.325 44.9386 130.67 45.531 130.67 47.1108L130.621 49.7768L130.572 56.3923V59.4532C132.991 54.5162 137.335 47.0614 139.458 43.8031C140.199 42.6676 140.989 42.4207 142.272 42.6182C143.408 42.8157 145.629 43.5068 147.456 44.4449C148.493 44.9879 148.69 45.6791 148.246 47.2096C146.321 53.9238 142.025 67.5004 140.396 73.6222C140.149 74.4121 139.754 74.8071 139.211 74.8071C138.52 74.8071 137.237 74.264 136.496 73.8197C135.262 73.0791 134.916 72.388 135.41 70.0676C136.249 66.1674 138.372 58.7126 140.396 52.5908C137.73 57.3303 133.435 65.18 130.473 70.9562C130.029 71.8449 129.732 72.1411 129.189 72.1411C128.597 72.1411 127.659 71.8449 126.721 71.4006C125.734 70.9562 125.289 70.3144 125.19 68.6852ZM166.771 44.9879C168.104 46.3209 168.647 47.8514 168.746 49.7274C169.091 56.4416 166.327 67.2042 160.748 72.6842C158.872 74.5108 156.848 75.0045 154.429 74.7083C152.849 74.5108 150.973 73.9184 149.689 73.0298C148.702 72.3386 147.616 71.0056 147.171 69.4752C145.049 62.4153 149.344 49.8755 156.206 44.198C157.638 43.0132 159.859 42.4207 161.439 42.6676C163.513 42.9638 165.636 43.8524 166.771 44.9879ZM161.785 48.2463C160.254 47.7526 156.749 53.2326 155.021 57.8733C153.293 62.4647 152.355 68.7346 154.182 69.4752C155.959 70.2157 158.773 65.9206 160.748 60.0456C162.278 55.5036 163.365 48.74 161.785 48.2463ZM187.148 65.3281C186.209 68.2903 185.271 71.2031 184.531 73.9184C184.185 74.9552 183.84 75.202 182.803 74.9058C181.865 74.6589 180.631 74.1159 179.841 73.5234C179.002 72.8816 178.853 72.1905 179.15 70.8081C180.088 66.2661 182.704 57.6265 184.926 50.5173C184.58 49.8261 184.087 48.8881 183.79 48.0488C183.297 46.8146 183.395 46.2222 184.432 45.6297C189.27 42.9144 198.601 40.5447 201.563 44.198C202.748 45.6791 203.834 47.5551 204.18 50.3692C204.526 53.1339 203.094 55.3061 201.267 57.2809C198.305 60.5887 192.331 63.7977 187.148 65.3281ZM189.468 58.2683C195.54 56.0467 198.848 51.7515 198.502 49.7768C198.354 48.6906 195.491 48.6413 192.381 50.073C191.492 52.4427 190.505 55.2568 189.468 58.2683ZM214.508 66.3155C211.349 66.8586 207.794 67.451 205.276 68.1422C204.19 70.1663 203.203 72.0917 202.363 73.7703C201.82 74.8071 201.425 74.8564 200.487 74.4615C199.648 74.1159 198.809 73.6222 198.118 72.8323C197.426 72.0424 197.426 71.3512 198.019 69.9689C201.277 62.7115 207.745 50.6654 211.941 44.0993C212.731 42.865 213.62 42.2232 215.347 42.2726C217.372 42.322 220.038 43.0132 221.617 43.655C222.802 44.1486 222.95 44.8892 222.753 46.1234C221.864 52.344 220.729 64.242 220.087 73.3753C220.038 74.5108 219.741 74.8071 218.655 74.8071C217.569 74.8071 216.286 74.6096 215.594 74.3627C214.607 74.0171 214.311 73.3753 214.311 71.8943C214.311 70.3144 214.409 68.4384 214.508 66.3155ZM209.078 60.9836C211.003 60.6874 212.978 60.3912 214.854 60.2431C215.15 56.3429 215.545 52.2946 215.989 48.7894C214.064 52.0478 211.546 56.491 209.078 60.9836ZM230.441 64.5876C229.404 67.6979 228.417 70.8081 227.578 73.6716C227.281 74.7083 226.936 74.9058 225.899 74.6589C224.862 74.3627 223.924 74.0171 223.233 73.5234C222.344 72.8816 222.246 72.1905 222.493 70.8081C223.431 66.2661 226.047 57.6265 228.318 50.5173C227.923 49.7768 227.429 48.8387 227.133 48.0488C226.689 46.8146 226.738 46.2222 227.775 45.6297C232.613 42.9144 241.895 40.5941 244.906 44.198C246.14 45.6791 247.177 47.7526 247.523 50.3692C247.868 53.1339 246.585 55.4049 244.659 57.2809C242.685 59.2063 239.871 61.1317 236.662 62.7115C238.241 65.3775 240.858 68.9815 242.734 71.2031C243.524 72.0917 243.277 72.5854 242.586 73.1779C241.747 73.869 241.302 73.9678 240.463 74.2146C239.525 74.5108 238.34 74.5602 237.007 73.2766C235.131 71.598 232.317 67.846 230.441 64.5876ZM235.724 49.9249C234.786 52.2452 233.798 55.0593 232.712 58.0708C238.538 55.8492 242.339 51.3566 241.944 49.7768C241.697 48.6413 238.883 48.3944 235.724 49.9249ZM267.168 47.9007C265.588 48.0488 263.515 48.2463 261.787 48.4438C259.121 56.1454 256.011 66.118 253.838 73.869C253.542 74.9058 253.196 75.1033 252.16 74.8071C251.123 74.5108 249.987 74.0171 249.099 73.3753C248.21 72.7335 248.111 71.993 248.408 70.6107C249.444 65.4269 252.258 55.7505 254.332 49.4805C253.147 49.678 251.962 49.9249 251.222 50.073C250.185 50.2705 249.642 50.1717 249.099 49.2831C248.506 48.2957 247.914 46.6665 247.716 45.7285C247.519 44.7411 247.865 44.4942 248.654 44.2968C253.295 43.26 260.602 42.5195 265.193 42.4207C266.329 42.4207 266.724 42.7169 267.069 43.2106C267.711 44.198 268.155 45.531 268.304 46.469C268.452 47.5058 268.353 47.802 267.168 47.9007ZM276.583 44.8892C277.571 45.6791 277.669 46.1234 277.274 47.2589C275.003 53.3807 270.906 66.513 268.882 73.7209C268.585 74.8071 268.19 75.0045 267.154 74.7083C266.117 74.4121 264.932 73.869 264.093 73.2766C263.204 72.6348 263.056 71.993 263.352 70.5613C264.537 64.9332 268.734 50.2211 270.906 44.0499C271.35 42.865 271.992 42.6676 273.078 43.0132C274.164 43.3587 275.695 44.198 276.583 44.8892ZM291.74 65.4762C293.271 66.0193 293.024 67.1548 292.184 68.784C291.246 70.66 289.667 72.388 288.383 73.5234C287.001 74.7083 284.68 75.3995 282.755 75.202C280.731 75.0045 279.102 74.264 277.917 73.5728C276.88 72.931 275.646 71.6968 275.201 70.2157C273.078 63.4027 278.015 49.8755 284.927 43.9512C286.754 42.4207 288.482 42.0751 289.913 42.2232C292.036 42.4207 294.554 43.5068 295.788 44.6423C297.171 45.9259 297.418 47.3083 297.368 49.0362C297.319 51.011 296.776 53.8251 296.134 55.4049C295.838 56.1948 295.591 56.7378 294.307 56.4416C291.74 55.8492 290.851 54.5656 290.753 52.2452C290.703 50.5667 291.493 48.2957 290.407 47.8514C288.975 47.2589 284.976 53.8744 283.298 58.4164C281.471 63.304 280.681 68.9815 282.409 69.6233C283.347 69.9689 284.631 69.0802 286.655 66.8092C288.037 65.2788 289.864 64.8344 291.74 65.4762ZM307.969 44.8892C308.957 45.6791 309.056 46.1234 308.661 47.2589C306.39 53.3807 302.292 66.513 300.268 73.7209C299.972 74.8071 299.577 75.0045 298.54 74.7083C297.503 74.4121 296.318 73.869 295.479 73.2766C294.59 72.6348 294.442 71.993 294.738 70.5613C295.923 64.9332 300.12 50.2211 302.292 44.0499C302.736 42.865 303.378 42.6676 304.464 43.0132C305.55 43.3587 307.081 44.198 307.969 44.8892ZM314.042 65.3281C313.104 68.2903 312.166 71.2031 311.426 73.9184C311.08 74.9552 310.735 75.202 309.698 74.9058C308.76 74.6589 307.526 74.1159 306.736 73.5234C305.896 72.8816 305.748 72.1905 306.044 70.8081C306.982 66.2661 309.599 57.6265 311.821 50.5173C311.475 49.8261 310.981 48.8881 310.685 48.0488C310.192 46.8146 310.29 46.2222 311.327 45.6297C316.165 42.9144 325.496 40.5447 328.458 44.198C329.643 45.6791 330.729 47.5551 331.075 50.3692C331.42 53.1339 329.989 55.3061 328.162 57.2809C325.2 60.5887 319.226 63.7977 314.042 65.3281ZM316.363 58.2683C322.435 56.0467 325.743 51.7515 325.397 49.7768C325.249 48.6906 322.386 48.6413 319.275 50.073C318.387 52.4427 317.399 55.2568 316.363 58.2683ZM341.403 66.3155C338.243 66.8586 334.689 67.451 332.171 68.1422C331.085 70.1663 330.097 72.0917 329.258 73.7703C328.715 74.8071 328.32 74.8564 327.382 74.4615C326.543 74.1159 325.704 73.6222 325.012 72.8323C324.321 72.0424 324.321 71.3512 324.914 69.9689C328.172 62.7115 334.639 50.6654 338.836 44.0993C339.626 42.865 340.514 42.2232 342.242 42.2726C344.266 42.322 346.932 43.0132 348.512 43.655C349.697 44.1486 349.845 44.8892 349.648 46.1234C348.759 52.344 347.624 64.242 346.982 73.3753C346.932 74.5108 346.636 74.8071 345.55 74.8071C344.464 74.8071 343.18 74.6096 342.489 74.3627C341.502 74.0171 341.206 73.3753 341.206 71.8943C341.206 70.3144 341.304 68.4384 341.403 66.3155ZM335.972 60.9836C337.898 60.6874 339.873 60.3912 341.749 60.2431C342.045 56.3429 342.44 52.2946 342.884 48.7894C340.959 52.0478 338.441 56.491 335.972 60.9836ZM357.336 64.5876C356.299 67.6979 355.312 70.8081 354.472 73.6716C354.176 74.7083 353.831 74.9058 352.794 74.6589C351.757 74.3627 350.819 74.0171 350.128 73.5234C349.239 72.8816 349.14 72.1905 349.387 70.8081C350.325 66.2661 352.942 57.6265 355.213 50.5173C354.818 49.7768 354.324 48.8387 354.028 48.0488C353.584 46.8146 353.633 46.2222 354.67 45.6297C359.508 42.9144 368.79 40.5941 371.801 44.198C373.035 45.6791 374.072 47.7526 374.418 50.3692C374.763 53.1339 373.48 55.4049 371.554 57.2809C369.579 59.2063 366.765 61.1317 363.556 62.7115C365.136 65.3775 367.753 68.9815 369.629 71.2031C370.419 72.0917 370.172 72.5854 369.481 73.1779C368.641 73.869 368.197 73.9678 367.358 74.2146C366.42 74.5108 365.235 74.5602 363.902 73.2766C362.026 71.598 359.212 67.846 357.336 64.5876ZM362.618 49.9249C361.68 52.2452 360.693 55.0593 359.607 58.0708C365.432 55.8492 369.234 51.3566 368.839 49.7768C368.592 48.6413 365.778 48.3944 362.618 49.9249ZM377.927 65.8218C377.087 65.2294 377.038 64.5382 377.285 63.2546C378.322 58.1696 382.765 55.4542 385.283 53.7757C388.393 51.7022 389.578 49.7768 389.578 48.4932C389.578 47.6539 388.936 47.2589 388.344 47.2589C386.566 47.3083 384.592 49.2337 382.469 50.9123C380.84 52.1959 378.569 52.3933 376.742 51.406C375.804 50.9123 375.458 50.2211 377.087 48.0982C379.507 44.8892 382.617 42.6676 385.53 42.0258C389.282 41.2359 391.997 43.2106 393.231 45.2348C395.947 49.6287 394.367 53.3314 392.293 55.7011C389.232 59.157 383.851 59.8481 382.271 66.1674C382.024 67.1548 381.629 67.3523 380.691 67.1054C379.803 66.8586 378.618 66.3155 377.927 65.8218ZM374.422 71.3018C374.866 69.2283 376.841 67.5991 379.507 68.5371C382.024 69.4258 381.876 71.7462 381.432 73.0298C380.889 74.7083 379.26 75.8438 377.137 75.5476C375.31 75.3007 373.878 73.7209 374.422 71.3018Z" fill="white"/>
</svg>
