<svg xmlns="http://www.w3.org/2000/svg" viewBox="0 0 52.35 49.26"><defs><style>.cls-1{fill:#e64c92;}</style></defs><title>Recurso 1</title><g id="Capa_2" data-name="Capa 2"><g id="AF"><path class="cls-1" d="M6,10.62c.42.68.41,1-.13,1.47a13.39,13.39,0,0,0-3.62,6.39,24,24,0,0,0-.38,13.09A22,22,0,0,0,8.15,41.68a22.77,22.77,0,0,0,9.53,5.51,25.74,25.74,0,0,0,9.08.9,28.29,28.29,0,0,0,10.58-2.9,24.87,24.87,0,0,0,8-6.1,24.55,24.55,0,0,0,5.48-10.9,20.35,20.35,0,0,0,.3-7A23.27,23.27,0,0,0,46.19,9.73a19.61,19.61,0,0,0-10-6.8,39.45,39.45,0,0,0-8.1-1.7,34,34,0,0,0-8,.14A26.12,26.12,0,0,0,8.69,5.7,15.29,15.29,0,0,0,4,10.84c-.29.55-.71.66-1,.25a.93.93,0,0,1,0-.78A15.85,15.85,0,0,1,7.94,4.8,25.74,25.74,0,0,1,17.71.69,32.65,32.65,0,0,1,26.8.08,35.65,35.65,0,0,1,38.6,2.55a21.66,21.66,0,0,1,8.3,6.28,23.47,23.47,0,0,1,4.92,10.33A25.66,25.66,0,0,1,52.21,27a20.3,20.3,0,0,1-2.79,8.06A39,39,0,0,1,46,40.24a17.65,17.65,0,0,1-6.11,4.84c-2,1-4.06,1.91-6.15,2.69a24.79,24.79,0,0,1-9.81,1.47,33.16,33.16,0,0,1-7.14-1.1,19.15,19.15,0,0,1-7.13-3.7A25.27,25.27,0,0,1,1.09,33a20.52,20.52,0,0,1-1-8.45A30.16,30.16,0,0,1,2,15.78a12.41,12.41,0,0,1,3.67-4.95A2,2,0,0,1,6,10.62Z"/><path class="cls-1" d="M17.25,15.53c.93.26,1.87.49,2.78.79,3.75,1.27,7.33,2.93,10.93,4.56,2.08.95,4.15,1.92,6.23,2.88a2.42,2.42,0,0,1,.45.24.86.86,0,0,1,0,1.54c-1,.59-1.93,1.22-2.94,1.73q-4.59,2.3-9.23,4.51c-2.22,1.07-4.45,2.09-6.68,3.14a1.11,1.11,0,0,1-1.67-1.06q-.18-5.23-.39-10.47c-.1-2.18-.23-4.35-.35-6.53a2.13,2.13,0,0,0,0-.25C16.28,15.9,16.52,15.61,17.25,15.53Zm1.53,17.72c5.61-2.85,11.6-4.94,17-8.4a1.29,1.29,0,0,0-.23-.12c-2-.94-4-1.9-6-2.8-3.3-1.46-6.61-2.88-9.93-4.29a11,11,0,0,0-1.6-.45C18.27,22.59,18.52,27.89,18.78,33.25Z"/></g></g></svg>