<svg width="800" height="273" viewBox="0 0 800 273" fill="none" xmlns="http://www.w3.org/2000/svg">
<g clip-path="url(#clip0_274_6)">
<path d="M529.23 17.33C518.42 17.38 507.51 17.83 496.71 17.33C484.08 16.74 471.57 15.66 458.98 14.58C452.44 14.02 445.85 13.85 439.29 13.52C436.04 13.36 432.75 13.02 429.51 13.02C425.6 13.02 431.75 13.47 432.06 13.52C429.48 13.06 426.84 12.72 424.24 12.43C422.25 12.21 420.26 12.09 418.26 11.97C403.99 11.1 389.72 10.25 375.44 9.5C320.67 6.62 265.91 4.26 211.08 3.06C191.05 2.63 170.99 1.92 150.95 2C132.69 2.09 115.18 18.01 116.03 36.93C116.87 55.78 131.38 71.95 150.95 71.85C193.17 71.65 235.41 70.1 277.6 68.76C306.56 67.84 335.45 66.62 364.39 65.16C378.77 64.43 393.14 63.71 407.51 62.84C410.87 62.64 414.22 62.44 417.58 62.23C419.35 62.12 421.13 62.06 422.9 61.91C425.5 61.69 428.39 61.14 430.78 60.86C434.93 60.37 425.76 61.11 428.84 61.19C435.68 61.37 442.71 60.49 449.54 60.14C463.8 59.41 477.97 57.69 492.24 56.97C504.55 56.35 516.9 56.59 529.22 56.53C539.47 56.48 549.3 47.55 548.83 36.92C548.36 26.34 540.21 17.26 529.22 17.31L529.23 17.33Z" fill="#D2D22E"/>
</g>
<g clip-path="url(#clip1_274_6)">
<g opacity="0.8">
<path d="M488.04 198.03C497.64 199.56 507.43 201.66 517.14 202.14C523 202.43 528.86 202.72 534.72 203.02C541.77 203.38 548.83 203.93 555.89 203.97C566.64 204.02 577.39 204.09 588.15 204.12C594.27 204.14 600.27 204.3 606.38 204.82C610.15 205.14 613.93 205.47 617.7 205.79C620 205.99 622.29 206.18 624.59 206.38C629.72 206.82 634.61 206.1 639.7 205.23C646.36 204.1 652.51 198.76 656.43 193.69C660.63 188.26 663.66 181.23 663.35 174.17C663.09 168.45 661.63 162.97 658.95 157.91C655.62 151.6 646.9 144.34 639.7 143.11C632.5 141.88 627.08 141.75 620.21 142.32C616.54 142.63 612.88 142.93 609.21 143.24C603.47 143.72 597.82 144.13 592.05 144.12C585.16 144.11 578.27 144.09 571.39 144.05C560.47 143.99 549.64 144.08 538.73 144.58C532.5 144.87 526.27 145.16 520.05 145.45C509.3 145.96 498.68 147.98 488.06 149.66C477.44 151.34 469.2 163.79 469.65 173.84C470.1 183.89 477.01 196.27 488.06 198.02L488.04 198.03Z" fill="#E88AB5"/>
</g>
<g opacity="0.8">
<path d="M235.1 263.92C254.53 265.39 273.88 266.97 293.36 267.46C313.11 267.96 332.85 268.47 352.6 268.99C392.17 270.02 431.78 268.5 471.35 270.18C481.1 270.59 490.85 271.01 500.61 271.41C505.29 271.61 509.97 271.9 514.65 271.99C526.27 272.23 537.25 269.6 546.01 261.56C557.58 250.94 557.65 232.53 548.45 220.62C540.43 210.24 528.3 206.84 515.59 206.99C505.9 207.1 496.18 207.75 486.5 208.12C446.99 209.64 407.52 209.26 367.98 209.13C345.65 209.06 323.31 209.77 300.98 210.23C278.94 210.68 257.09 212.12 235.11 213.75C222.05 214.73 209.39 224.61 210.02 238.84C210.67 253.27 221.05 262.86 235.1 263.92Z" fill="#E88AB5"/>
</g>
</g>
<path d="M117.498 66.197C116.111 65.029 115.965 64.007 116.622 62.328C120.564 52.473 124.944 40.939 127.864 32.033C128.375 30.427 128.959 30.208 130.419 30.573C131.952 30.938 133.485 31.668 134.653 32.398C135.967 33.274 136.259 34.223 135.675 36.34C133.412 44.881 128.594 59.116 125.747 67.219C125.09 69.044 124.287 69.409 122.535 68.825C121.002 68.314 118.885 67.365 117.498 66.197ZM136.843 17.798C139.544 18.601 141.004 21.667 139.617 25.098C138.449 27.945 135.748 29.843 132.536 28.675C129.47 27.58 128.886 24.733 129.762 22.032C130.93 18.455 133.996 16.922 136.843 17.798ZM151.414 59.189C151.122 54.809 151.268 42.91 151.487 36.778C149.224 44.078 145.063 58.021 142.873 66.416C142.362 68.241 141.632 68.606 139.953 68.022C139.077 67.73 137.909 67.146 136.96 66.562C135.135 65.467 134.843 64.226 135.5 61.233C137.544 51.597 143.676 31.814 146.742 23.127C147.399 21.448 148.129 20.864 149.516 20.864C151.487 20.864 154.991 22.032 156.743 22.908C159.006 24.076 159.517 24.952 159.517 27.288L159.444 31.23L159.371 41.012V45.538C162.948 38.238 169.372 27.215 172.511 22.397C173.606 20.718 174.774 20.353 176.672 20.645C178.351 20.937 181.636 21.959 184.337 23.346C185.87 24.149 186.162 25.171 185.505 27.434C182.658 37.362 176.307 57.437 173.898 66.489C173.533 67.657 172.949 68.241 172.146 68.241C171.124 68.241 169.226 67.438 168.131 66.781C166.306 65.686 165.795 64.664 166.525 61.233C167.766 55.466 170.905 44.443 173.898 35.391C169.956 42.399 163.605 54.006 159.225 62.547C158.568 63.861 158.13 64.299 157.327 64.299C156.451 64.299 155.064 63.861 153.677 63.204C152.217 62.547 151.56 61.598 151.414 59.189ZM183.405 60.795C180.558 52.546 187.128 35.756 192.092 23.054C192.749 21.302 193.698 21.083 195.304 21.667C196.837 22.251 198.516 23.127 199.684 24.295C201.144 25.682 201.363 27.215 200.56 29.186C196.545 39.479 189.099 58.897 193.26 60.284C198.224 61.963 205.743 34.734 209.028 22.616C209.539 20.791 210.561 20.499 212.167 21.01C213.773 21.521 215.744 22.616 217.058 23.638C218.518 24.806 218.518 25.39 218.08 27.069C212.751 46.925 208.079 61.598 201.144 66.343C198.735 68.022 196.545 68.314 193.625 68.168C190.851 68.022 188.515 67 186.763 65.686C185.376 64.664 184.135 62.985 183.405 60.795ZM239.92 54.444C242.183 55.247 241.818 56.926 240.577 59.335C239.19 62.109 236.854 64.664 234.956 66.343C232.912 68.095 229.481 69.117 226.634 68.825C223.641 68.533 221.232 67.438 219.48 66.416C217.947 65.467 216.122 63.642 215.465 61.452C212.326 51.378 219.626 31.376 229.846 22.616C232.547 20.353 235.102 19.842 237.219 20.061C240.358 20.353 244.081 21.959 245.906 23.638C247.95 25.536 248.315 27.58 248.242 30.135C248.169 33.055 247.366 37.216 246.417 39.552C245.979 40.72 245.614 41.523 243.716 41.085C239.92 40.209 238.606 38.311 238.46 34.88C238.387 32.398 239.555 29.04 237.949 28.383C235.832 27.507 229.919 37.289 227.437 44.005C224.736 51.232 223.568 59.627 226.123 60.576C227.51 61.087 229.408 59.773 232.401 56.415C234.445 54.152 237.146 53.495 239.92 54.444ZM282.477 26.631C278.9 36.486 273.425 53.714 269.629 66.708C269.191 68.314 268.68 68.606 267.147 68.168C265.614 67.73 263.935 67.073 262.694 66.124C261.453 65.175 261.234 64.226 261.672 62.109C262.256 59.262 263.278 55.393 264.446 51.159C262.11 51.524 259.19 52.035 256.635 52.546C255.029 57.802 253.569 62.766 252.474 66.635C252.036 68.241 251.452 68.533 249.919 68.095C248.459 67.657 246.634 66.854 245.393 65.978C244.079 65.029 243.86 64.08 244.298 61.963C244.882 59.262 245.904 55.174 247.145 50.575C246.634 49.407 246.196 48.166 246.05 47.29C245.831 45.976 245.977 45.538 247.218 45.173C247.729 45.027 248.24 44.881 248.751 44.735C251.087 36.486 253.715 27.726 255.54 22.762C256.27 20.864 257.146 20.645 258.679 21.229C260.285 21.813 262.548 22.981 263.862 24.003C265.322 25.171 265.468 25.828 264.884 27.507C263.497 31.23 261.599 36.778 259.701 42.764C262.183 42.472 265.176 42.18 267.074 42.034C269.264 34.734 271.6 27.288 273.425 22.032C274.082 20.061 275.031 19.988 276.637 20.499C278.17 21.01 280.068 21.959 281.528 23.127C282.842 24.149 283.061 24.952 282.477 26.631ZM299.025 55.685C294.353 56.488 289.097 57.364 285.374 58.386C283.768 61.379 282.308 64.226 281.067 66.708C280.264 68.241 279.68 68.314 278.293 67.73C277.052 67.219 275.811 66.489 274.789 65.321C273.767 64.153 273.767 63.131 274.643 61.087C279.461 50.356 289.024 32.544 295.229 22.835C296.397 21.01 297.711 20.061 300.266 20.134C303.259 20.207 307.201 21.229 309.537 22.178C311.289 22.908 311.508 24.003 311.216 25.828C309.902 35.026 308.223 52.619 307.274 66.124C307.201 67.803 306.763 68.241 305.157 68.241C303.551 68.241 301.653 67.949 300.631 67.584C299.171 67.073 298.733 66.124 298.733 63.934C298.733 61.598 298.879 58.824 299.025 55.685ZM290.995 47.801C293.842 47.363 296.762 46.925 299.536 46.706C299.974 40.939 300.558 34.953 301.215 29.77C298.368 34.588 294.645 41.158 290.995 47.801ZM310.442 55.466C312.705 54.298 315.844 54.59 317.377 55.904C321.684 59.7 325.845 60.941 327.67 59.335C329.787 57.583 322.195 52.984 318.326 48.531C315.625 45.392 314.311 40.574 316.72 35.245C318.764 30.5 323.29 25.025 327.67 22.251C329.349 21.229 332.123 20.134 335.189 21.229C337.525 22.105 340.153 23.784 341.54 25.39C343.584 27.653 343.365 30.135 343.146 32.106C342.635 35.464 340.81 41.158 339.277 44.151C338.547 45.538 337.817 45.83 336.503 45.246C332.78 43.64 331.101 41.377 331.758 38.457C332.342 35.829 334.532 30.281 333.656 29.843C332.123 28.967 322.706 38.603 326.648 43.932C330.955 49.626 340.372 53.349 336.941 59.992C334.459 64.81 330.444 68.387 324.458 68.387C319.64 68.387 314.968 66.124 310.88 60.284C308.763 57.291 309.055 56.196 310.442 55.466ZM388.859 39.771C388.421 41.085 387.91 41.596 386.377 41.377C382.289 40.793 380.683 38.384 380.756 35.026C380.829 32.471 381.413 28.894 380.318 28.529C378.128 27.799 372.872 35.318 369.368 43.64C366.375 50.721 365.28 59.627 367.835 60.795C369.952 61.744 373.31 57.656 375.792 52.546C372.069 52.765 370.317 50.94 369.879 46.852C369.733 45.538 370.39 45.173 371.631 44.881C374.113 44.224 378.274 43.494 380.537 43.202C382.654 42.91 383.749 43.275 384.698 44.589C385.355 45.538 385.939 46.633 386.377 47.509C387.18 49.261 387.107 50.356 386.304 52.254C383.53 58.97 379.807 64.08 375.938 66.781C373.456 68.533 370.682 69.117 367.908 68.606C365.353 68.168 363.09 67.219 361.046 65.832C359.513 64.737 357.907 62.693 357.323 60.43C354.476 49.918 362.141 29.77 373.018 21.74C375.281 20.061 378.055 19.915 380.099 20.207C382.873 20.572 386.158 21.959 387.983 23.784C389.735 25.536 390.246 27.507 390.319 30.135C390.392 32.836 389.589 37.508 388.859 39.771ZM399.006 53.13C397.473 57.729 396.013 62.328 394.772 66.562C394.334 68.095 393.823 68.387 392.29 68.022C390.757 67.584 389.37 67.073 388.348 66.343C387.034 65.394 386.888 64.372 387.253 62.328C388.64 55.612 392.509 42.837 395.867 32.325C395.283 31.23 394.553 29.843 394.115 28.675C393.458 26.85 393.531 25.974 395.064 25.098C402.218 21.083 415.942 17.652 420.395 22.981C422.22 25.171 423.753 28.237 424.264 32.106C424.775 36.194 422.877 39.552 420.03 42.326C417.11 45.173 412.949 48.02 408.204 50.356C410.54 54.298 414.409 59.627 417.183 62.912C418.351 64.226 417.986 64.956 416.964 65.832C415.723 66.854 415.066 67 413.825 67.365C412.438 67.803 410.686 67.876 408.715 65.978C405.941 63.496 401.78 57.948 399.006 53.13ZM406.817 31.449C405.43 34.88 403.97 39.041 402.364 43.494C410.978 40.209 416.599 33.566 416.015 31.23C415.65 29.551 411.489 29.186 406.817 31.449ZM441.888 55.685C437.216 56.488 431.96 57.364 428.237 58.386C426.631 61.379 425.171 64.226 423.93 66.708C423.127 68.241 422.543 68.314 421.156 67.73C419.915 67.219 418.674 66.489 417.652 65.321C416.63 64.153 416.63 63.131 417.506 61.087C422.324 50.356 431.887 32.544 438.092 22.835C439.26 21.01 440.574 20.061 443.129 20.134C446.122 20.207 450.064 21.229 452.4 22.178C454.152 22.908 454.371 24.003 454.079 25.828C452.765 35.026 451.086 52.619 450.137 66.124C450.064 67.803 449.626 68.241 448.02 68.241C446.414 68.241 444.516 67.949 443.494 67.584C442.034 67.073 441.596 66.124 441.596 63.934C441.596 61.598 441.742 58.824 441.888 55.685ZM433.858 47.801C436.705 47.363 439.625 46.925 442.399 46.706C442.837 40.939 443.421 34.953 444.078 29.77C441.231 34.588 437.508 41.158 433.858 47.801ZM479.594 54.444C481.857 55.247 481.492 56.926 480.251 59.335C478.864 62.109 476.528 64.664 474.63 66.343C472.586 68.095 469.155 69.117 466.308 68.825C463.315 68.533 460.906 67.438 459.154 66.416C457.621 65.467 455.796 63.642 455.139 61.452C452 51.378 459.3 31.376 469.52 22.616C472.221 20.353 474.776 19.842 476.893 20.061C480.032 20.353 483.755 21.959 485.58 23.638C487.624 25.536 487.989 27.58 487.916 30.135C487.843 33.055 487.04 37.216 486.091 39.552C485.653 40.72 485.288 41.523 483.39 41.085C479.594 40.209 478.28 38.311 478.134 34.88C478.061 32.398 479.229 29.04 477.623 28.383C475.506 27.507 469.593 37.289 467.111 44.005C464.41 51.232 463.242 59.627 465.797 60.576C467.184 61.087 469.082 59.773 472.075 56.415C474.119 54.152 476.82 53.495 479.594 54.444ZM503.591 24.003C505.051 25.171 505.197 25.828 504.613 27.507C501.255 36.559 495.196 55.977 492.203 66.635C491.765 68.241 491.181 68.533 489.648 68.095C488.115 67.657 486.363 66.854 485.122 65.978C483.808 65.029 483.589 64.08 484.027 61.963C485.779 53.641 491.984 31.887 495.196 22.762C495.853 21.01 496.802 20.718 498.408 21.229C500.014 21.74 502.277 22.981 503.591 24.003ZM521.161 55.685C516.489 56.488 511.233 57.364 507.51 58.386C505.904 61.379 504.444 64.226 503.203 66.708C502.4 68.241 501.816 68.314 500.429 67.73C499.188 67.219 497.947 66.489 496.925 65.321C495.903 64.153 495.903 63.131 496.779 61.087C501.597 50.356 511.16 32.544 517.365 22.835C518.533 21.01 519.847 20.061 522.402 20.134C525.395 20.207 529.337 21.229 531.673 22.178C533.425 22.908 533.644 24.003 533.352 25.828C532.038 35.026 530.359 52.619 529.41 66.124C529.337 67.803 528.899 68.241 527.293 68.241C525.687 68.241 523.789 67.949 522.767 67.584C521.307 67.073 520.869 66.124 520.869 63.934C520.869 61.598 521.015 58.824 521.161 55.685ZM513.131 47.801C515.978 47.363 518.898 46.925 521.672 46.706C522.11 40.939 522.694 34.953 523.351 29.77C520.504 34.588 516.781 41.158 513.131 47.801ZM532.579 55.466C534.842 54.298 537.981 54.59 539.514 55.904C543.821 59.7 547.982 60.941 549.807 59.335C551.924 57.583 544.332 52.984 540.463 48.531C537.762 45.392 536.448 40.574 538.857 35.245C540.901 30.5 545.427 25.025 549.807 22.251C551.486 21.229 554.26 20.134 557.326 21.229C559.662 22.105 562.29 23.784 563.677 25.39C565.721 27.653 565.502 30.135 565.283 32.106C564.772 35.464 562.947 41.158 561.414 44.151C560.684 45.538 559.954 45.83 558.64 45.246C554.917 43.64 553.238 41.377 553.895 38.457C554.479 35.829 556.669 30.281 555.793 29.843C554.26 28.967 544.843 38.603 548.785 43.932C553.092 49.626 562.509 53.349 559.078 59.992C556.596 64.81 552.581 68.387 546.595 68.387C541.777 68.387 537.105 66.124 533.017 60.284C530.9 57.291 531.192 56.196 532.579 55.466ZM590.775 54.225C589.388 58.605 588.001 62.912 586.906 66.927C586.395 68.46 585.884 68.825 584.351 68.387C582.964 68.022 581.139 67.219 579.971 66.343C578.73 65.394 578.511 64.372 578.949 62.328C580.336 55.612 584.205 42.837 587.49 32.325C586.979 31.303 586.249 29.916 585.811 28.675C585.081 26.85 585.227 25.974 586.76 25.098C593.914 21.083 607.711 17.579 612.091 22.981C613.843 25.171 615.449 27.945 615.96 32.106C616.471 36.194 614.354 39.406 611.653 42.326C607.273 47.217 598.44 51.962 590.775 54.225ZM594.206 43.786C603.185 40.501 608.076 34.15 607.565 31.23C607.346 29.624 603.112 29.551 598.513 31.668C597.199 35.172 595.739 39.333 594.206 43.786ZM644.553 24.149C646.524 26.12 647.327 28.383 647.473 31.157C647.984 41.085 643.896 56.999 635.647 65.102C632.873 67.803 629.88 68.533 626.303 68.095C623.967 67.803 621.193 66.927 619.295 65.613C617.835 64.591 616.229 62.62 615.572 60.357C612.433 49.918 618.784 31.376 628.931 22.981C631.048 21.229 634.333 20.353 636.669 20.718C639.735 21.156 642.874 22.47 644.553 24.149ZM637.18 28.967C634.917 28.237 629.734 36.34 627.179 43.202C624.624 49.991 623.237 59.262 625.938 60.357C628.566 61.452 632.727 55.101 635.647 46.414C637.91 39.698 639.516 29.697 637.18 28.967ZM657.072 53.13C655.539 57.729 654.079 62.328 652.838 66.562C652.4 68.095 651.889 68.387 650.356 68.022C648.823 67.584 647.436 67.073 646.414 66.343C645.1 65.394 644.954 64.372 645.319 62.328C646.706 55.612 650.575 42.837 653.933 32.325C653.349 31.23 652.619 29.843 652.181 28.675C651.524 26.85 651.597 25.974 653.13 25.098C660.284 21.083 674.008 17.652 678.461 22.981C680.286 25.171 681.819 28.237 682.33 32.106C682.841 36.194 680.943 39.552 678.096 42.326C675.176 45.173 671.015 48.02 666.27 50.356C668.606 54.298 672.475 59.627 675.249 62.912C676.417 64.226 676.052 64.956 675.03 65.832C673.789 66.854 673.132 67 671.891 67.365C670.504 67.803 668.752 67.876 666.781 65.978C664.007 63.496 659.846 57.948 657.072 53.13ZM664.883 31.449C663.496 34.88 662.036 39.041 660.43 43.494C669.044 40.209 674.665 33.566 674.081 31.23C673.716 29.551 669.555 29.186 664.883 31.449Z" fill="#43454A"/>
<path d="M47.3384 121.225C45.9514 125.605 44.5644 129.912 43.4694 133.927C42.9584 135.46 42.4474 135.825 40.9144 135.387C39.5274 135.022 37.7024 134.219 36.5344 133.343C35.2934 132.394 35.0744 131.372 35.5124 129.328C36.8994 122.612 40.7684 109.837 44.0534 99.325C43.5424 98.303 42.8124 96.916 42.3744 95.675C41.6444 93.85 41.7904 92.974 43.3234 92.098C50.4774 88.083 64.2744 84.579 68.6544 89.981C70.4064 92.171 72.0124 94.945 72.5234 99.106C73.0344 103.194 70.9174 106.406 68.2164 109.326C63.8364 114.217 55.0034 118.962 47.3384 121.225ZM50.7694 110.786C59.7484 107.501 64.6394 101.15 64.1284 98.23C63.9094 96.624 59.6754 96.551 55.0764 98.668C53.7624 102.172 52.3024 106.333 50.7694 110.786ZM87.7953 122.685C83.1233 123.488 77.8673 124.364 74.1443 125.386C72.5383 128.379 71.0783 131.226 69.8373 133.708C69.0343 135.241 68.4503 135.314 67.0633 134.73C65.8223 134.219 64.5813 133.489 63.5593 132.321C62.5373 131.153 62.5373 130.131 63.4133 128.087C68.2313 117.356 77.7943 99.544 83.9993 89.835C85.1673 88.01 86.4813 87.061 89.0363 87.134C92.0293 87.207 95.9713 88.229 98.3073 89.178C100.059 89.908 100.278 91.003 99.9863 92.828C98.6723 102.026 96.9933 119.619 96.0443 133.124C95.9713 134.803 95.5333 135.241 93.9273 135.241C92.3213 135.241 90.4233 134.949 89.4013 134.584C87.9413 134.073 87.5033 133.124 87.5033 130.934C87.5033 128.598 87.6493 125.824 87.7953 122.685ZM79.7653 114.801C82.6123 114.363 85.5323 113.925 88.3063 113.706C88.7443 107.939 89.3283 101.953 89.9853 96.77C87.1383 101.588 83.4153 108.158 79.7653 114.801ZM111.354 120.13C109.821 124.729 108.361 129.328 107.12 133.562C106.682 135.095 106.171 135.387 104.638 135.022C103.105 134.584 101.718 134.073 100.696 133.343C99.3823 132.394 99.2363 131.372 99.6013 129.328C100.988 122.612 104.857 109.837 108.215 99.325C107.631 98.23 106.901 96.843 106.463 95.675C105.806 93.85 105.879 92.974 107.412 92.098C114.566 88.083 128.29 84.652 132.743 89.981C134.568 92.171 136.101 95.237 136.612 99.106C137.123 103.194 135.225 106.552 132.378 109.326C129.458 112.173 125.297 115.02 120.552 117.356C122.888 121.298 126.757 126.627 129.531 129.912C130.699 131.226 130.334 131.956 129.312 132.832C128.071 133.854 127.414 134 126.173 134.365C124.786 134.803 123.034 134.876 121.063 132.978C118.289 130.496 114.128 124.948 111.354 120.13ZM119.165 98.449C117.778 101.88 116.318 106.041 114.712 110.494C123.326 107.209 128.947 100.566 128.363 98.23C127.998 96.551 123.837 96.186 119.165 98.449ZM165.661 95.456C163.325 95.675 160.259 95.967 157.704 96.259C153.762 107.647 149.163 122.393 145.951 133.854C145.513 135.387 145.002 135.679 143.469 135.241C141.936 134.803 140.257 134.073 138.943 133.124C137.629 132.175 137.483 131.08 137.921 129.036C139.454 121.371 143.615 107.063 146.681 97.792C144.929 98.084 143.177 98.449 142.082 98.668C140.549 98.96 139.746 98.814 138.943 97.5C138.067 96.04 137.191 93.631 136.899 92.244C136.607 90.784 137.118 90.419 138.286 90.127C145.148 88.594 155.952 87.499 162.741 87.353C164.42 87.353 165.004 87.791 165.515 88.521C166.464 89.981 167.121 91.952 167.34 93.339C167.559 94.872 167.413 95.31 165.661 95.456ZM179.582 91.003C181.042 92.171 181.188 92.828 180.604 94.507C177.246 103.559 171.187 122.977 168.194 133.635C167.756 135.241 167.172 135.533 165.639 135.095C164.106 134.657 162.354 133.854 161.113 132.978C159.799 132.029 159.58 131.08 160.018 128.963C161.77 120.641 167.975 98.887 171.187 89.762C171.844 88.01 172.793 87.718 174.399 88.229C176.005 88.74 178.268 89.981 179.582 91.003ZM201.994 121.444C204.257 122.247 203.892 123.926 202.651 126.335C201.264 129.109 198.928 131.664 197.03 133.343C194.986 135.095 191.555 136.117 188.708 135.825C185.715 135.533 183.306 134.438 181.554 133.416C180.021 132.467 178.196 130.642 177.539 128.452C174.4 118.378 181.7 98.376 191.92 89.616C194.621 87.353 197.176 86.842 199.293 87.061C202.432 87.353 206.155 88.959 207.98 90.638C210.024 92.536 210.389 94.58 210.316 97.135C210.243 100.055 209.44 104.216 208.491 106.552C208.053 107.72 207.688 108.523 205.79 108.085C201.994 107.209 200.68 105.311 200.534 101.88C200.461 99.398 201.629 96.04 200.023 95.383C197.906 94.507 191.993 104.289 189.511 111.005C186.81 118.232 185.642 126.627 188.197 127.576C189.584 128.087 191.482 126.773 194.475 123.415C196.519 121.152 199.22 120.495 201.994 121.444ZM225.992 91.003C227.452 92.171 227.598 92.828 227.014 94.507C223.656 103.559 217.597 122.977 214.604 133.635C214.166 135.241 213.582 135.533 212.049 135.095C210.516 134.657 208.764 133.854 207.523 132.978C206.209 132.029 205.99 131.08 206.428 128.963C208.18 120.641 214.385 98.887 217.597 89.762C218.254 88.01 219.203 87.718 220.809 88.229C222.415 88.74 224.678 89.981 225.992 91.003ZM234.971 121.225C233.584 125.605 232.197 129.912 231.102 133.927C230.591 135.46 230.08 135.825 228.547 135.387C227.16 135.022 225.335 134.219 224.167 133.343C222.926 132.394 222.707 131.372 223.145 129.328C224.532 122.612 228.401 109.837 231.686 99.325C231.175 98.303 230.445 96.916 230.007 95.675C229.277 93.85 229.423 92.974 230.956 92.098C238.11 88.083 251.907 84.579 256.287 89.981C258.039 92.171 259.645 94.945 260.156 99.106C260.667 103.194 258.55 106.406 255.849 109.326C251.469 114.217 242.636 118.962 234.971 121.225ZM238.402 110.786C247.381 107.501 252.272 101.15 251.761 98.23C251.542 96.624 247.308 96.551 242.709 98.668C241.395 102.172 239.935 106.333 238.402 110.786ZM275.428 122.685C270.756 123.488 265.5 124.364 261.777 125.386C260.171 128.379 258.711 131.226 257.47 133.708C256.667 135.241 256.083 135.314 254.696 134.73C253.455 134.219 252.214 133.489 251.192 132.321C250.17 131.153 250.17 130.131 251.046 128.087C255.864 117.356 265.427 99.544 271.632 89.835C272.8 88.01 274.114 87.061 276.669 87.134C279.662 87.207 283.604 88.229 285.94 89.178C287.692 89.908 287.911 91.003 287.619 92.828C286.305 102.026 284.626 119.619 283.677 133.124C283.604 134.803 283.166 135.241 281.56 135.241C279.954 135.241 278.056 134.949 277.034 134.584C275.574 134.073 275.136 133.124 275.136 130.934C275.136 128.598 275.282 125.824 275.428 122.685ZM267.398 114.801C270.245 114.363 273.165 113.925 275.939 113.706C276.377 107.939 276.961 101.953 277.618 96.77C274.771 101.588 271.048 108.158 267.398 114.801ZM298.987 120.13C297.454 124.729 295.994 129.328 294.753 133.562C294.315 135.095 293.804 135.387 292.271 135.022C290.738 134.584 289.351 134.073 288.329 133.343C287.015 132.394 286.869 131.372 287.234 129.328C288.621 122.612 292.49 109.837 295.848 99.325C295.264 98.23 294.534 96.843 294.096 95.675C293.439 93.85 293.512 92.974 295.045 92.098C302.199 88.083 315.923 84.652 320.376 89.981C322.201 92.171 323.734 95.237 324.245 99.106C324.756 103.194 322.858 106.552 320.011 109.326C317.091 112.173 312.93 115.02 308.185 117.356C310.521 121.298 314.39 126.627 317.164 129.912C318.332 131.226 317.967 131.956 316.945 132.832C315.704 133.854 315.047 134 313.806 134.365C312.419 134.803 310.667 134.876 308.696 132.978C305.922 130.496 301.761 124.948 298.987 120.13ZM306.798 98.449C305.411 101.88 303.951 106.041 302.345 110.494C310.959 107.209 316.58 100.566 315.996 98.23C315.631 96.551 311.47 96.186 306.798 98.449ZM346.743 97.062C345.94 95.675 345.283 93.558 344.991 92.244C344.699 90.784 345.064 90.492 346.232 90.2C351.269 88.74 360.613 87.645 367.329 87.426C368.862 87.353 369.811 88.083 370.176 89.47C370.687 91.003 370.906 92.098 371.052 93.558C371.125 95.164 370.687 95.748 369.081 95.894C365.723 96.259 361.562 96.77 357.62 97.427C356.525 100.42 355.211 103.851 353.897 107.428C355.722 107.136 357.547 106.99 359.518 106.917C361.124 106.844 362 107.209 362.511 108.596C363.022 110.056 363.387 111.37 363.533 112.83C363.752 114.436 363.314 114.874 361.708 115.239C357.985 115.969 353.824 116.772 350.174 117.721C349.371 119.984 348.568 122.247 347.911 124.364C350.904 123.78 353.532 123.415 356.671 123.196C358.277 123.05 359.226 123.415 359.737 124.802C360.321 126.335 360.686 127.649 360.832 129.109C361.051 130.715 360.686 131.226 359.08 131.591C354.919 132.54 350.247 133.562 346.305 134.657C344.115 135.241 343.02 134.949 341.706 133.854C340.757 133.051 339.808 132.102 338.786 130.715C337.983 129.62 337.472 128.014 337.91 125.97C339.37 119.473 343.531 106.698 346.743 97.062ZM388.204 116.845C390.102 109.034 393.679 96.77 396.161 89.762C396.818 87.937 397.767 87.645 399.373 88.156C400.468 88.521 401.709 89.105 402.658 89.689C404.264 90.711 404.775 91.587 404.045 93.923C400.76 104.362 395.358 121.736 392.365 132.978C391.927 134.73 390.759 135.095 389.007 134.657C387.693 134.292 386.087 133.635 384.919 132.978C383.605 132.248 382.875 131.226 382.364 129.255C381.123 123.78 380.247 116.48 379.663 107.063C377.838 112.83 374.699 123.123 371.779 133.416C371.341 134.949 370.611 135.387 369.005 134.876C367.983 134.511 366.669 133.854 365.866 133.343C364.26 132.321 363.822 131.591 364.479 128.452C366.085 121.006 372.363 100.347 375.94 89.908C376.451 88.521 377.181 88.01 378.276 88.01C379.444 88.01 382.291 89.032 384.408 90.127C386.087 91.003 386.452 91.806 386.598 93.777C387.036 100.639 387.547 109.034 388.204 116.845ZM424.591 97.062C423.788 95.675 423.131 93.558 422.839 92.244C422.547 90.784 422.912 90.492 424.08 90.2C429.117 88.74 438.461 87.645 445.177 87.426C446.71 87.353 447.659 88.083 448.024 89.47C448.535 91.003 448.754 92.098 448.9 93.558C448.973 95.164 448.535 95.748 446.929 95.894C443.571 96.259 439.41 96.77 435.468 97.427C434.373 100.42 433.059 103.851 431.745 107.428C433.57 107.136 435.395 106.99 437.366 106.917C438.972 106.844 439.848 107.209 440.359 108.596C440.87 110.056 441.235 111.37 441.381 112.83C441.6 114.436 441.162 114.874 439.556 115.239C435.833 115.969 431.672 116.772 428.022 117.721C427.219 119.984 426.416 122.247 425.759 124.364C428.752 123.78 431.38 123.415 434.519 123.196C436.125 123.05 437.074 123.415 437.585 124.802C438.169 126.335 438.534 127.649 438.68 129.109C438.899 130.715 438.534 131.226 436.928 131.591C432.767 132.54 428.095 133.562 424.153 134.657C421.963 135.241 420.868 134.949 419.554 133.854C418.605 133.051 417.656 132.102 416.634 130.715C415.831 129.62 415.32 128.014 415.758 125.97C417.218 119.473 421.379 106.698 424.591 97.062ZM463.641 131.518C459.48 132.467 455.173 133.416 451.231 134.584C448.749 135.314 447.435 135.022 446.194 133.927C445.172 133.051 444.296 132.175 443.274 130.715C442.325 129.328 441.96 128.16 442.398 126.262C444.515 117.21 450.282 98.741 454.224 88.959C454.954 87.207 455.903 86.988 457.436 87.499C459.042 88.01 461.305 89.032 462.692 90.127C464.079 91.222 464.225 91.952 463.568 93.631C460.502 101.661 456.268 113.706 452.91 124.218C455.757 123.634 458.239 123.342 461.232 123.123C462.838 122.977 463.714 123.269 464.298 124.729C464.882 126.189 465.247 127.576 465.393 129.036C465.685 130.642 465.612 131.08 463.641 131.518ZM510.676 121.444C512.939 122.247 512.574 123.926 511.333 126.335C509.946 129.109 507.61 131.664 505.712 133.343C503.668 135.095 500.237 136.117 497.39 135.825C494.397 135.533 491.988 134.438 490.236 133.416C488.703 132.467 486.878 130.642 486.221 128.452C483.082 118.378 490.382 98.376 500.602 89.616C503.303 87.353 505.858 86.842 507.975 87.061C511.114 87.353 514.837 88.959 516.662 90.638C518.706 92.536 519.071 94.58 518.998 97.135C518.925 100.055 518.122 104.216 517.173 106.552C516.735 107.72 516.37 108.523 514.472 108.085C510.676 107.209 509.362 105.311 509.216 101.88C509.143 99.398 510.311 96.04 508.705 95.383C506.588 94.507 500.675 104.289 498.193 111.005C495.492 118.232 494.324 126.627 496.879 127.576C498.266 128.087 500.164 126.773 503.157 123.415C505.201 121.152 507.902 120.495 510.676 121.444ZM547.1 91.149C549.071 93.12 549.874 95.383 550.02 98.157C550.531 108.085 546.443 123.999 538.194 132.102C535.42 134.803 532.427 135.533 528.85 135.095C526.514 134.803 523.74 133.927 521.842 132.613C520.382 131.591 518.776 129.62 518.119 127.357C514.98 116.918 521.331 98.376 531.478 89.981C533.595 88.229 536.88 87.353 539.216 87.718C542.282 88.156 545.421 89.47 547.1 91.149ZM539.727 95.967C537.464 95.237 532.281 103.34 529.726 110.202C527.171 116.991 525.784 126.262 528.485 127.357C531.113 128.452 535.274 122.101 538.194 113.414C540.457 106.698 542.063 96.697 539.727 95.967ZM572.058 116.845C573.956 109.034 577.533 96.77 580.015 89.762C580.672 87.937 581.621 87.645 583.227 88.156C584.322 88.521 585.563 89.105 586.512 89.689C588.118 90.711 588.629 91.587 587.899 93.923C584.614 104.362 579.212 121.736 576.219 132.978C575.781 134.73 574.613 135.095 572.861 134.657C571.547 134.292 569.941 133.635 568.773 132.978C567.459 132.248 566.729 131.226 566.218 129.255C564.977 123.78 564.101 116.48 563.517 107.063C561.692 112.83 558.553 123.123 555.633 133.416C555.195 134.949 554.465 135.387 552.859 134.876C551.837 134.511 550.523 133.854 549.72 133.343C548.114 132.321 547.676 131.591 548.333 128.452C549.939 121.006 556.217 100.347 559.794 89.908C560.305 88.521 561.035 88.01 562.13 88.01C563.298 88.01 566.145 89.032 568.262 90.127C569.941 91.003 570.306 91.806 570.452 93.777C570.89 100.639 571.401 109.034 572.058 116.845ZM609.625 121.444C611.888 122.247 611.523 123.926 610.282 126.335C608.895 129.109 606.559 131.664 604.661 133.343C602.617 135.095 599.186 136.117 596.339 135.825C593.346 135.533 590.937 134.438 589.185 133.416C587.652 132.467 585.827 130.642 585.17 128.452C582.031 118.378 589.331 98.376 599.551 89.616C602.252 87.353 604.807 86.842 606.924 87.061C610.063 87.353 613.786 88.959 615.611 90.638C617.655 92.536 618.02 94.58 617.947 97.135C617.874 100.055 617.071 104.216 616.122 106.552C615.684 107.72 615.319 108.523 613.421 108.085C609.625 107.209 608.311 105.311 608.165 101.88C608.092 99.398 609.26 96.04 607.654 95.383C605.537 94.507 599.624 104.289 597.142 111.005C594.441 118.232 593.273 126.627 595.828 127.576C597.215 128.087 599.113 126.773 602.106 123.415C604.15 121.152 606.851 120.495 609.625 121.444ZM616.629 127.795C613.782 119.546 620.352 102.756 625.316 90.054C625.973 88.302 626.922 88.083 628.528 88.667C630.061 89.251 631.74 90.127 632.908 91.295C634.368 92.682 634.587 94.215 633.784 96.186C629.769 106.479 622.323 125.897 626.484 127.284C631.448 128.963 638.967 101.734 642.252 89.616C642.763 87.791 643.785 87.499 645.391 88.01C646.997 88.521 648.968 89.616 650.282 90.638C651.742 91.806 651.742 92.39 651.304 94.069C645.975 113.925 641.303 128.598 634.368 133.343C631.959 135.022 629.769 135.314 626.849 135.168C624.075 135.022 621.739 134 619.987 132.686C618.6 131.664 617.359 129.985 616.629 127.795ZM658.569 120.13C657.036 124.729 655.576 129.328 654.335 133.562C653.897 135.095 653.386 135.387 651.853 135.022C650.32 134.584 648.933 134.073 647.911 133.343C646.597 132.394 646.451 131.372 646.816 129.328C648.203 122.612 652.072 109.837 655.43 99.325C654.846 98.23 654.116 96.843 653.678 95.675C653.021 93.85 653.094 92.974 654.627 92.098C661.781 88.083 675.505 84.652 679.958 89.981C681.783 92.171 683.316 95.237 683.827 99.106C684.338 103.194 682.44 106.552 679.593 109.326C676.673 112.173 672.512 115.02 667.767 117.356C670.103 121.298 673.972 126.627 676.746 129.912C677.914 131.226 677.549 131.956 676.527 132.832C675.286 133.854 674.629 134 673.388 134.365C672.001 134.803 670.249 134.876 668.278 132.978C665.504 130.496 661.343 124.948 658.569 120.13ZM666.38 98.449C664.993 101.88 663.533 106.041 661.927 110.494C670.541 107.209 676.162 100.566 675.578 98.23C675.213 96.551 671.052 96.186 666.38 98.449ZM680.004 122.466C682.267 121.298 685.406 121.59 686.939 122.904C691.246 126.7 695.407 127.941 697.232 126.335C699.349 124.583 691.757 119.984 687.888 115.531C685.187 112.392 683.873 107.574 686.282 102.245C688.326 97.5 692.852 92.025 697.232 89.251C698.911 88.229 701.685 87.134 704.751 88.229C707.087 89.105 709.715 90.784 711.102 92.39C713.146 94.653 712.927 97.135 712.708 99.106C712.197 102.464 710.372 108.158 708.839 111.151C708.109 112.538 707.379 112.83 706.065 112.246C702.342 110.64 700.663 108.377 701.32 105.457C701.904 102.829 704.094 97.281 703.218 96.843C701.685 95.967 692.268 105.603 696.21 110.932C700.517 116.626 709.934 120.349 706.503 126.992C704.021 131.81 700.006 135.387 694.02 135.387C689.202 135.387 684.53 133.124 680.442 127.284C678.325 124.291 678.617 123.196 680.004 122.466ZM741.007 91.149C742.978 93.12 743.781 95.383 743.927 98.157C744.438 108.085 740.35 123.999 732.101 132.102C729.327 134.803 726.334 135.533 722.757 135.095C720.421 134.803 717.647 133.927 715.749 132.613C714.289 131.591 712.683 129.62 712.026 127.357C708.887 116.918 715.238 98.376 725.385 89.981C727.502 88.229 730.787 87.353 733.123 87.718C736.189 88.156 739.328 89.47 741.007 91.149ZM733.634 95.967C731.371 95.237 726.188 103.34 723.633 110.202C721.078 116.991 719.691 126.262 722.392 127.357C725.02 128.452 729.181 122.101 732.101 113.414C734.364 106.698 735.97 96.697 733.634 95.967Z" fill="#43454A"/>
<path d="M133.194 164.938C132.683 163.916 131.953 162.529 131.515 161.288C130.785 159.536 130.858 158.587 132.464 157.711C139.618 153.623 155.24 151.068 159.839 163.843C163.927 175.158 156.043 194.722 135.676 202.314C133.778 203.044 132.245 202.971 130.566 201.73C128.96 200.416 127.865 199.394 126.405 197.861C124.945 196.328 124.215 195.379 125.237 191.583C127.281 184.064 130.42 173.552 133.194 164.938ZM134.508 192.605C148.597 185.597 152.393 171.581 150.86 167.055C150.057 164.865 147.356 163.332 143.56 164.719C140.348 173.406 137.282 183.042 134.508 192.605ZM168.342 164.062C167.539 162.675 166.882 160.558 166.59 159.244C166.298 157.784 166.663 157.492 167.831 157.2C172.868 155.74 182.212 154.645 188.928 154.426C190.461 154.353 191.41 155.083 191.775 156.47C192.286 158.003 192.505 159.098 192.651 160.558C192.724 162.164 192.286 162.748 190.68 162.894C187.322 163.259 183.161 163.77 179.219 164.427C178.124 167.42 176.81 170.851 175.496 174.428C177.321 174.136 179.146 173.99 181.117 173.917C182.723 173.844 183.599 174.209 184.11 175.596C184.621 177.056 184.986 178.37 185.132 179.83C185.351 181.436 184.913 181.874 183.307 182.239C179.584 182.969 175.423 183.772 171.773 184.721C170.97 186.984 170.167 189.247 169.51 191.364C172.503 190.78 175.131 190.415 178.27 190.196C179.876 190.05 180.825 190.415 181.336 191.802C181.92 193.335 182.285 194.649 182.431 196.109C182.65 197.715 182.285 198.226 180.679 198.591C176.518 199.54 171.846 200.562 167.904 201.657C165.714 202.241 164.619 201.949 163.305 200.854C162.356 200.051 161.407 199.102 160.385 197.715C159.582 196.62 159.071 195.014 159.509 192.97C160.969 186.473 165.13 173.698 168.342 164.062ZM211.968 164.938C211.457 163.916 210.727 162.529 210.289 161.288C209.559 159.536 209.632 158.587 211.238 157.711C218.392 153.623 234.014 151.068 238.613 163.843C242.701 175.158 234.817 194.722 214.45 202.314C212.552 203.044 211.019 202.971 209.34 201.73C207.734 200.416 206.639 199.394 205.179 197.861C203.719 196.328 202.989 195.379 204.011 191.583C206.055 184.064 209.194 173.552 211.968 164.938ZM213.282 192.605C227.371 185.597 231.167 171.581 229.634 167.055C228.831 164.865 226.13 163.332 222.334 164.719C219.122 173.406 216.056 183.042 213.282 192.605ZM257.466 158.003C258.926 159.171 259.072 159.828 258.488 161.507C255.13 170.559 249.071 189.977 246.078 200.635C245.64 202.241 245.056 202.533 243.523 202.095C241.99 201.657 240.238 200.854 238.997 199.978C237.683 199.029 237.464 198.08 237.902 195.963C239.654 187.641 245.859 165.887 249.071 156.762C249.728 155.01 250.677 154.718 252.283 155.229C253.889 155.74 256.152 156.981 257.466 158.003ZM281.191 178.881C283.454 180.341 284.841 183.188 284.914 186.035C284.987 189.466 283.6 191.729 281.045 194.065C277.395 197.496 270.606 201 266.007 202.387C263.379 203.263 262.43 203.19 260.678 201.803C258.853 200.416 257.904 199.467 256.225 197.642C254.546 195.744 254.327 195.014 254.984 192.167C256.663 184.94 260.313 173.99 263.087 165.303C262.576 164.354 261.992 163.113 261.554 162.018C260.897 160.193 260.97 159.244 262.576 158.441C269.803 154.572 283.746 151.798 287.98 156.835C289.732 159.025 291.046 161.507 291.338 165.011C291.63 168.88 289.221 172.457 286.447 174.939C284.987 176.253 283.235 177.567 281.191 178.881ZM269.73 175.012C277.687 172.092 282.943 166.544 282.578 164.427C282.359 162.821 278.417 162.675 273.161 165.303C272.139 168.15 270.971 171.435 269.73 175.012ZM266.664 184.064C265.715 187.13 264.693 190.196 263.817 193.189C270.752 190.999 275.716 187.276 275.424 184.648C275.278 183.115 271.774 182.093 266.664 184.064ZM289.448 194.795C286.601 186.546 293.171 169.756 298.135 157.054C298.792 155.302 299.741 155.083 301.347 155.667C302.88 156.251 304.559 157.127 305.727 158.295C307.187 159.682 307.406 161.215 306.603 163.186C302.588 173.479 295.142 192.897 299.303 194.284C304.267 195.963 311.786 168.734 315.071 156.616C315.582 154.791 316.604 154.499 318.21 155.01C319.816 155.521 321.787 156.616 323.101 157.638C324.561 158.806 324.561 159.39 324.123 161.069C318.794 180.925 314.122 195.598 307.187 200.343C304.778 202.022 302.588 202.314 299.668 202.168C296.894 202.022 294.558 201 292.806 199.686C291.419 198.664 290.178 196.985 289.448 194.795ZM326.871 201.949C322.053 200.343 320.155 197.058 319.498 193.481C319.06 190.853 319.279 188.298 320.301 184.794C321.031 182.312 322.053 180.779 324.17 181.874C327.309 183.48 328.988 185.962 328.696 188.955C328.331 192.824 328.258 194.503 329.791 194.649C333.66 195.014 340.668 168.661 343.442 156.397C343.88 154.572 344.975 154.353 346.581 154.791C348.114 155.229 350.45 156.251 351.91 157.346C353.443 158.514 353.443 159.098 353.078 160.777C348.333 181.071 343.369 195.671 337.091 200.416C334.682 202.241 331.397 203.409 326.871 201.949ZM380.391 158.149C382.362 160.12 383.165 162.383 383.311 165.157C383.822 175.085 379.734 190.999 371.485 199.102C368.711 201.803 365.718 202.533 362.141 202.095C359.805 201.803 357.031 200.927 355.133 199.613C353.673 198.591 352.067 196.62 351.41 194.357C348.271 183.918 354.622 165.376 364.769 156.981C366.886 155.229 370.171 154.353 372.507 154.718C375.573 155.156 378.712 156.47 380.391 158.149ZM373.018 162.967C370.755 162.237 365.572 170.34 363.017 177.202C360.462 183.991 359.075 193.262 361.776 194.357C364.404 195.452 368.565 189.101 371.485 180.414C373.748 173.698 375.354 163.697 373.018 162.967ZM406.944 164.938C406.433 163.916 405.703 162.529 405.265 161.288C404.535 159.536 404.608 158.587 406.214 157.711C413.368 153.623 428.99 151.068 433.589 163.843C437.677 175.158 429.793 194.722 409.426 202.314C407.528 203.044 405.995 202.971 404.316 201.73C402.71 200.416 401.615 199.394 400.155 197.861C398.695 196.328 397.965 195.379 398.987 191.583C401.031 184.064 404.17 173.552 406.944 164.938ZM408.258 192.605C422.347 185.597 426.143 171.581 424.61 167.055C423.807 164.865 421.106 163.332 417.31 164.719C414.098 173.406 411.032 183.042 408.258 192.605ZM442.092 164.062C441.289 162.675 440.632 160.558 440.34 159.244C440.048 157.784 440.413 157.492 441.581 157.2C446.618 155.74 455.962 154.645 462.678 154.426C464.211 154.353 465.16 155.083 465.525 156.47C466.036 158.003 466.255 159.098 466.401 160.558C466.474 162.164 466.036 162.748 464.43 162.894C461.072 163.259 456.911 163.77 452.969 164.427C451.874 167.42 450.56 170.851 449.246 174.428C451.071 174.136 452.896 173.99 454.867 173.917C456.473 173.844 457.349 174.209 457.86 175.596C458.371 177.056 458.736 178.37 458.882 179.83C459.101 181.436 458.663 181.874 457.057 182.239C453.334 182.969 449.173 183.772 445.523 184.721C444.72 186.984 443.917 189.247 443.26 191.364C446.253 190.78 448.881 190.415 452.02 190.196C453.626 190.05 454.575 190.415 455.086 191.802C455.67 193.335 456.035 194.649 456.181 196.109C456.4 197.715 456.035 198.226 454.429 198.591C450.268 199.54 445.596 200.562 441.654 201.657C439.464 202.241 438.369 201.949 437.055 200.854C436.106 200.051 435.157 199.102 434.135 197.715C433.332 196.62 432.821 195.014 433.259 192.97C434.719 186.473 438.88 173.698 442.092 164.062ZM512.874 162.456C510.538 162.675 507.472 162.967 504.917 163.259C500.975 174.647 496.376 189.393 493.164 200.854C492.726 202.387 492.215 202.679 490.682 202.241C489.149 201.803 487.47 201.073 486.156 200.124C484.842 199.175 484.696 198.08 485.134 196.036C486.667 188.371 490.828 174.063 493.894 164.792C492.142 165.084 490.39 165.449 489.295 165.668C487.762 165.96 486.959 165.814 486.156 164.5C485.28 163.04 484.404 160.631 484.112 159.244C483.82 157.784 484.331 157.419 485.499 157.127C492.361 155.594 503.165 154.499 509.954 154.353C511.633 154.353 512.217 154.791 512.728 155.521C513.677 156.981 514.334 158.952 514.553 160.339C514.772 161.872 514.626 162.31 512.874 162.456ZM537.369 158.149C539.34 160.12 540.143 162.383 540.289 165.157C540.8 175.085 536.712 190.999 528.463 199.102C525.689 201.803 522.696 202.533 519.119 202.095C516.783 201.803 514.009 200.927 512.111 199.613C510.651 198.591 509.045 196.62 508.388 194.357C505.249 183.918 511.6 165.376 521.747 156.981C523.864 155.229 527.149 154.353 529.485 154.718C532.551 155.156 535.69 156.47 537.369 158.149ZM529.996 162.967C527.733 162.237 522.55 170.34 519.995 177.202C517.44 183.991 516.053 193.262 518.754 194.357C521.382 195.452 525.543 189.101 528.463 180.414C530.726 173.698 532.332 163.697 529.996 162.967ZM571.687 161.799C569.205 166.763 561.759 177.932 555.408 187.203C553.802 192.167 552.342 197.058 551.101 201.365C550.663 202.971 550.079 203.19 548.546 202.752C547.086 202.314 545.334 201.584 544.093 200.562C542.852 199.54 542.56 198.591 543.071 196.474C543.801 193.189 545.042 188.517 546.429 183.48C545.334 174.793 543.728 164.281 542.633 157.054C542.414 155.448 542.779 154.937 544.312 154.718C545.918 154.499 547.743 154.426 549.276 154.791C550.809 155.156 551.393 156.032 551.831 158.076C552.561 161.726 553.437 167.639 554.167 173.406C557.89 167.566 561.905 160.996 565.409 155.302C566.285 153.842 567.088 153.696 568.475 154.572C569.862 155.448 570.957 156.324 571.833 157.565C572.782 158.879 572.636 159.828 571.687 161.799ZM596.326 158.149C598.297 160.12 599.1 162.383 599.246 165.157C599.757 175.085 595.669 190.999 587.42 199.102C584.646 201.803 581.653 202.533 578.076 202.095C575.74 201.803 572.966 200.927 571.068 199.613C569.608 198.591 568.002 196.62 567.345 194.357C564.206 183.918 570.557 165.376 580.704 156.981C582.821 155.229 586.106 154.353 588.442 154.718C591.508 155.156 594.647 156.47 596.326 158.149ZM588.953 162.967C586.69 162.237 581.507 170.34 578.952 177.202C576.397 183.991 575.01 193.262 577.711 194.357C580.339 195.452 584.5 189.101 587.42 180.414C589.683 173.698 591.289 163.697 588.953 162.967ZM629.574 162.456C627.238 162.675 624.172 162.967 621.617 163.259C617.675 174.647 613.076 189.393 609.864 200.854C609.426 202.387 608.915 202.679 607.382 202.241C605.849 201.803 604.17 201.073 602.856 200.124C601.542 199.175 601.396 198.08 601.834 196.036C603.367 188.371 607.528 174.063 610.594 164.792C608.842 165.084 607.09 165.449 605.995 165.668C604.462 165.96 603.659 165.814 602.856 164.5C601.98 163.04 601.104 160.631 600.812 159.244C600.52 157.784 601.031 157.419 602.199 157.127C609.061 155.594 619.865 154.499 626.654 154.353C628.333 154.353 628.917 154.791 629.428 155.521C630.377 156.981 631.034 158.952 631.253 160.339C631.472 161.872 631.326 162.31 629.574 162.456ZM641.747 189.685C637.075 190.488 631.819 191.364 628.096 192.386C626.49 195.379 625.03 198.226 623.789 200.708C622.986 202.241 622.402 202.314 621.015 201.73C619.774 201.219 618.533 200.489 617.511 199.321C616.489 198.153 616.489 197.131 617.365 195.087C622.183 184.356 631.746 166.544 637.951 156.835C639.119 155.01 640.433 154.061 642.988 154.134C645.981 154.207 649.923 155.229 652.259 156.178C654.011 156.908 654.23 158.003 653.938 159.828C652.624 169.026 650.945 186.619 649.996 200.124C649.923 201.803 649.485 202.241 647.879 202.241C646.273 202.241 644.375 201.949 643.353 201.584C641.893 201.073 641.455 200.124 641.455 197.934C641.455 195.598 641.601 192.824 641.747 189.685ZM633.717 181.801C636.564 181.363 639.484 180.925 642.258 180.706C642.696 174.939 643.28 168.953 643.937 163.77C641.09 168.588 637.367 175.158 633.717 181.801Z" fill="#43454A"/>
<path d="M252.745 225.938C252.234 224.916 251.504 223.529 251.066 222.288C250.336 220.536 250.409 219.587 252.015 218.711C259.169 214.623 274.791 212.068 279.39 224.843C283.478 236.158 275.594 255.722 255.227 263.314C253.329 264.044 251.796 263.971 250.117 262.73C248.511 261.416 247.416 260.394 245.956 258.861C244.496 257.328 243.766 256.379 244.788 252.583C246.832 245.064 249.971 234.552 252.745 225.938ZM254.059 253.605C268.148 246.597 271.944 232.581 270.411 228.055C269.608 225.865 266.907 224.332 263.111 225.719C259.899 234.406 256.833 244.042 254.059 253.605ZM289.541 248.13C288.008 252.729 286.548 257.328 285.307 261.562C284.869 263.095 284.358 263.387 282.825 263.022C281.292 262.584 279.905 262.073 278.883 261.343C277.569 260.394 277.423 259.372 277.788 257.328C279.175 250.612 283.044 237.837 286.402 227.325C285.818 226.23 285.088 224.843 284.65 223.675C283.993 221.85 284.066 220.974 285.599 220.098C292.753 216.083 306.477 212.652 310.93 217.981C312.755 220.171 314.288 223.237 314.799 227.106C315.31 231.194 313.412 234.552 310.565 237.326C307.645 240.173 303.484 243.02 298.739 245.356C301.075 249.298 304.944 254.627 307.718 257.912C308.886 259.226 308.521 259.956 307.499 260.832C306.258 261.854 305.601 262 304.36 262.365C302.973 262.803 301.221 262.876 299.25 260.978C296.476 258.496 292.315 252.948 289.541 248.13ZM297.352 226.449C295.965 229.88 294.505 234.041 292.899 238.494C301.513 235.209 307.134 228.566 306.55 226.23C306.185 224.551 302.024 224.186 297.352 226.449ZM320.331 225.062C319.528 223.675 318.871 221.558 318.579 220.244C318.287 218.784 318.652 218.492 319.82 218.2C324.857 216.74 334.201 215.645 340.917 215.426C342.45 215.353 343.399 216.083 343.764 217.47C344.275 219.003 344.494 220.098 344.64 221.558C344.713 223.164 344.275 223.748 342.669 223.894C339.311 224.259 335.15 224.77 331.208 225.427C330.113 228.42 328.799 231.851 327.485 235.428C329.31 235.136 331.135 234.99 333.106 234.917C334.712 234.844 335.588 235.209 336.099 236.596C336.61 238.056 336.975 239.37 337.121 240.83C337.34 242.436 336.902 242.874 335.296 243.239C331.573 243.969 327.412 244.772 323.762 245.721C322.959 247.984 322.156 250.247 321.499 252.364C324.492 251.78 327.12 251.415 330.259 251.196C331.865 251.05 332.814 251.415 333.325 252.802C333.909 254.335 334.274 255.649 334.42 257.109C334.639 258.715 334.274 259.226 332.668 259.591C328.507 260.54 323.835 261.562 319.893 262.657C317.703 263.241 316.608 262.949 315.294 261.854C314.345 261.051 313.396 260.102 312.374 258.715C311.571 257.62 311.06 256.014 311.498 253.97C312.958 247.473 317.119 234.698 320.331 225.062ZM361.082 250.685C356.41 251.488 351.154 252.364 347.431 253.386C345.825 256.379 344.365 259.226 343.124 261.708C342.321 263.241 341.737 263.314 340.35 262.73C339.109 262.219 337.868 261.489 336.846 260.321C335.824 259.153 335.824 258.131 336.7 256.087C341.518 245.356 351.081 227.544 357.286 217.835C358.454 216.01 359.768 215.061 362.323 215.134C365.316 215.207 369.258 216.229 371.594 217.178C373.346 217.908 373.565 219.003 373.273 220.828C371.959 230.026 370.28 247.619 369.331 261.124C369.258 262.803 368.82 263.241 367.214 263.241C365.608 263.241 363.71 262.949 362.688 262.584C361.228 262.073 360.79 261.124 360.79 258.934C360.79 256.598 360.936 253.824 361.082 250.685ZM353.052 242.801C355.899 242.363 358.819 241.925 361.593 241.706C362.031 235.939 362.615 229.953 363.272 224.77C360.425 229.588 356.702 236.158 353.052 242.801ZM388.13 254.189C387.838 249.809 387.984 237.91 388.203 231.778C385.94 239.078 381.779 253.021 379.589 261.416C379.078 263.241 378.348 263.606 376.669 263.022C375.793 262.73 374.625 262.146 373.676 261.562C371.851 260.467 371.559 259.226 372.216 256.233C374.26 246.597 380.392 226.814 383.458 218.127C384.115 216.448 384.845 215.864 386.232 215.864C388.203 215.864 391.707 217.032 393.459 217.908C395.722 219.076 396.233 219.952 396.233 222.288L396.16 226.23L396.087 236.012V240.538C399.664 233.238 406.088 222.215 409.227 217.397C410.322 215.718 411.49 215.353 413.388 215.645C415.067 215.937 418.352 216.959 421.053 218.346C422.586 219.149 422.878 220.171 422.221 222.434C419.374 232.362 413.023 252.437 410.614 261.489C410.249 262.657 409.665 263.241 408.862 263.241C407.84 263.241 405.942 262.438 404.847 261.781C403.022 260.686 402.511 259.664 403.241 256.233C404.482 250.466 407.621 239.443 410.614 230.391C406.672 237.399 400.321 249.006 395.941 257.547C395.284 258.861 394.846 259.299 394.043 259.299C393.167 259.299 391.78 258.861 390.393 258.204C388.933 257.547 388.276 256.598 388.13 254.189ZM459.74 249.444C462.003 250.247 461.638 251.926 460.397 254.335C459.01 257.109 456.674 259.664 454.776 261.343C452.732 263.095 449.301 264.117 446.454 263.825C443.461 263.533 441.052 262.438 439.3 261.416C437.767 260.467 435.942 258.642 435.285 256.452C432.146 246.378 439.446 226.376 449.666 217.616C452.367 215.353 454.922 214.842 457.039 215.061C460.178 215.353 463.901 216.959 465.726 218.638C467.77 220.536 468.135 222.58 468.062 225.135C467.989 228.055 467.186 232.216 466.237 234.552C465.799 235.72 465.434 236.523 463.536 236.085C459.74 235.209 458.426 233.311 458.28 229.88C458.207 227.398 459.375 224.04 457.769 223.383C455.652 222.507 449.739 232.289 447.257 239.005C444.556 246.232 443.388 254.627 445.943 255.576C447.33 256.087 449.228 254.773 452.221 251.415C454.265 249.152 456.966 248.495 459.74 249.444ZM486.907 250.685C482.235 251.488 476.979 252.364 473.256 253.386C471.65 256.379 470.19 259.226 468.949 261.708C468.146 263.241 467.562 263.314 466.175 262.73C464.934 262.219 463.693 261.489 462.671 260.321C461.649 259.153 461.649 258.131 462.525 256.087C467.343 245.356 476.906 227.544 483.111 217.835C484.279 216.01 485.593 215.061 488.148 215.134C491.141 215.207 495.083 216.229 497.419 217.178C499.171 217.908 499.39 219.003 499.098 220.828C497.784 230.026 496.105 247.619 495.156 261.124C495.083 262.803 494.645 263.241 493.039 263.241C491.433 263.241 489.535 262.949 488.513 262.584C487.053 262.073 486.615 261.124 486.615 258.934C486.615 256.598 486.761 253.824 486.907 250.685ZM478.877 242.801C481.724 242.363 484.644 241.925 487.418 241.706C487.856 235.939 488.44 229.953 489.097 224.77C486.25 229.588 482.527 236.158 478.877 242.801ZM510.466 248.13C508.933 252.729 507.473 257.328 506.232 261.562C505.794 263.095 505.283 263.387 503.75 263.022C502.217 262.584 500.83 262.073 499.808 261.343C498.494 260.394 498.348 259.372 498.713 257.328C500.1 250.612 503.969 237.837 507.327 227.325C506.743 226.23 506.013 224.843 505.575 223.675C504.918 221.85 504.991 220.974 506.524 220.098C513.678 216.083 527.402 212.652 531.855 217.981C533.68 220.171 535.213 223.237 535.724 227.106C536.235 231.194 534.337 234.552 531.49 237.326C528.57 240.173 524.409 243.02 519.664 245.356C522 249.298 525.869 254.627 528.643 257.912C529.811 259.226 529.446 259.956 528.424 260.832C527.183 261.854 526.526 262 525.285 262.365C523.898 262.803 522.146 262.876 520.175 260.978C517.401 258.496 513.24 252.948 510.466 248.13ZM518.277 226.449C516.89 229.88 515.43 234.041 513.824 238.494C522.438 235.209 528.059 228.566 527.475 226.23C527.11 224.551 522.949 224.186 518.277 226.449ZM555.898 215.718C557.285 216.886 557.431 217.908 556.774 219.587C552.832 229.442 548.452 240.976 545.532 249.882C545.021 251.488 544.437 251.707 542.977 251.342C541.444 250.977 539.911 250.247 538.743 249.517C537.429 248.641 537.137 247.692 537.721 245.575C539.984 237.034 544.802 222.799 547.649 214.696C548.306 212.871 549.109 212.506 550.861 213.09C552.394 213.601 554.511 214.55 555.898 215.718ZM536.553 264.117C533.852 263.314 532.392 260.248 533.779 256.817C534.947 253.97 537.648 252.072 540.86 253.24C543.926 254.335 544.51 257.182 543.634 259.883C542.466 263.46 539.4 264.993 536.553 264.117Z" fill="#43454A"/>
<defs>
<clipPath id="clip0_274_6">
<rect width="432.85" height="69.86" fill="white" transform="translate(116 2)"/>
</clipPath>
<clipPath id="clip1_274_6">
<rect width="453.35" height="130.01" fill="white" transform="translate(210 142)"/>
</clipPath>
</defs>
</svg>
