<svg width="508" height="142" viewBox="0 0 508 142" fill="none" xmlns="http://www.w3.org/2000/svg">
<path d="M246.475 123.485C267.267 123.571 287.882 125.707 308.654 126.474C326.259 127.136 343.914 126.923 361.54 127.3C379.237 127.682 396.929 128.333 414.612 128.912C424.081 129.22 433.532 129.58 442.996 129.959C455.838 130.475 469.498 132.719 482.27 129.856C493.922 127.252 504.608 112.516 505.156 97.6214C505.683 83.0126 499.202 66.2993 487.146 62.4299C474.574 58.3796 461.174 59.062 448.161 58.5339C438.697 58.1547 429.232 57.7934 419.777 57.4866C402.08 56.9069 384.368 56.7212 366.644 56.7139C348.991 56.7119 331.288 56.5985 313.63 57.6551C302.661 58.3159 291.706 58.9955 280.742 60.3747C275.794 61.0041 270.826 61.9013 265.874 62.3869C269.747 62.0028 261.449 62.4977 260.531 62.539C257.303 62.7005 254.06 62.8788 250.831 63.0581C238.232 63.7266 225.236 74.0414 224.586 91.5313C224.038 107.216 232.956 123.441 246.475 123.485Z" fill="#F7A400"/>
<path d="M34.502 96.96C36.166 90.112 39.302 79.36 41.478 73.216C42.054 71.616 42.886 71.36 44.294 71.808C45.254 72.128 46.342 72.64 47.174 73.152C48.582 74.048 49.03 74.816 48.39 76.864C45.51 86.016 40.774 101.248 38.15 111.104C37.766 112.64 36.742 112.96 35.206 112.576C34.054 112.256 32.646 111.68 31.622 111.104C30.47 110.464 29.83 109.568 29.382 107.84C28.294 103.04 27.526 96.64 27.014 88.384C25.414 93.44 22.662 102.464 20.102 111.488C19.718 112.832 19.078 113.216 17.67 112.768C16.774 112.448 15.622 111.872 14.918 111.424C13.51 110.528 13.126 109.888 13.702 107.136C15.11 100.608 20.614 82.496 23.75 73.344C24.198 72.128 24.838 71.68 25.798 71.68C26.822 71.68 29.318 72.576 31.174 73.536C32.646 74.304 32.966 75.008 33.094 76.736C33.478 82.752 33.926 90.112 34.502 96.96ZM46.4525 106.56C43.9565 99.328 49.7165 84.608 54.0685 73.472C54.6445 71.936 55.4765 71.744 56.8845 72.256C58.2285 72.768 59.7005 73.536 60.7245 74.56C62.0045 75.776 62.1965 77.12 61.4925 78.848C57.9725 87.872 51.4445 104.896 55.0925 106.112C59.4445 107.584 66.0365 83.712 68.9165 73.088C69.3645 71.488 70.2605 71.232 71.6685 71.68C73.0765 72.128 74.8045 73.088 75.9565 73.984C77.2365 75.008 77.2365 75.52 76.8525 76.992C72.1805 94.4 68.0845 107.264 62.0045 111.424C59.8925 112.896 57.9725 113.152 55.4125 113.024C52.9805 112.896 50.9325 112 49.3965 110.848C48.1805 109.952 47.0925 108.48 46.4525 106.56ZM80.903 79.616C80.199 78.4 79.623 76.544 79.367 75.392C79.111 74.112 79.431 73.856 80.455 73.6C84.871 72.32 93.063 71.36 98.951 71.168C100.295 71.104 101.127 71.744 101.447 72.96C101.895 74.304 102.087 75.264 102.215 76.544C102.279 77.952 101.895 78.464 100.487 78.592C97.543 78.912 93.895 79.36 90.439 79.936C89.479 82.56 88.327 85.568 87.175 88.704C88.775 88.448 90.375 88.32 92.103 88.256C93.511 88.192 94.279 88.512 94.727 89.728C95.175 91.008 95.495 92.16 95.623 93.44C95.815 94.848 95.431 95.232 94.023 95.552C90.759 96.192 87.111 96.896 83.911 97.728C83.207 99.712 82.503 101.696 81.927 103.552C84.551 103.04 86.855 102.72 89.607 102.528C91.015 102.4 91.847 102.72 92.295 103.936C92.807 105.28 93.127 106.432 93.255 107.712C93.447 109.12 93.127 109.568 91.719 109.888C88.071 110.72 83.975 111.616 80.519 112.576C78.599 113.088 77.639 112.832 76.487 111.872C75.655 111.168 74.823 110.336 73.927 109.12C73.223 108.16 72.775 106.752 73.159 104.96C74.439 99.264 78.087 88.064 80.903 79.616ZM95.577 101.888C97.561 100.864 100.313 101.12 101.657 102.272C105.433 105.6 109.081 106.688 110.681 105.28C112.537 103.744 105.881 99.712 102.489 95.808C100.121 93.056 98.969 88.832 101.081 84.16C102.873 80 106.841 75.2 110.681 72.768C112.153 71.872 114.585 70.912 117.273 71.872C119.321 72.64 121.625 74.112 122.841 75.52C124.633 77.504 124.441 79.68 124.249 81.408C123.801 84.352 122.201 89.344 120.857 91.968C120.217 93.184 119.577 93.44 118.425 92.928C115.161 91.52 113.689 89.536 114.265 86.976C114.777 84.672 116.697 79.808 115.929 79.424C114.585 78.656 106.329 87.104 109.785 91.776C113.561 96.768 121.817 100.032 118.809 105.856C116.633 110.08 113.113 113.216 107.865 113.216C103.641 113.216 99.545 111.232 95.961 106.112C94.105 103.488 94.361 102.528 95.577 101.888ZM150.646 78.208C148.598 78.4 145.91 78.656 143.67 78.912C140.214 88.896 136.182 101.824 133.366 111.872C132.982 113.216 132.534 113.472 131.19 113.088C129.845 112.704 128.374 112.064 127.222 111.232C126.07 110.4 125.942 109.44 126.326 107.648C127.67 100.928 131.318 88.384 134.006 80.256C132.47 80.512 130.934 80.832 129.974 81.024C128.63 81.28 127.926 81.152 127.222 80C126.454 78.72 125.686 76.608 125.43 75.392C125.174 74.112 125.622 73.792 126.646 73.536C132.662 72.192 142.134 71.232 148.086 71.104C149.558 71.104 150.07 71.488 150.518 72.128C151.35 73.408 151.926 75.136 152.118 76.352C152.31 77.696 152.182 78.08 150.646 78.208ZM157.785 99.84C156.441 103.872 155.161 107.904 154.073 111.616C153.689 112.96 153.241 113.216 151.897 112.896C150.553 112.512 149.337 112.064 148.441 111.424C147.288 110.592 147.16 109.696 147.48 107.904C148.697 102.016 152.089 90.816 155.033 81.6C154.521 80.64 153.881 79.424 153.497 78.4C152.921 76.8 152.985 76.032 154.329 75.264C160.601 71.744 172.633 68.736 176.537 73.408C178.137 75.328 179.481 78.016 179.929 81.408C180.377 84.992 178.713 87.936 176.217 90.368C173.657 92.864 170.009 95.36 165.849 97.408C167.897 100.864 171.289 105.536 173.721 108.416C174.745 109.568 174.425 110.208 173.529 110.976C172.441 111.872 171.865 112 170.777 112.32C169.561 112.704 168.025 112.768 166.297 111.104C163.865 108.928 160.217 104.064 157.785 99.84ZM164.633 80.832C163.417 83.84 162.137 87.488 160.729 91.392C168.281 88.512 173.209 82.688 172.697 80.64C172.377 79.168 168.729 78.848 164.633 80.832ZM195.38 102.08C191.284 102.784 186.676 103.552 183.412 104.448C182.004 107.072 180.724 109.568 179.636 111.744C178.932 113.088 178.42 113.152 177.204 112.64C176.116 112.192 175.028 111.552 174.132 110.528C173.236 109.504 173.236 108.608 174.004 106.816C178.228 97.408 186.612 81.792 192.052 73.28C193.076 71.68 194.228 70.848 196.468 70.912C199.092 70.976 202.548 71.872 204.596 72.704C206.132 73.344 206.324 74.304 206.068 75.904C204.916 83.968 203.444 99.392 202.612 111.232C202.548 112.704 202.164 113.088 200.756 113.088C199.348 113.088 197.684 112.832 196.788 112.512C195.508 112.064 195.124 111.232 195.124 109.312C195.124 107.264 195.252 104.832 195.38 102.08ZM188.34 95.168C190.836 94.784 193.396 94.4 195.828 94.208C196.212 89.152 196.724 83.904 197.3 79.36C194.804 83.584 191.54 89.344 188.34 95.168Z" fill="#EE9B00"/>
<path d="M275.639 88.128C275.255 89.28 274.807 89.728 273.463 89.536C269.879 89.024 268.471 86.912 268.535 83.968C268.599 81.728 269.111 78.592 268.151 78.272C266.231 77.632 261.623 84.224 258.551 91.52C255.927 97.728 254.967 105.536 257.207 106.56C259.063 107.392 262.007 103.808 264.183 99.328C260.919 99.52 259.383 97.92 258.999 94.336C258.871 93.184 259.447 92.864 260.535 92.608C262.711 92.032 266.359 91.392 268.343 91.136C270.199 90.88 271.159 91.2 271.991 92.352C272.567 93.184 273.079 94.144 273.463 94.912C274.167 96.448 274.103 97.408 273.399 99.072C270.967 104.96 267.703 109.44 264.311 111.808C262.135 113.344 259.703 113.856 257.271 113.408C255.031 113.024 253.047 112.192 251.255 110.976C249.911 110.016 248.503 108.224 247.991 106.24C245.495 97.024 252.215 79.36 261.751 72.32C263.735 70.848 266.167 70.72 267.959 70.976C270.391 71.296 273.271 72.512 274.871 74.112C276.407 75.648 276.855 77.376 276.919 79.68C276.983 82.048 276.279 86.144 275.639 88.128ZM293.88 102.08C289.784 102.784 285.176 103.552 281.912 104.448C280.504 107.072 279.224 109.568 278.136 111.744C277.432 113.088 276.92 113.152 275.704 112.64C274.616 112.192 273.528 111.552 272.632 110.528C271.736 109.504 271.736 108.608 272.504 106.816C276.728 97.408 285.112 81.792 290.552 73.28C291.576 71.68 292.728 70.848 294.968 70.912C297.592 70.976 301.048 71.872 303.096 72.704C304.632 73.344 304.824 74.304 304.568 75.904C303.416 83.968 301.944 99.392 301.112 111.232C301.048 112.704 300.664 113.088 299.256 113.088C297.848 113.088 296.184 112.832 295.288 112.512C294.008 112.064 293.624 111.232 293.624 109.312C293.624 107.264 293.752 104.832 293.88 102.08ZM286.84 95.168C289.336 94.784 291.896 94.4 294.328 94.208C294.712 89.152 295.224 83.904 295.8 79.36C293.304 83.584 290.04 89.344 286.84 95.168ZM324.377 96.96C326.041 90.112 329.177 79.36 331.353 73.216C331.929 71.616 332.761 71.36 334.169 71.808C335.129 72.128 336.217 72.64 337.049 73.152C338.457 74.048 338.905 74.816 338.265 76.864C335.385 86.016 330.649 101.248 328.025 111.104C327.641 112.64 326.617 112.96 325.081 112.576C323.929 112.256 322.521 111.68 321.497 111.104C320.345 110.464 319.705 109.568 319.257 107.84C318.169 103.04 317.401 96.64 316.889 88.384C315.289 93.44 312.537 102.464 309.977 111.488C309.593 112.832 308.953 113.216 307.545 112.768C306.649 112.448 305.497 111.872 304.793 111.424C303.385 110.528 303.001 109.888 303.577 107.136C304.985 100.608 310.489 82.496 313.625 73.344C314.073 72.128 314.713 71.68 315.673 71.68C316.697 71.68 319.193 72.576 321.049 73.536C322.521 74.304 322.841 75.008 322.969 76.736C323.353 82.752 323.801 90.112 324.377 96.96ZM353.505 102.08C349.409 102.784 344.801 103.552 341.537 104.448C340.129 107.072 338.849 109.568 337.761 111.744C337.057 113.088 336.545 113.152 335.329 112.64C334.241 112.192 333.153 111.552 332.257 110.528C331.361 109.504 331.361 108.608 332.129 106.816C336.353 97.408 344.737 81.792 350.177 73.28C351.201 71.68 352.353 70.848 354.593 70.912C357.217 70.976 360.673 71.872 362.721 72.704C364.257 73.344 364.449 74.304 364.193 75.904C363.041 83.968 361.569 99.392 360.737 111.232C360.673 112.704 360.289 113.088 358.881 113.088C357.473 113.088 355.809 112.832 354.913 112.512C353.633 112.064 353.249 111.232 353.249 109.312C353.249 107.264 353.377 104.832 353.505 102.08ZM346.465 95.168C348.961 94.784 351.521 94.4 353.953 94.208C354.337 89.152 354.849 83.904 355.425 79.36C352.929 83.584 349.665 89.344 346.465 95.168ZM370.963 80.384C370.515 79.488 369.875 78.272 369.491 77.184C368.851 75.648 368.915 74.816 370.323 74.048C376.595 70.464 390.291 68.224 394.323 79.424C397.907 89.344 390.995 106.496 373.139 113.152C371.475 113.792 370.131 113.728 368.659 112.64C367.251 111.488 366.291 110.592 365.011 109.248C363.73 107.904 363.09 107.072 363.986 103.744C365.779 97.152 368.531 87.936 370.963 80.384ZM372.115 104.64C384.467 98.496 387.795 86.208 386.451 82.24C385.747 80.32 383.378 78.976 380.051 80.192C377.235 87.808 374.547 96.256 372.115 104.64ZM421.809 74.432C423.537 76.16 424.241 78.144 424.369 80.576C424.817 89.28 421.233 103.232 414.001 110.336C411.569 112.704 408.945 113.344 405.809 112.96C403.76 112.704 401.329 111.936 399.665 110.784C398.385 109.888 396.977 108.16 396.401 106.176C393.648 97.024 399.217 80.768 408.113 73.408C409.969 71.872 412.849 71.104 414.897 71.424C417.585 71.808 420.337 72.96 421.809 74.432ZM415.345 78.656C413.361 78.016 408.817 85.12 406.577 91.136C404.337 97.088 403.121 105.216 405.489 106.176C407.793 107.136 411.441 101.568 414.001 93.952C415.985 88.064 417.393 79.296 415.345 78.656ZM432.785 99.84C431.441 103.872 430.161 107.904 429.073 111.616C428.689 112.96 428.241 113.216 426.897 112.896C425.553 112.512 424.337 112.064 423.441 111.424C422.288 110.592 422.16 109.696 422.48 107.904C423.697 102.016 427.089 90.816 430.033 81.6C429.521 80.64 428.881 79.424 428.497 78.4C427.921 76.8 427.985 76.032 429.329 75.264C435.601 71.744 447.633 68.736 451.537 73.408C453.137 75.328 454.481 78.016 454.929 81.408C455.377 84.992 453.713 87.936 451.217 90.368C448.657 92.864 445.009 95.36 440.849 97.408C442.897 100.864 446.289 105.536 448.721 108.416C449.745 109.568 449.425 110.208 448.529 110.976C447.441 111.872 446.865 112 445.777 112.32C444.561 112.704 443.025 112.768 441.297 111.104C438.865 108.928 435.217 104.064 432.785 99.84ZM439.633 80.832C438.417 83.84 437.137 87.488 435.729 91.392C443.281 88.512 448.209 82.688 447.697 80.64C447.377 79.168 443.729 78.848 439.633 80.832ZM470.38 102.08C466.284 102.784 461.676 103.552 458.412 104.448C457.004 107.072 455.724 109.568 454.636 111.744C453.932 113.088 453.42 113.152 452.204 112.64C451.116 112.192 450.028 111.552 449.132 110.528C448.236 109.504 448.236 108.608 449.004 106.816C453.228 97.408 461.612 81.792 467.052 73.28C468.076 71.68 469.228 70.848 471.468 70.912C474.092 70.976 477.548 71.872 479.596 72.704C481.132 73.344 481.324 74.304 481.068 75.904C479.916 83.968 478.444 99.392 477.612 111.232C477.548 112.704 477.164 113.088 475.756 113.088C474.348 113.088 472.684 112.832 471.788 112.512C470.508 112.064 470.124 111.232 470.124 109.312C470.124 107.264 470.252 104.832 470.38 102.08ZM463.34 95.168C465.836 94.784 468.396 94.4 470.828 94.208C471.212 89.152 471.724 83.904 472.3 79.36C469.804 83.584 466.54 89.344 463.34 95.168Z" fill="white"/>
<path d="M28.496 17.432C30.224 19.16 30.928 21.144 31.056 23.576C31.504 32.28 27.92 46.232 20.688 53.336C18.256 55.704 15.632 56.344 12.496 55.96C10.448 55.704 8.016 54.936 6.352 53.784C5.072 52.888 3.664 51.16 3.088 49.176C0.336 40.024 5.904 23.768 14.8 16.408C16.656 14.872 19.536 14.104 21.584 14.424C24.272 14.808 27.024 15.96 28.496 17.432ZM22.032 21.656C20.048 21.016 15.504 28.12 13.264 34.136C11.024 40.088 9.808 48.216 12.176 49.176C14.48 50.136 18.128 44.568 20.688 36.952C22.672 31.064 24.08 22.296 22.032 21.656ZM39.472 42.84C38.128 46.872 36.848 50.904 35.76 54.616C35.376 55.96 34.928 56.216 33.584 55.896C32.24 55.512 31.024 55.064 30.128 54.424C28.976 53.592 28.848 52.696 29.168 50.904C30.384 45.016 33.776 33.816 36.72 24.6C36.208 23.64 35.568 22.424 35.184 21.4C34.608 19.8 34.672 19.032 36.016 18.264C42.288 14.744 54.32 11.736 58.224 16.408C59.824 18.328 61.168 21.016 61.616 24.408C62.064 27.992 60.4 30.936 57.904 33.368C55.344 35.864 51.696 38.36 47.536 40.408C49.584 43.864 52.976 48.536 55.408 51.416C56.432 52.568 56.112 53.208 55.216 53.976C54.128 54.872 53.552 55 52.464 55.32C51.248 55.704 49.712 55.768 47.984 54.104C45.552 51.928 41.904 47.064 39.472 42.84ZM46.32 23.832C45.104 26.84 43.824 30.488 42.416 34.392C49.968 31.512 54.896 25.688 54.384 23.64C54.064 22.168 50.416 21.848 46.32 23.832ZM87.8265 31.128C87.4425 32.28 86.9945 32.728 85.6505 32.536C82.0665 32.024 80.6585 29.912 80.7225 26.968C80.7865 24.728 81.2985 21.592 80.3385 21.272C78.4185 20.632 73.8105 27.224 70.7385 34.52C68.1145 40.728 67.1545 48.536 69.3945 49.56C71.2505 50.392 74.1945 46.808 76.3705 42.328C73.1065 42.52 71.5705 40.92 71.1865 37.336C71.0585 36.184 71.6345 35.864 72.7225 35.608C74.8985 35.032 78.5465 34.392 80.5305 34.136C82.3865 33.88 83.3465 34.2 84.1785 35.352C84.7545 36.184 85.2665 37.144 85.6505 37.912C86.3545 39.448 86.2905 40.408 85.5865 42.072C83.1545 47.96 79.8905 52.44 76.4985 54.808C74.3225 56.344 71.8905 56.856 69.4585 56.408C67.2185 56.024 65.2345 55.192 63.4425 53.976C62.0985 53.016 60.6905 51.224 60.1785 49.24C57.6825 40.024 64.4025 22.36 73.9385 15.32C75.9225 13.848 78.3545 13.72 80.1465 13.976C82.5785 14.296 85.4585 15.512 87.0585 17.112C88.5945 18.648 89.0425 20.376 89.1065 22.68C89.1705 25.048 88.4665 29.144 87.8265 31.128ZM88.7025 49.56C86.2065 42.328 91.9665 27.608 96.3185 16.472C96.8945 14.936 97.7265 14.744 99.1345 15.256C100.479 15.768 101.951 16.536 102.975 17.56C104.255 18.776 104.447 20.12 103.743 21.848C100.223 30.872 93.6945 47.896 97.3425 49.112C101.695 50.584 108.287 26.712 111.167 16.088C111.615 14.488 112.511 14.232 113.919 14.68C115.327 15.128 117.055 16.088 118.207 16.984C119.487 18.008 119.487 18.52 119.103 19.992C114.431 37.4 110.335 50.264 104.255 54.424C102.143 55.896 100.223 56.152 97.6625 56.024C95.2305 55.896 93.1825 55 91.6465 53.848C90.4305 52.952 89.3425 51.48 88.7025 49.56ZM133.264 52.824C129.616 53.656 125.84 54.488 122.384 55.512C120.208 56.152 119.056 55.896 117.968 54.936C117.072 54.168 116.303 53.4 115.407 52.12C114.576 50.904 114.255 49.88 114.639 48.216C116.495 40.28 121.552 24.088 125.008 15.512C125.648 13.976 126.48 13.784 127.824 14.232C129.232 14.68 131.216 15.576 132.432 16.536C133.648 17.496 133.776 18.136 133.2 19.608C130.512 26.648 126.8 37.208 123.856 46.424C126.352 45.912 128.528 45.656 131.152 45.464C132.56 45.336 133.328 45.592 133.84 46.872C134.352 48.152 134.672 49.368 134.8 50.648C135.056 52.056 134.992 52.44 133.264 52.824ZM155.139 52.824C151.491 53.656 147.715 54.488 144.259 55.512C142.083 56.152 140.931 55.896 139.843 54.936C138.947 54.168 138.178 53.4 137.282 52.12C136.451 50.904 136.13 49.88 136.514 48.216C138.37 40.28 143.427 24.088 146.883 15.512C147.523 13.976 148.355 13.784 149.699 14.232C151.107 14.68 153.091 15.576 154.307 16.536C155.523 17.496 155.651 18.136 155.075 19.608C152.387 26.648 148.675 37.208 145.731 46.424C148.227 45.912 150.403 45.656 153.027 45.464C154.435 45.336 155.203 45.592 155.715 46.872C156.227 48.152 156.547 49.368 156.675 50.648C156.931 52.056 156.867 52.44 155.139 52.824ZM184.496 17.432C186.224 19.16 186.928 21.144 187.056 23.576C187.504 32.28 183.92 46.232 176.688 53.336C174.256 55.704 171.632 56.344 168.496 55.96C166.448 55.704 164.016 54.936 162.352 53.784C161.072 52.888 159.664 51.16 159.088 49.176C156.336 40.024 161.904 23.768 170.8 16.408C172.656 14.872 175.536 14.104 177.584 14.424C180.272 14.808 183.024 15.96 184.496 17.432ZM178.032 21.656C176.048 21.016 171.504 28.12 169.264 34.136C167.024 40.088 165.808 48.216 168.176 49.176C170.48 50.136 174.128 44.568 176.688 36.952C178.672 31.064 180.08 22.296 178.032 21.656ZM185.577 44.888C187.561 43.864 190.313 44.12 191.657 45.272C195.433 48.6 199.081 49.688 200.681 48.28C202.537 46.744 195.881 42.712 192.489 38.808C190.121 36.056 188.969 31.832 191.081 27.16C192.873 23 196.841 18.2 200.681 15.768C202.153 14.872 204.585 13.912 207.273 14.872C209.321 15.64 211.625 17.112 212.841 18.52C214.633 20.504 214.441 22.68 214.249 24.408C213.801 27.352 212.201 32.344 210.857 34.968C210.217 36.184 209.577 36.44 208.425 35.928C205.161 34.52 203.689 32.536 204.265 29.976C204.777 27.672 206.697 22.808 205.929 22.424C204.585 21.656 196.329 30.104 199.785 34.776C203.561 39.768 211.817 43.032 208.809 48.856C206.633 53.08 203.113 56.216 197.865 56.216C193.641 56.216 189.545 54.232 185.961 49.112C184.105 46.488 184.361 45.528 185.577 44.888ZM239.059 17.432C240.787 19.16 241.491 21.144 241.619 23.576C242.067 32.28 238.483 46.232 231.251 53.336C228.819 55.704 226.195 56.344 223.059 55.96C221.01 55.704 218.579 54.936 216.915 53.784C215.635 52.888 214.227 51.16 213.651 49.176C210.898 40.024 216.467 23.768 225.363 16.408C227.219 14.872 230.099 14.104 232.147 14.424C234.835 14.808 237.587 15.96 239.059 17.432ZM232.595 21.656C230.611 21.016 226.067 28.12 223.827 34.136C221.587 40.088 220.371 48.216 222.739 49.176C225.043 50.136 228.691 44.568 231.251 36.952C233.235 31.064 234.643 22.296 232.595 21.656ZM240.139 44.888C242.123 43.864 244.876 44.12 246.22 45.272C249.996 48.6 253.644 49.688 255.244 48.28C257.1 46.744 250.444 42.712 247.052 38.808C244.684 36.056 243.532 31.832 245.644 27.16C247.436 23 251.404 18.2 255.244 15.768C256.716 14.872 259.148 13.912 261.836 14.872C263.884 15.64 266.188 17.112 267.404 18.52C269.196 20.504 269.004 22.68 268.812 24.408C268.364 27.352 266.764 32.344 265.42 34.968C264.78 36.184 264.14 36.44 262.988 35.928C259.724 34.52 258.252 32.536 258.828 29.976C259.34 27.672 261.26 22.808 260.492 22.424C259.148 21.656 250.892 30.104 254.348 34.776C258.124 39.768 266.38 43.032 263.372 48.856C261.196 53.08 257.676 56.216 252.428 56.216C248.204 56.216 244.108 54.232 240.523 49.112C238.667 46.488 238.923 45.528 240.139 44.888ZM288.025 23.384C287.577 22.488 286.937 21.272 286.553 20.184C285.913 18.648 285.977 17.816 287.385 17.048C293.657 13.464 307.353 11.224 311.385 22.424C314.969 32.344 308.057 49.496 290.201 56.152C288.537 56.792 287.193 56.728 285.721 55.64C284.313 54.488 283.353 53.592 282.073 52.248C280.793 50.904 280.153 50.072 281.049 46.744C282.841 40.152 285.593 30.936 288.025 23.384ZM289.177 47.64C301.529 41.496 304.857 29.208 303.513 25.24C302.809 23.32 300.441 21.976 297.113 23.192C294.297 30.808 291.609 39.256 289.177 47.64ZM318.841 22.616C318.137 21.4 317.561 19.544 317.305 18.392C317.049 17.112 317.369 16.856 318.393 16.6C322.809 15.32 331.001 14.36 336.889 14.168C338.233 14.104 339.065 14.744 339.385 15.96C339.833 17.304 340.025 18.264 340.153 19.544C340.217 20.952 339.833 21.464 338.425 21.592C335.481 21.912 331.833 22.36 328.377 22.936C327.417 25.56 326.265 28.568 325.113 31.704C326.713 31.448 328.312 31.32 330.041 31.256C331.449 31.192 332.217 31.512 332.665 32.728C333.113 34.008 333.433 35.16 333.561 36.44C333.753 37.848 333.369 38.232 331.961 38.552C328.697 39.192 325.049 39.896 321.849 40.728C321.145 42.712 320.441 44.696 319.865 46.552C322.489 46.04 324.793 45.72 327.545 45.528C328.953 45.4 329.785 45.72 330.233 46.936C330.745 48.28 331.065 49.432 331.193 50.712C331.385 52.12 331.065 52.568 329.657 52.888C326.009 53.72 321.913 54.616 318.457 55.576C316.536 56.088 315.577 55.832 314.424 54.872C313.593 54.168 312.761 53.336 311.864 52.12C311.16 51.16 310.712 49.752 311.096 47.96C312.377 42.264 316.025 31.064 318.841 22.616Z" fill="#353534"/>
</svg>
