<svg width="468" height="210" viewBox="0 0 468 210" fill="none" xmlns="http://www.w3.org/2000/svg">
<path d="M24.0991 123.485C44.8911 123.571 65.5061 125.707 86.2774 126.474C103.883 127.136 121.537 126.923 139.164 127.3C156.861 127.682 174.553 128.333 192.236 128.912C201.705 129.22 211.156 129.58 220.62 129.959C233.462 130.475 247.122 132.719 259.894 129.856C271.546 127.252 282.232 112.516 282.78 97.6214C283.307 83.0126 276.826 66.2993 264.769 62.4299C252.197 58.3796 238.797 59.062 225.785 58.5339C216.321 58.1547 206.856 57.7934 197.401 57.4866C179.703 56.9069 161.992 56.7212 144.268 56.7139C126.615 56.7119 108.912 56.5985 91.2538 57.6551C80.2852 58.3159 69.3295 58.9955 58.3662 60.3747C53.4178 61.0041 48.4501 61.9013 43.4977 62.3869C47.3706 62.0028 39.0726 62.4977 38.1548 62.539C34.9269 62.7005 31.6835 62.8788 28.4544 63.0581C15.8557 63.7266 2.85975 74.0414 2.20969 91.5313C1.66159 107.216 10.58 123.441 24.0991 123.485Z" fill="#F7A400"/>
<path d="M54.764 88.128C54.38 89.28 53.932 89.728 52.588 89.536C49.004 89.024 47.596 86.912 47.66 83.968C47.724 81.728 48.236 78.592 47.276 78.272C45.356 77.632 40.748 84.224 37.676 91.52C35.052 97.728 34.092 105.536 36.332 106.56C38.188 107.392 41.132 103.808 43.308 99.328C40.044 99.52 38.508 97.92 38.124 94.336C37.996 93.184 38.572 92.864 39.66 92.608C41.836 92.032 45.484 91.392 47.468 91.136C49.324 90.88 50.284 91.2 51.116 92.352C51.692 93.184 52.204 94.144 52.588 94.912C53.292 96.448 53.228 97.408 52.524 99.072C50.092 104.96 46.828 109.44 43.436 111.808C41.26 113.344 38.828 113.856 36.396 113.408C34.156 113.024 32.172 112.192 30.38 110.976C29.036 110.016 27.628 108.224 27.116 106.24C24.62 97.024 31.34 79.36 40.876 72.32C42.86 70.848 45.292 70.72 47.084 70.976C49.516 71.296 52.396 72.512 53.996 74.112C55.532 75.648 55.98 77.376 56.044 79.68C56.108 82.048 55.404 86.144 54.764 88.128ZM73.005 102.08C68.909 102.784 64.301 103.552 61.037 104.448C59.629 107.072 58.349 109.568 57.261 111.744C56.557 113.088 56.045 113.152 54.829 112.64C53.741 112.192 52.653 111.552 51.757 110.528C50.861 109.504 50.861 108.608 51.629 106.816C55.853 97.408 64.237 81.792 69.677 73.28C70.701 71.68 71.853 70.848 74.093 70.912C76.717 70.976 80.173 71.872 82.221 72.704C83.757 73.344 83.949 74.304 83.693 75.904C82.541 83.968 81.069 99.392 80.237 111.232C80.173 112.704 79.789 113.088 78.381 113.088C76.973 113.088 75.309 112.832 74.413 112.512C73.133 112.064 72.749 111.232 72.749 109.312C72.749 107.264 72.877 104.832 73.005 102.08ZM65.965 95.168C68.461 94.784 71.021 94.4 73.453 94.208C73.837 89.152 74.349 83.904 74.925 79.36C72.429 83.584 69.165 89.344 65.965 95.168ZM103.502 96.96C105.166 90.112 108.302 79.36 110.478 73.216C111.054 71.616 111.886 71.36 113.294 71.808C114.254 72.128 115.342 72.64 116.174 73.152C117.582 74.048 118.03 74.816 117.39 76.864C114.51 86.016 109.774 101.248 107.15 111.104C106.766 112.64 105.742 112.96 104.206 112.576C103.054 112.256 101.646 111.68 100.622 111.104C99.47 110.464 98.83 109.568 98.382 107.84C97.294 103.04 96.526 96.64 96.014 88.384C94.414 93.44 91.662 102.464 89.102 111.488C88.718 112.832 88.078 113.216 86.67 112.768C85.774 112.448 84.622 111.872 83.918 111.424C82.51 110.528 82.126 109.888 82.702 107.136C84.11 100.608 89.614 82.496 92.75 73.344C93.198 72.128 93.838 71.68 94.798 71.68C95.822 71.68 98.318 72.576 100.174 73.536C101.646 74.304 101.966 75.008 102.094 76.736C102.478 82.752 102.926 90.112 103.502 96.96ZM132.63 102.08C128.534 102.784 123.926 103.552 120.662 104.448C119.254 107.072 117.974 109.568 116.886 111.744C116.182 113.088 115.67 113.152 114.454 112.64C113.366 112.192 112.278 111.552 111.382 110.528C110.486 109.504 110.486 108.608 111.254 106.816C115.478 97.408 123.862 81.792 129.302 73.28C130.326 71.68 131.478 70.848 133.718 70.912C136.342 70.976 139.798 71.872 141.846 72.704C143.382 73.344 143.574 74.304 143.318 75.904C142.166 83.968 140.694 99.392 139.862 111.232C139.798 112.704 139.414 113.088 138.006 113.088C136.598 113.088 134.934 112.832 134.038 112.512C132.758 112.064 132.374 111.232 132.374 109.312C132.374 107.264 132.502 104.832 132.63 102.08ZM125.59 95.168C128.086 94.784 130.646 94.4 133.078 94.208C133.462 89.152 133.974 83.904 134.55 79.36C132.054 83.584 128.79 89.344 125.59 95.168ZM150.088 80.384C149.64 79.488 149 78.272 148.616 77.184C147.976 75.648 148.04 74.816 149.448 74.048C155.72 70.464 169.416 68.224 173.448 79.424C177.032 89.344 170.12 106.496 152.264 113.152C150.6 113.792 149.256 113.728 147.784 112.64C146.376 111.488 145.416 110.592 144.136 109.248C142.855 107.904 142.215 107.072 143.111 103.744C144.904 97.152 147.656 87.936 150.088 80.384ZM151.24 104.64C163.592 98.496 166.92 86.208 165.576 82.24C164.872 80.32 162.503 78.976 159.176 80.192C156.36 87.808 153.672 96.256 151.24 104.64ZM200.934 74.432C202.662 76.16 203.366 78.144 203.494 80.576C203.942 89.28 200.358 103.232 193.126 110.336C190.694 112.704 188.07 113.344 184.934 112.96C182.885 112.704 180.454 111.936 178.79 110.784C177.51 109.888 176.102 108.16 175.526 106.176C172.773 97.024 178.342 80.768 187.238 73.408C189.094 71.872 191.974 71.104 194.022 71.424C196.71 71.808 199.462 72.96 200.934 74.432ZM194.47 78.656C192.486 78.016 187.942 85.12 185.702 91.136C183.462 97.088 182.246 105.216 184.614 106.176C186.918 107.136 190.566 101.568 193.126 93.952C195.11 88.064 196.518 79.296 194.47 78.656ZM211.91 99.84C210.566 103.872 209.286 107.904 208.198 111.616C207.814 112.96 207.366 113.216 206.022 112.896C204.678 112.512 203.462 112.064 202.566 111.424C201.413 110.592 201.285 109.696 201.605 107.904C202.822 102.016 206.214 90.816 209.158 81.6C208.646 80.64 208.006 79.424 207.622 78.4C207.046 76.8 207.11 76.032 208.454 75.264C214.726 71.744 226.758 68.736 230.662 73.408C232.262 75.328 233.606 78.016 234.054 81.408C234.502 84.992 232.838 87.936 230.342 90.368C227.782 92.864 224.134 95.36 219.974 97.408C222.022 100.864 225.414 105.536 227.846 108.416C228.87 109.568 228.55 110.208 227.654 110.976C226.566 111.872 225.99 112 224.902 112.32C223.686 112.704 222.15 112.768 220.422 111.104C217.99 108.928 214.342 104.064 211.91 99.84ZM218.758 80.832C217.542 83.84 216.262 87.488 214.854 91.392C222.406 88.512 227.334 82.688 226.822 80.64C226.502 79.168 222.854 78.848 218.758 80.832ZM249.505 102.08C245.409 102.784 240.801 103.552 237.537 104.448C236.129 107.072 234.849 109.568 233.761 111.744C233.057 113.088 232.545 113.152 231.329 112.64C230.241 112.192 229.153 111.552 228.257 110.528C227.361 109.504 227.361 108.608 228.129 106.816C232.353 97.408 240.737 81.792 246.177 73.28C247.201 71.68 248.353 70.848 250.593 70.912C253.217 70.976 256.673 71.872 258.721 72.704C260.257 73.344 260.449 74.304 260.193 75.904C259.041 83.968 257.569 99.392 256.737 111.232C256.673 112.704 256.289 113.088 254.881 113.088C253.473 113.088 251.809 112.832 250.913 112.512C249.633 112.064 249.249 111.232 249.249 109.312C249.249 107.264 249.377 104.832 249.505 102.08ZM242.465 95.168C244.961 94.784 247.521 94.4 249.953 94.208C250.337 89.152 250.849 83.904 251.425 79.36C248.929 83.584 245.665 89.344 242.465 95.168Z" fill="white"/>
<path d="M33.312 43.992C35.296 44.696 34.976 46.168 33.888 48.28C32.672 50.712 30.624 52.952 28.96 54.424C27.168 55.96 24.16 56.856 21.664 56.6C19.04 56.344 16.928 55.384 15.392 54.488C14.048 53.656 12.448 52.056 11.872 50.136C9.12 41.304 15.52 23.768 24.48 16.088C26.848 14.104 29.088 13.656 30.944 13.848C33.696 14.104 36.96 15.512 38.56 16.984C40.352 18.648 40.672 20.44 40.608 22.68C40.544 25.24 39.84 28.888 39.008 30.936C38.624 31.96 38.304 32.664 36.64 32.28C33.312 31.512 32.16 29.848 32.032 26.84C31.968 24.664 32.992 21.72 31.584 21.144C29.728 20.376 24.544 28.952 22.368 34.84C20 41.176 18.976 48.536 21.216 49.368C22.432 49.816 24.096 48.664 26.72 45.72C28.512 43.736 30.88 43.16 33.312 43.992ZM65.246 17.432C66.974 19.16 67.678 21.144 67.806 23.576C68.254 32.28 64.67 46.232 57.438 53.336C55.006 55.704 52.382 56.344 49.246 55.96C47.198 55.704 44.766 54.936 43.102 53.784C41.822 52.888 40.414 51.16 39.838 49.176C37.086 40.024 42.654 23.768 51.55 16.408C53.406 14.872 56.286 14.104 58.334 14.424C61.022 14.808 63.774 15.96 65.246 17.432ZM58.782 21.656C56.798 21.016 52.254 28.12 50.014 34.136C47.774 40.088 46.558 48.216 48.926 49.176C51.23 50.136 54.878 44.568 57.438 36.952C59.422 31.064 60.83 22.296 58.782 21.656ZM87.127 39.96C88.791 33.112 91.927 22.36 94.103 16.216C94.679 14.616 95.511 14.36 96.919 14.808C97.879 15.128 98.967 15.64 99.799 16.152C101.207 17.048 101.655 17.816 101.015 19.864C98.135 29.016 93.399 44.248 90.775 54.104C90.391 55.64 89.367 55.96 87.831 55.576C86.679 55.256 85.271 54.68 84.247 54.104C83.095 53.464 82.455 52.568 82.007 50.84C80.919 46.04 80.151 39.64 79.639 31.384C78.039 36.44 75.287 45.464 72.727 54.488C72.343 55.832 71.703 56.216 70.295 55.768C69.399 55.448 68.247 54.872 67.543 54.424C66.135 53.528 65.751 52.888 66.327 50.136C67.735 43.608 73.239 25.496 76.375 16.344C76.823 15.128 77.463 14.68 78.423 14.68C79.447 14.68 81.943 15.576 83.799 16.536C85.271 17.304 85.591 18.008 85.719 19.736C86.103 25.752 86.551 33.112 87.127 39.96ZM124.746 17.432C126.474 19.16 127.178 21.144 127.306 23.576C127.754 32.28 124.17 46.232 116.938 53.336C114.506 55.704 111.882 56.344 108.746 55.96C106.698 55.704 104.266 54.936 102.602 53.784C101.322 52.888 99.914 51.16 99.338 49.176C96.586 40.024 102.154 23.768 111.05 16.408C112.906 14.872 115.786 14.104 117.834 14.424C120.522 14.808 123.274 15.96 124.746 17.432ZM118.282 21.656C116.298 21.016 111.754 28.12 109.514 34.136C107.274 40.088 106.058 48.216 108.426 49.176C110.73 50.136 114.378 44.568 116.938 36.952C118.922 31.064 120.33 22.296 118.282 21.656ZM149.187 43.992C151.171 44.696 150.851 46.168 149.763 48.28C148.547 50.712 146.499 52.952 144.835 54.424C143.043 55.96 140.035 56.856 137.539 56.6C134.915 56.344 132.803 55.384 131.267 54.488C129.923 53.656 128.323 52.056 127.747 50.136C124.995 41.304 131.395 23.768 140.355 16.088C142.723 14.104 144.963 13.656 146.819 13.848C149.571 14.104 152.835 15.512 154.435 16.984C156.227 18.648 156.547 20.44 156.483 22.68C156.419 25.24 155.715 28.888 154.883 30.936C154.499 31.96 154.179 32.664 152.515 32.28C149.187 31.512 148.035 29.848 147.907 26.84C147.843 24.664 148.867 21.72 147.459 21.144C145.603 20.376 140.419 28.952 138.243 34.84C135.875 41.176 134.851 48.536 137.091 49.368C138.307 49.816 139.971 48.664 142.595 45.72C144.387 43.736 146.755 43.16 149.187 43.992ZM161.466 22.616C160.762 21.4 160.186 19.544 159.93 18.392C159.674 17.112 159.994 16.856 161.018 16.6C165.434 15.32 173.626 14.36 179.514 14.168C180.858 14.104 181.69 14.744 182.01 15.96C182.458 17.304 182.65 18.264 182.778 19.544C182.842 20.952 182.458 21.464 181.05 21.592C178.106 21.912 174.458 22.36 171.002 22.936C170.042 25.56 168.89 28.568 167.738 31.704C169.338 31.448 170.938 31.32 172.666 31.256C174.074 31.192 174.842 31.512 175.29 32.728C175.738 34.008 176.058 35.16 176.186 36.44C176.378 37.848 175.994 38.232 174.586 38.552C171.322 39.192 167.674 39.896 164.474 40.728C163.77 42.712 163.066 44.696 162.49 46.552C165.114 46.04 167.418 45.72 170.17 45.528C171.578 45.4 172.41 45.72 172.858 46.936C173.37 48.28 173.69 49.432 173.818 50.712C174.01 52.12 173.69 52.568 172.282 52.888C168.634 53.72 164.538 54.616 161.082 55.576C159.161 56.088 158.202 55.832 157.049 54.872C156.218 54.168 155.386 53.336 154.489 52.12C153.785 51.16 153.337 49.752 153.721 47.96C155.002 42.264 158.65 31.064 161.466 22.616ZM212.065 39.96C213.729 33.112 216.865 22.36 219.041 16.216C219.617 14.616 220.449 14.36 221.857 14.808C222.817 15.128 223.905 15.64 224.737 16.152C226.145 17.048 226.593 17.816 225.953 19.864C223.073 29.016 218.337 44.248 215.713 54.104C215.329 55.64 214.305 55.96 212.769 55.576C211.617 55.256 210.208 54.68 209.185 54.104C208.033 53.464 207.393 52.568 206.945 50.84C205.857 46.04 205.089 39.64 204.577 31.384C202.977 36.44 200.225 45.464 197.665 54.488C197.281 55.832 196.641 56.216 195.233 55.768C194.337 55.448 193.184 54.872 192.48 54.424C191.072 53.528 190.688 52.888 191.264 50.136C192.672 43.608 198.177 25.496 201.312 16.344C201.76 15.128 202.401 14.68 203.361 14.68C204.385 14.68 206.881 15.576 208.737 16.536C210.208 17.304 210.529 18.008 210.657 19.736C211.041 25.752 211.489 33.112 212.065 39.96ZM224.015 49.56C221.519 42.328 227.279 27.608 231.631 16.472C232.207 14.936 233.039 14.744 234.447 15.256C235.791 15.768 237.263 16.536 238.287 17.56C239.567 18.776 239.759 20.12 239.055 21.848C235.535 30.872 229.007 47.896 232.655 49.112C237.007 50.584 243.599 26.712 246.479 16.088C246.927 14.488 247.823 14.232 249.231 14.68C250.639 15.128 252.367 16.088 253.519 16.984C254.799 18.008 254.799 18.52 254.415 19.992C249.743 37.4 245.647 50.264 239.567 54.424C237.455 55.896 235.535 56.152 232.975 56.024C230.543 55.896 228.495 55 226.959 53.848C225.743 52.952 224.655 51.48 224.015 49.56ZM258.466 22.616C257.762 21.4 257.186 19.544 256.93 18.392C256.674 17.112 256.994 16.856 258.018 16.6C262.434 15.32 270.626 14.36 276.514 14.168C277.858 14.104 278.69 14.744 279.01 15.96C279.458 17.304 279.65 18.264 279.778 19.544C279.842 20.952 279.458 21.464 278.05 21.592C275.106 21.912 271.458 22.36 268.002 22.936C267.042 25.56 265.89 28.568 264.738 31.704C266.338 31.448 267.938 31.32 269.666 31.256C271.074 31.192 271.842 31.512 272.29 32.728C272.738 34.008 273.058 35.16 273.186 36.44C273.378 37.848 272.994 38.232 271.586 38.552C268.322 39.192 264.674 39.896 261.474 40.728C260.77 42.712 260.066 44.696 259.49 46.552C262.114 46.04 264.418 45.72 267.17 45.528C268.578 45.4 269.41 45.72 269.858 46.936C270.37 48.28 270.69 49.432 270.818 50.712C271.01 52.12 270.69 52.568 269.282 52.888C265.634 53.72 261.538 54.616 258.082 55.576C256.161 56.088 255.202 55.832 254.049 54.872C253.218 54.168 252.386 53.336 251.489 52.12C250.785 51.16 250.337 49.752 250.721 47.96C252.002 42.264 255.65 31.064 258.466 22.616ZM273.139 44.888C275.123 43.864 277.876 44.12 279.22 45.272C282.996 48.6 286.644 49.688 288.244 48.28C290.1 46.744 283.444 42.712 280.052 38.808C277.684 36.056 276.532 31.832 278.644 27.16C280.436 23 284.404 18.2 288.244 15.768C289.716 14.872 292.148 13.912 294.836 14.872C296.884 15.64 299.188 17.112 300.404 18.52C302.196 20.504 302.004 22.68 301.812 24.408C301.364 27.352 299.764 32.344 298.42 34.968C297.78 36.184 297.14 36.44 295.988 35.928C292.724 34.52 291.252 32.536 291.828 29.976C292.34 27.672 294.26 22.808 293.492 22.424C292.148 21.656 283.892 30.104 287.348 34.776C291.124 39.768 299.38 43.032 296.372 48.856C294.196 53.08 290.676 56.216 285.428 56.216C281.204 56.216 277.108 54.232 273.523 49.112C271.667 46.488 271.923 45.528 273.139 44.888ZM328.208 21.208C326.16 21.4 323.472 21.656 321.232 21.912C317.776 31.896 313.744 44.824 310.928 54.872C310.544 56.216 310.096 56.472 308.752 56.088C307.408 55.704 305.936 55.064 304.784 54.232C303.632 53.4 303.504 52.44 303.888 50.648C305.232 43.928 308.88 31.384 311.568 23.256C310.032 23.512 308.496 23.832 307.536 24.024C306.192 24.28 305.488 24.152 304.784 23C304.016 21.72 303.248 19.608 302.992 18.392C302.736 17.112 303.184 16.792 304.208 16.536C310.224 15.192 319.696 14.232 325.648 14.104C327.12 14.104 327.632 14.488 328.08 15.128C328.912 16.408 329.488 18.136 329.68 19.352C329.872 20.696 329.744 21.08 328.208 21.208ZM335.347 42.84C334.003 46.872 332.723 50.904 331.635 54.616C331.251 55.96 330.803 56.216 329.459 55.896C328.115 55.512 326.899 55.064 326.003 54.424C324.851 53.592 324.723 52.696 325.043 50.904C326.259 45.016 329.651 33.816 332.595 24.6C332.083 23.64 331.443 22.424 331.059 21.4C330.483 19.8 330.547 19.032 331.891 18.264C338.163 14.744 350.195 11.736 354.099 16.408C355.699 18.328 357.043 21.016 357.491 24.408C357.939 27.992 356.275 30.936 353.779 33.368C351.219 35.864 347.571 38.36 343.411 40.408C345.459 43.864 348.851 48.536 351.283 51.416C352.307 52.568 351.987 53.208 351.091 53.976C350.003 54.872 349.427 55 348.339 55.32C347.123 55.704 345.587 55.768 343.859 54.104C341.427 51.928 337.779 47.064 335.347 42.84ZM342.195 23.832C340.979 26.84 339.699 30.488 338.291 34.392C345.843 31.512 350.771 25.688 350.259 23.64C349.939 22.168 346.291 21.848 342.195 23.832ZM372.943 45.08C368.847 45.784 364.239 46.552 360.975 47.448C359.567 50.072 358.286 52.568 357.199 54.744C356.495 56.088 355.983 56.152 354.767 55.64C353.678 55.192 352.59 54.552 351.694 53.528C350.798 52.504 350.798 51.608 351.566 49.816C355.791 40.408 364.175 24.792 369.615 16.28C370.639 14.68 371.791 13.848 374.031 13.912C376.655 13.976 380.111 14.872 382.159 15.704C383.695 16.344 383.887 17.304 383.631 18.904C382.479 26.968 381.007 42.392 380.175 54.232C380.111 55.704 379.727 56.088 378.319 56.088C376.911 56.088 375.247 55.832 374.351 55.512C373.071 55.064 372.687 54.232 372.687 52.312C372.687 50.264 372.815 47.832 372.943 45.08ZM365.903 38.168C368.399 37.784 370.958 37.4 373.391 37.208C373.775 32.152 374.287 26.904 374.863 22.36C372.367 26.584 369.103 32.344 365.903 38.168Z" fill="#353534"/>
<path d="M306.4 78.384C305.952 77.488 305.312 76.272 304.928 75.184C304.288 73.648 304.352 72.816 305.76 72.048C312.032 68.464 325.728 66.224 329.76 77.424C333.344 87.344 326.432 104.496 308.576 111.152C306.912 111.792 305.568 111.728 304.096 110.64C302.688 109.488 301.728 108.592 300.448 107.248C299.168 105.904 298.528 105.072 299.424 101.744C301.216 95.152 303.968 85.936 306.4 78.384ZM307.552 102.64C319.904 96.496 323.232 84.208 321.888 80.24C321.184 78.32 318.816 76.976 315.488 78.192C312.672 85.808 309.984 94.256 307.552 102.64ZM337.216 77.616C336.512 76.4 335.936 74.544 335.68 73.392C335.424 72.112 335.744 71.856 336.768 71.6C341.184 70.32 349.376 69.36 355.264 69.168C356.608 69.104 357.44 69.744 357.76 70.96C358.208 72.304 358.4 73.264 358.528 74.544C358.592 75.952 358.208 76.464 356.8 76.592C353.856 76.912 350.208 77.36 346.752 77.936C345.792 80.56 344.64 83.568 343.488 86.704C345.088 86.448 346.688 86.32 348.416 86.256C349.824 86.192 350.592 86.512 351.04 87.728C351.488 89.008 351.808 90.16 351.936 91.44C352.128 92.848 351.744 93.232 350.336 93.552C347.072 94.192 343.424 94.896 340.224 95.728C339.52 97.712 338.816 99.696 338.24 101.552C340.864 101.04 343.168 100.72 345.92 100.528C347.328 100.4 348.16 100.72 348.608 101.936C349.12 103.28 349.44 104.432 349.568 105.712C349.76 107.12 349.44 107.568 348.032 107.888C344.384 108.72 340.288 109.616 336.832 110.576C334.911 111.088 333.952 110.832 332.799 109.872C331.968 109.168 331.136 108.336 330.239 107.12C329.535 106.16 329.087 104.752 329.471 102.96C330.752 97.264 334.4 86.064 337.216 77.616ZM385.639 107.824C381.991 108.656 378.215 109.488 374.759 110.512C372.583 111.152 371.431 110.896 370.343 109.936C369.447 109.168 368.678 108.4 367.782 107.12C366.951 105.904 366.63 104.88 367.014 103.216C368.87 95.28 373.927 79.088 377.383 70.512C378.023 68.976 378.855 68.784 380.199 69.232C381.607 69.68 383.591 70.576 384.807 71.536C386.023 72.496 386.151 73.136 385.575 74.608C382.887 81.648 379.175 92.208 376.231 101.424C378.727 100.912 380.903 100.656 383.527 100.464C384.935 100.336 385.703 100.592 386.215 101.872C386.727 103.152 387.047 104.368 387.175 105.648C387.431 107.056 387.367 107.44 385.639 107.824ZM408.13 100.08C404.034 100.784 399.426 101.552 396.162 102.448C394.754 105.072 393.474 107.568 392.386 109.744C391.682 111.088 391.17 111.152 389.954 110.64C388.866 110.192 387.778 109.552 386.882 108.528C385.986 107.504 385.986 106.608 386.754 104.816C390.978 95.408 399.362 79.792 404.802 71.28C405.826 69.68 406.978 68.848 409.218 68.912C411.842 68.976 415.298 69.872 417.346 70.704C418.882 71.344 419.074 72.304 418.818 73.904C417.666 81.968 416.194 97.392 415.362 109.232C415.298 110.704 414.914 111.088 413.506 111.088C412.098 111.088 410.434 110.832 409.538 110.512C408.258 110.064 407.874 109.232 407.874 107.312C407.874 105.264 408.002 102.832 408.13 100.08ZM401.09 93.168C403.586 92.784 406.146 92.4 408.578 92.208C408.962 87.152 409.474 81.904 410.05 77.36C407.554 81.584 404.29 87.344 401.09 93.168Z" fill="#353534"/>
<path d="M29.728 141.248C26.72 149.44 21.344 166.4 18.848 175.552C18.464 176.96 18.016 177.216 16.672 176.832C15.328 176.448 13.984 175.936 12.832 175.104C11.744 174.336 11.488 173.376 11.936 171.52C13.088 166.336 16.48 154.24 19.168 145.984C17.312 144.768 16.8 144.384 17.824 142.656C18.912 140.736 20.576 138.496 21.728 137.024C22.816 135.68 23.392 135.488 24.8 135.936C26.144 136.384 27.616 137.088 28.896 138.176C30.112 139.2 30.304 139.712 29.728 141.248ZM44.9945 156.224C46.2745 156.608 47.4905 157.248 48.4505 158.272C52.4185 162.368 51.4585 167.552 48.5785 171.456C45.1865 176 40.9625 177.344 36.4185 177.408C32.8345 177.408 28.9945 176 25.5385 171.968C23.4905 169.6 24.0025 168.576 25.0905 167.872C26.8825 166.592 29.4425 167.04 30.9145 168C35.2025 170.816 38.1465 170.304 40.7705 167.552C43.2665 164.928 43.1385 161.728 42.2425 160.576C41.3465 159.424 40.0665 159.04 37.8905 159.424C35.4585 159.872 33.4745 158.976 32.2585 156.032C31.7465 154.816 31.9385 153.856 33.1545 153.408C42.4345 150.016 47.2345 146.816 47.2345 144.256C47.2345 143.488 46.8505 143.168 46.1465 143.168C44.8665 143.168 42.8825 144.32 41.3465 145.344C38.9145 147.008 35.5865 146.368 33.7945 144.64C32.8985 143.744 33.0265 142.784 33.7945 141.824C35.7785 139.328 39.6185 136.576 43.3305 135.68C46.0185 135.04 49.7945 134.848 52.7385 139.328C56.0025 144.32 54.2745 149.376 51.5865 152C49.8585 153.664 47.6185 155.072 44.9945 156.224ZM57.6885 145.344C57.6885 141.056 62.0405 135.552 67.4165 135.552C71.5765 135.552 76.4405 137.664 76.4405 142.912C76.4405 150.016 71.8965 152.96 67.4805 152.96C62.5525 152.96 57.6885 150.848 57.6885 145.344ZM69.9765 142.336C69.9765 140.928 69.4005 140.224 68.4405 140.224C65.9445 140.224 64.2805 143.872 64.2805 146.624C64.2805 147.968 64.9205 148.544 66.0085 148.544C68.5685 148.544 69.9765 144.512 69.9765 142.336ZM95.7155 143.616C95.0115 142.4 94.4355 140.544 94.1795 139.392C93.9235 138.112 94.2435 137.856 95.2675 137.6C99.6835 136.32 107.876 135.36 113.764 135.168C115.108 135.104 115.94 135.744 116.26 136.96C116.708 138.304 116.9 139.264 117.028 140.544C117.092 141.952 116.708 142.464 115.3 142.592C112.356 142.912 108.708 143.36 105.252 143.936C104.292 146.56 103.14 149.568 101.988 152.704C103.588 152.448 105.188 152.32 106.916 152.256C108.324 152.192 109.092 152.512 109.54 153.728C109.988 155.008 110.308 156.16 110.436 157.44C110.628 158.848 110.244 159.232 108.836 159.552C105.572 160.192 101.924 160.896 98.7235 161.728C98.0195 163.712 97.3155 165.696 96.7395 167.552C99.3635 167.04 101.668 166.72 104.42 166.528C105.828 166.4 106.66 166.72 107.108 167.936C107.62 169.28 107.94 170.432 108.068 171.712C108.26 173.12 107.94 173.568 106.532 173.888C102.884 174.72 98.7875 175.616 95.3315 176.576C93.4115 177.088 92.4515 176.832 91.2995 175.872C90.4675 175.168 89.6355 174.336 88.7395 173.12C88.0355 172.16 87.5875 170.752 87.9715 168.96C89.2515 163.264 92.8995 152.064 95.7155 143.616ZM120.213 144.384C119.765 143.488 119.125 142.272 118.741 141.184C118.101 139.648 118.165 138.816 119.573 138.048C125.845 134.464 139.541 132.224 143.573 143.424C147.157 153.344 140.245 170.496 122.389 177.152C120.725 177.792 119.381 177.728 117.909 176.64C116.501 175.488 115.541 174.592 114.261 173.248C112.98 171.904 112.34 171.072 113.236 167.744C115.029 161.152 117.781 151.936 120.213 144.384ZM121.365 168.64C133.717 162.496 137.045 150.208 135.701 146.24C134.997 144.32 132.628 142.976 129.301 144.192C126.485 151.808 123.797 160.256 121.365 168.64ZM160.101 138.304C161.381 139.328 161.509 139.904 160.997 141.376C158.053 149.312 152.741 166.336 150.117 175.68C149.733 177.088 149.221 177.344 147.877 176.96C146.533 176.576 144.997 175.872 143.909 175.104C142.757 174.272 142.565 173.44 142.949 171.584C144.485 164.288 149.925 145.216 152.741 137.216C153.317 135.68 154.149 135.424 155.557 135.872C156.965 136.32 158.949 137.408 160.101 138.304ZM179.75 164.992C181.734 165.696 181.414 167.168 180.326 169.28C179.11 171.712 177.062 173.952 175.398 175.424C173.606 176.96 170.598 177.856 168.102 177.6C165.478 177.344 163.366 176.384 161.83 175.488C160.486 174.656 158.886 173.056 158.309 171.136C155.557 162.304 161.958 144.768 170.918 137.088C173.286 135.104 175.526 134.656 177.382 134.848C180.134 135.104 183.398 136.512 184.998 137.984C186.79 139.648 187.11 141.44 187.046 143.68C186.982 146.24 186.278 149.888 185.446 151.936C185.062 152.96 184.742 153.664 183.078 153.28C179.75 152.512 178.598 150.848 178.47 147.84C178.406 145.664 179.43 142.72 178.022 142.144C176.166 141.376 170.982 149.952 168.806 155.84C166.438 162.176 165.414 169.536 167.654 170.368C168.87 170.816 170.534 169.664 173.158 166.72C174.95 164.736 177.318 164.16 179.75 164.992ZM200.789 138.304C202.069 139.328 202.197 139.904 201.685 141.376C198.741 149.312 193.429 166.336 190.805 175.68C190.421 177.088 189.909 177.344 188.565 176.96C187.221 176.576 185.684 175.872 184.596 175.104C183.444 174.272 183.252 173.44 183.636 171.584C185.172 164.288 190.613 145.216 193.429 137.216C194.005 135.68 194.837 135.424 196.245 135.872C197.653 136.32 199.637 137.408 200.789 138.304ZM225.121 138.432C226.849 140.16 227.553 142.144 227.681 144.576C228.129 153.28 224.545 167.232 217.313 174.336C214.881 176.704 212.257 177.344 209.121 176.96C207.073 176.704 204.641 175.936 202.977 174.784C201.697 173.888 200.289 172.16 199.713 170.176C196.961 161.024 202.529 144.768 211.425 137.408C213.281 135.872 216.161 135.104 218.209 135.424C220.897 135.808 223.649 136.96 225.121 138.432ZM218.657 142.656C216.673 142.016 212.129 149.12 209.889 155.136C207.649 161.088 206.433 169.216 208.801 170.176C211.105 171.136 214.753 165.568 217.313 157.952C219.297 152.064 220.705 143.296 218.657 142.656ZM221.985 132.16C220.449 132.48 219.105 132.352 218.209 131.84C216.737 131.008 215.457 129.536 215.457 128.768C215.457 128.256 215.649 128 216.609 127.68C221.217 126.144 225.569 124.224 230.049 121.984C231.201 121.408 231.713 121.664 232.161 122.56C232.545 123.328 232.801 124.608 232.801 125.76C232.801 126.656 232.481 127.616 231.457 128.32C229.025 129.984 224.993 131.52 221.985 132.16ZM247.002 160.96C248.666 154.112 251.802 143.36 253.978 137.216C254.554 135.616 255.386 135.36 256.794 135.808C257.754 136.128 258.842 136.64 259.674 137.152C261.082 138.048 261.53 138.816 260.89 140.864C258.01 150.016 253.274 165.248 250.65 175.104C250.266 176.64 249.242 176.96 247.706 176.576C246.554 176.256 245.146 175.68 244.122 175.104C242.97 174.464 242.33 173.568 241.882 171.84C240.794 167.04 240.026 160.64 239.514 152.384C237.914 157.44 235.162 166.464 232.602 175.488C232.218 176.832 231.578 177.216 230.17 176.768C229.274 176.448 228.122 175.872 227.418 175.424C226.01 174.528 225.626 173.888 226.202 171.136C227.61 164.608 233.114 146.496 236.25 137.344C236.698 136.128 237.338 135.68 238.298 135.68C239.322 135.68 241.818 136.576 243.674 137.536C245.146 138.304 245.466 139.008 245.594 140.736C245.978 146.752 246.426 154.112 247.002 160.96ZM284.343 169.152C284.087 165.312 284.215 154.88 284.407 149.504C282.423 155.904 278.775 168.128 276.855 175.488C276.407 177.088 275.767 177.408 274.295 176.896C273.527 176.64 272.503 176.128 271.671 175.616C270.071 174.656 269.815 173.568 270.391 170.944C272.183 162.496 277.559 145.152 280.247 137.536C280.823 136.064 281.463 135.552 282.679 135.552C284.407 135.552 287.479 136.576 289.015 137.344C290.999 138.368 291.447 139.136 291.447 141.184L291.383 144.64L291.319 153.216V157.184C294.455 150.784 300.087 141.12 302.839 136.896C303.799 135.424 304.823 135.104 306.487 135.36C307.959 135.616 310.839 136.512 313.207 137.728C314.551 138.432 314.807 139.328 314.231 141.312C311.735 150.016 306.167 167.616 304.055 175.552C303.735 176.576 303.223 177.088 302.519 177.088C301.623 177.088 299.959 176.384 298.999 175.808C297.399 174.848 296.951 173.952 297.591 170.944C298.679 165.888 301.431 156.224 304.055 148.288C300.599 154.432 295.031 164.608 291.191 172.096C290.615 173.248 290.231 173.632 289.527 173.632C288.759 173.632 287.543 173.248 286.327 172.672C285.047 172.096 284.471 171.264 284.343 169.152ZM312.39 170.56C309.894 163.328 315.654 148.608 320.006 137.472C320.582 135.936 321.414 135.744 322.822 136.256C324.166 136.768 325.638 137.536 326.662 138.56C327.942 139.776 328.134 141.12 327.43 142.848C323.91 151.872 317.382 168.896 321.03 170.112C325.382 171.584 331.974 147.712 334.854 137.088C335.302 135.488 336.198 135.232 337.606 135.68C339.014 136.128 340.742 137.088 341.894 137.984C343.174 139.008 343.174 139.52 342.79 140.992C338.118 158.4 334.022 171.264 327.942 175.424C325.83 176.896 323.91 177.152 321.35 177.024C318.918 176.896 316.87 176 315.334 174.848C314.118 173.952 313.03 172.48 312.39 170.56ZM359.002 160.96C360.666 154.112 363.802 143.36 365.978 137.216C366.554 135.616 367.386 135.36 368.794 135.808C369.754 136.128 370.842 136.64 371.674 137.152C373.082 138.048 373.53 138.816 372.89 140.864C370.01 150.016 365.274 165.248 362.65 175.104C362.266 176.64 361.242 176.96 359.706 176.576C358.554 176.256 357.146 175.68 356.122 175.104C354.97 174.464 354.33 173.568 353.882 171.84C352.794 167.04 352.026 160.64 351.514 152.384C349.914 157.44 347.162 166.464 344.602 175.488C344.218 176.832 343.578 177.216 342.17 176.768C341.274 176.448 340.122 175.872 339.418 175.424C338.01 174.528 337.626 173.888 338.202 171.136C339.61 164.608 345.114 146.496 348.25 137.344C348.698 136.128 349.338 135.68 350.298 135.68C351.322 135.68 353.818 136.576 355.674 137.536C357.146 138.304 357.466 139.008 357.594 140.736C357.978 146.752 358.426 154.112 359.002 160.96ZM377.025 144.384C376.577 143.488 375.937 142.272 375.553 141.184C374.913 139.648 374.977 138.816 376.385 138.048C382.657 134.464 396.353 132.224 400.385 143.424C403.969 153.344 397.057 170.496 379.201 177.152C377.537 177.792 376.193 177.728 374.721 176.64C373.313 175.488 372.353 174.592 371.073 173.248C369.793 171.904 369.153 171.072 370.049 167.744C371.841 161.152 374.593 151.936 377.025 144.384ZM378.177 168.64C390.529 162.496 393.857 150.208 392.513 146.24C391.809 144.32 389.441 142.976 386.113 144.192C383.297 151.808 380.609 160.256 378.177 168.64ZM416.914 138.304C418.194 139.328 418.322 139.904 417.81 141.376C414.866 149.312 409.554 166.336 406.93 175.68C406.546 177.088 406.034 177.344 404.69 176.96C403.346 176.576 401.809 175.872 400.721 175.104C399.569 174.272 399.377 173.44 399.761 171.584C401.297 164.288 406.738 145.216 409.554 137.216C410.13 135.68 410.962 135.424 412.37 135.872C413.778 136.32 415.762 137.408 416.914 138.304ZM432.318 166.08C428.222 166.784 423.614 167.552 420.35 168.448C418.942 171.072 417.661 173.568 416.574 175.744C415.87 177.088 415.358 177.152 414.142 176.64C413.053 176.192 411.965 175.552 411.069 174.528C410.173 173.504 410.173 172.608 410.941 170.816C415.166 161.408 423.55 145.792 428.99 137.28C430.014 135.68 431.166 134.848 433.406 134.912C436.03 134.976 439.486 135.872 441.534 136.704C443.07 137.344 443.262 138.304 443.006 139.904C441.854 147.968 440.382 163.392 439.55 175.232C439.486 176.704 439.102 177.088 437.694 177.088C436.286 177.088 434.622 176.832 433.726 176.512C432.446 176.064 432.062 175.232 432.062 173.312C432.062 171.264 432.19 168.832 432.318 166.08ZM425.278 159.168C427.774 158.784 430.333 158.4 432.766 158.208C433.15 153.152 433.662 147.904 434.238 143.36C431.742 147.584 428.478 153.344 425.278 159.168ZM460.951 173.824C457.303 174.656 453.527 175.488 450.071 176.512C447.895 177.152 446.743 176.896 445.655 175.936C444.759 175.168 443.991 174.4 443.095 173.12C442.263 171.904 441.943 170.88 442.327 169.216C444.183 161.28 449.239 145.088 452.695 136.512C453.335 134.976 454.167 134.784 455.511 135.232C456.919 135.68 458.903 136.576 460.119 137.536C461.335 138.496 461.463 139.136 460.887 140.608C458.199 147.648 454.487 158.208 451.543 167.424C454.039 166.912 456.215 166.656 458.839 166.464C460.247 166.336 461.015 166.592 461.527 167.872C462.039 169.152 462.359 170.368 462.487 171.648C462.743 173.056 462.679 173.44 460.951 173.824Z" fill="#353534"/>
</svg>
