<svg width="202" height="34" viewBox="0 0 202 34" fill="none" xmlns="http://www.w3.org/2000/svg">
<g clip-path="url(#clip0_268_160)">
<path d="M37.39 1.64C34.19 0.61 30.2 0 25.88 0C21.56 0 17.58 0.61 14.37 1.64C5.85 4.38 0 10.07 0 16.64C0 25.89 11.59 33.39 25.88 33.39C40.17 33.39 51.76 25.89 51.76 16.64C51.76 10.07 45.9 4.38 37.38 1.64M25.87 26.18C23.74 26.18 21.99 21.99 21.89 16.71C23.17 16.83 24.51 16.89 25.87 16.89C27.23 16.89 28.57 16.83 29.85 16.71C29.75 21.98 28 26.18 25.87 26.18ZM22.16 12.59C22.74 8.89 24.18 6.27 25.87 6.27C27.56 6.27 29 8.89 29.57 12.59C28.38 12.7 27.14 12.76 25.87 12.76C24.6 12.76 23.36 12.7 22.16 12.59ZM31.84 12.31C30.98 6.51 28.63 2.34 25.87 2.34C23.11 2.34 20.76 6.51 19.9 12.31C14.64 11.49 10.97 9.63 10.97 7.44C10.97 4.51 17.64 2.14 25.88 2.14C34.12 2.14 40.79 4.52 40.79 7.44C40.79 9.62 37.12 11.48 31.86 12.31M3.78 16.03C3.78 13.19 4.87 10.54 6.77 8.25C6.75 8.41 6.74 8.57 6.74 8.73C6.74 12.29 12.1 15.32 19.56 16.44C19.56 16.71 19.55 16.98 19.55 17.25C19.55 23.88 21.4 29.5 23.93 31.43C12.64 30.74 3.78 24.11 3.78 16.03ZM27.83 31.43C30.37 29.5 32.21 23.88 32.21 17.25C32.21 16.98 32.21 16.71 32.21 16.44C39.67 15.32 45.03 12.29 45.03 8.73C45.03 8.57 45.02 8.41 45 8.25C46.91 10.54 47.99 13.19 47.99 16.03C47.99 24.11 39.13 30.75 27.84 31.43" fill="white"/>
<path d="M79.37 4.77002H58.87V9.30002H66.44V28.63H71.8V9.30002H79.37V4.77002Z" fill="white"/>
<path d="M93.21 4.06006C86.23 4.06006 80.57 9.72006 80.57 16.7001C80.57 23.6801 86.23 29.3501 93.21 29.3501C100.19 29.3501 105.85 23.6901 105.85 16.7001C105.85 9.71006 100.19 4.06006 93.21 4.06006ZM99.4 20.5201C98.58 22.6101 96.71 24.1801 94.45 24.5801C94.05 24.6501 93.63 24.6901 93.21 24.6901C92.79 24.6901 92.37 24.6501 91.96 24.5801C89.7 24.1801 87.83 22.6201 87.01 20.5201C86.54 19.3401 86.29 18.0401 86.29 16.6901C86.29 15.3401 86.55 14.0501 87.01 12.8601C87.83 10.7701 89.69 9.21006 91.96 8.81006C92.36 8.74006 92.78 8.70006 93.21 8.70006C93.64 8.70006 94.05 8.74006 94.45 8.81006C96.71 9.21006 98.58 10.7801 99.4 12.8601C99.87 14.0401 100.12 15.3401 100.12 16.6901C100.12 18.0401 99.86 19.3401 99.4 20.5201Z" fill="white"/>
<path d="M105.93 4.77002H112.26L118.16 15.03L124.06 4.77002H130.38L120.84 19.8V28.62H115.48V19.8L105.93 4.77002Z" fill="white"/>
<path d="M130.48 16.7001C130.48 9.72006 136.14 4.06006 143.12 4.06006C150.1 4.06006 155.76 9.72006 155.76 16.7001C155.76 23.6801 150.1 29.3401 143.12 29.3401C136.14 29.3401 130.48 23.6801 130.48 16.7001ZM143.12 24.6901C143.55 24.6901 143.96 24.6501 144.36 24.5801C146.62 24.1801 148.49 22.6101 149.31 20.5301C149.78 19.3401 150.03 18.0501 150.03 16.7001C150.03 15.3501 149.78 14.0601 149.31 12.8701C148.49 10.7801 146.63 9.22006 144.36 8.82006C143.96 8.75006 143.54 8.71006 143.12 8.71006C142.7 8.71006 142.28 8.75006 141.88 8.82006C139.62 9.22006 137.75 10.7901 136.92 12.8701C136.46 14.0501 136.2 15.3501 136.2 16.7001C136.2 18.0501 136.46 19.3401 136.92 20.5301C137.74 22.6201 139.61 24.1801 141.88 24.5801C142.28 24.6501 142.7 24.6901 143.12 24.6901Z" fill="white"/>
<path d="M193.92 23.36H183.77L181.82 28.61H175.86L185.52 4.76001H192.19L201.86 28.61H195.89L193.93 23.36H193.92ZM192.36 19.18L188.85 9.76001L185.33 19.18H192.36Z" fill="white"/>
<path d="M177.42 4.77002H156.93V9.30002H164.49V28.63H169.86V9.30002H177.42V4.77002Z" fill="white"/>
</g>
<defs>
<clipPath id="clip0_268_160">
<rect width="201.85" height="33.39" fill="white"/>
</clipPath>
</defs>
</svg>
