<?xml version="1.0" encoding="UTF-8"?>
<svg id="Capa_1" xmlns="http://www.w3.org/2000/svg" version="1.1" viewBox="0 0 441 115">
  <!-- Generator: Adobe Illustrator 29.5.0, SVG Export Plug-In . SVG Version: 2.1.0 Build 137)  -->
  <defs>
    <style>
      .st0 {
        fill: #43454a;
      }

      .st1 {
        fill: #92dff4;
      }
    </style>
  </defs>
  <path class="st0" d="M15.56,30.12c1.24.44,1.04,1.36.36,2.68-.76,1.52-2.04,2.92-3.08,3.84-1.12.96-3,1.52-4.56,1.36-1.64-.16-2.96-.76-3.92-1.32-.84-.52-1.84-1.52-2.2-2.72-1.72-5.52,2.28-16.48,7.88-21.28,1.48-1.24,2.88-1.52,4.04-1.4,1.72.16,3.76,1.04,4.76,1.96,1.12,1.04,1.32,2.16,1.28,3.56-.04,1.6-.48,3.88-1,5.16-.24.64-.44,1.08-1.48.84-2.08-.48-2.8-1.52-2.88-3.4-.04-1.36.6-3.2-.28-3.56-1.16-.48-4.4,4.88-5.76,8.56-1.48,3.96-2.12,8.56-.72,9.08.76.28,1.8-.44,3.44-2.28,1.12-1.24,2.6-1.6,4.12-1.08ZM35.52,13.52c1.08,1.08,1.52,2.32,1.6,3.84.28,5.44-1.96,14.16-6.48,18.6-1.52,1.48-3.16,1.88-5.12,1.64-1.28-.16-2.8-.64-3.84-1.36-.8-.56-1.68-1.64-2.04-2.88-1.72-5.72,1.76-15.88,7.32-20.48,1.16-.96,2.96-1.44,4.24-1.24,1.68.24,3.4.96,4.32,1.88ZM31.48,16.16c-1.24-.4-4.08,4.04-5.48,7.8-1.4,3.72-2.16,8.8-.68,9.4,1.44.6,3.72-2.88,5.32-7.64,1.24-3.68,2.12-9.16.84-9.56ZM49.2,27.6c1.04-4.28,3-11,4.36-14.84.36-1,.88-1.16,1.76-.88.6.2,1.28.52,1.8.84.88.56,1.16,1.04.76,2.32-1.8,5.72-4.76,15.24-6.4,21.4-.24.96-.88,1.16-1.84.92-.72-.2-1.6-.56-2.24-.92-.72-.4-1.12-.96-1.4-2.04-.68-3-1.16-7-1.48-12.16-1,3.16-2.72,8.8-4.32,14.44-.24.84-.64,1.08-1.52.8-.56-.2-1.28-.56-1.72-.84-.88-.56-1.12-.96-.76-2.68.88-4.08,4.32-15.4,6.28-21.12.28-.76.68-1.04,1.28-1.04.64,0,2.2.56,3.36,1.16.92.48,1.12.92,1.2,2,.24,3.76.52,8.36.88,12.64ZM72.71,13.52c1.08,1.08,1.52,2.32,1.6,3.84.28,5.44-1.96,14.16-6.48,18.6-1.52,1.48-3.16,1.88-5.12,1.64-1.28-.16-2.8-.64-3.84-1.36-.8-.56-1.68-1.64-2.04-2.88-1.72-5.72,1.76-15.88,7.32-20.48,1.16-.96,2.96-1.44,4.24-1.24,1.68.24,3.4.96,4.32,1.88ZM68.67,16.16c-1.24-.4-4.08,4.04-5.48,7.8-1.4,3.72-2.16,8.8-.68,9.4,1.44.6,3.72-2.88,5.32-7.64,1.24-3.68,2.12-9.16.84-9.56ZM87.98,30.12c1.24.44,1.04,1.36.36,2.68-.76,1.52-2.04,2.92-3.08,3.84-1.12.96-3,1.52-4.56,1.36-1.64-.16-2.96-.76-3.92-1.32-.84-.52-1.84-1.52-2.2-2.72-1.72-5.52,2.28-16.48,7.88-21.28,1.48-1.24,2.88-1.52,4.04-1.4,1.72.16,3.76,1.04,4.76,1.96,1.12,1.04,1.32,2.16,1.28,3.56-.04,1.6-.48,3.88-1,5.16-.24.64-.44,1.08-1.48.84-2.08-.48-2.8-1.52-2.88-3.4-.04-1.36.6-3.2-.28-3.56-1.16-.48-4.4,4.88-5.76,8.56-1.48,3.96-2.12,8.56-.72,9.08.76.28,1.8-.44,3.44-2.28,1.12-1.24,2.6-1.6,4.12-1.08ZM95.66,16.76c-.44-.76-.8-1.92-.96-2.64-.16-.8.04-.96.68-1.12,2.76-.8,7.88-1.4,11.56-1.52.84-.04,1.36.36,1.56,1.12.28.84.4,1.44.48,2.24.04.88-.2,1.2-1.08,1.28-1.84.2-4.12.48-6.28.84-.6,1.64-1.32,3.52-2.04,5.48,1-.16,2-.24,3.08-.28.88-.04,1.36.16,1.64.92.28.8.48,1.52.56,2.32.12.88-.12,1.12-1,1.32-2.04.4-4.32.84-6.32,1.36-.44,1.24-.88,2.48-1.24,3.64,1.64-.32,3.08-.52,4.8-.64.88-.08,1.4.12,1.68.88.32.84.52,1.56.6,2.36.12.88-.08,1.16-.96,1.36-2.28.52-4.84,1.08-7,1.68-1.2.32-1.8.16-2.52-.44-.52-.44-1.04-.96-1.6-1.72-.44-.6-.72-1.48-.48-2.6.8-3.56,3.08-10.56,4.84-15.84ZM127.36,30.8c-2.56.44-5.44.92-7.48,1.48-.88,1.64-1.68,3.2-2.36,4.56-.44.84-.76.88-1.52.56-.68-.28-1.36-.68-1.92-1.32-.56-.64-.56-1.2-.08-2.32,2.64-5.88,7.88-15.64,11.28-20.96.64-1,1.36-1.52,2.76-1.48,1.64.04,3.8.6,5.08,1.12.96.4,1.08,1,.92,2-.72,5.04-1.64,14.68-2.16,22.08-.04.92-.28,1.16-1.16,1.16s-1.92-.16-2.48-.36c-.8-.28-1.04-.8-1.04-2,0-1.28.08-2.8.16-4.52ZM122.96,26.48c1.56-.24,3.16-.48,4.68-.6.24-3.16.56-6.44.92-9.28-1.56,2.64-3.6,6.24-5.6,9.88ZM153.66,35.64c-2.28.52-4.64,1.04-6.8,1.68-1.36.4-2.08.24-2.76-.36-.56-.48-1.04-.96-1.6-1.76-.52-.76-.72-1.4-.48-2.44,1.16-4.96,4.32-15.08,6.48-20.44.4-.96.92-1.08,1.76-.8.88.28,2.12.84,2.88,1.44.76.6.84,1,.48,1.92-1.68,4.4-4,11-5.84,16.76,1.56-.32,2.92-.48,4.56-.6.88-.08,1.36.08,1.68.88.32.8.52,1.56.6,2.36.16.88.12,1.12-.96,1.36ZM172.01,13.52c1.08,1.08,1.52,2.32,1.6,3.84.28,5.44-1.96,14.16-6.48,18.6-1.52,1.48-3.16,1.88-5.12,1.64-1.28-.16-2.8-.64-3.84-1.36-.8-.56-1.68-1.64-2.04-2.88-1.72-5.72,1.76-15.88,7.32-20.48,1.16-.96,2.96-1.44,4.24-1.24,1.68.24,3.4.96,4.32,1.88ZM167.96,16.16c-1.24-.4-4.08,4.04-5.48,7.8-1.4,3.72-2.16,8.8-.68,9.4,1.44.6,3.72-2.88,5.32-7.64,1.24-3.68,2.12-9.16.84-9.56ZM172.68,30.68c1.24-.64,2.96-.48,3.8.24,2.36,2.08,4.64,2.76,5.64,1.88,1.16-.96-3-3.48-5.12-5.92-1.48-1.72-2.2-4.36-.88-7.28,1.12-2.6,3.6-5.6,6-7.12.92-.56,2.44-1.16,4.12-.56,1.28.48,2.72,1.4,3.48,2.28,1.12,1.24,1,2.6.88,3.68-.28,1.84-1.28,4.96-2.12,6.6-.4.76-.8.92-1.52.6-2.04-.88-2.96-2.12-2.6-3.72.32-1.44,1.52-4.48,1.04-4.72-.84-.48-6,4.8-3.84,7.72,2.36,3.12,7.52,5.16,5.64,8.8-1.36,2.64-3.56,4.6-6.84,4.6-2.64,0-5.2-1.24-7.44-4.44-1.16-1.64-1-2.24-.24-2.64ZM215.65,22.08c-.24.72-.52,1-1.36.88-2.24-.32-3.12-1.64-3.08-3.48.04-1.4.36-3.36-.24-3.56-1.2-.4-4.08,3.72-6,8.28-1.64,3.88-2.24,8.76-.84,9.4,1.16.52,3-1.72,4.36-4.52-2.04.12-3-.88-3.24-3.12-.08-.72.28-.92.96-1.08,1.36-.36,3.64-.76,4.88-.92,1.16-.16,1.76.04,2.28.76.36.52.68,1.12.92,1.6.44.96.4,1.56-.04,2.6-1.52,3.68-3.56,6.48-5.68,7.96-1.36.96-2.88,1.28-4.4,1-1.4-.24-2.64-.76-3.76-1.52-.84-.6-1.72-1.72-2.04-2.96-1.56-5.76,2.64-16.8,8.6-21.2,1.24-.92,2.76-1,3.88-.84,1.52.2,3.32.96,4.32,1.96.96.96,1.24,2.04,1.28,3.48.04,1.48-.4,4.04-.8,5.28ZM227.05,30.8c-2.56.44-5.44.92-7.48,1.48-.88,1.64-1.68,3.2-2.36,4.56-.44.84-.76.88-1.52.56-.68-.28-1.36-.68-1.92-1.32-.56-.64-.56-1.2-.08-2.32,2.64-5.88,7.88-15.64,11.28-20.96.64-1,1.36-1.52,2.76-1.48,1.64.04,3.8.6,5.08,1.12.96.4,1.08,1,.92,2-.72,5.04-1.64,14.68-2.16,22.08-.04.92-.28,1.16-1.16,1.16s-1.92-.16-2.48-.36c-.8-.28-1.04-.8-1.04-2,0-1.28.08-2.8.16-4.52ZM222.65,26.48c1.56-.24,3.16-.48,4.68-.6.24-3.16.56-6.44.92-9.28-1.56,2.64-3.6,6.24-5.6,9.88ZM246.11,27.6c1.04-4.28,3-11,4.36-14.84.36-1,.88-1.16,1.76-.88.6.2,1.28.52,1.8.84.88.56,1.16,1.04.76,2.32-1.8,5.72-4.76,15.24-6.4,21.4-.24.96-.88,1.16-1.84.92-.72-.2-1.6-.56-2.24-.92-.72-.4-1.12-.96-1.4-2.04-.68-3-1.16-7-1.48-12.16-1,3.16-2.72,8.8-4.32,14.44-.24.84-.64,1.08-1.52.8-.56-.2-1.28-.56-1.72-.84-.88-.56-1.12-.96-.76-2.68.88-4.08,4.32-15.4,6.28-21.12.28-.76.68-1.04,1.28-1.04.64,0,2.2.56,3.36,1.16.92.48,1.12.92,1.2,2,.24,3.76.52,8.36.88,12.64ZM264.32,30.8c-2.56.44-5.44.92-7.48,1.48-.88,1.64-1.68,3.2-2.36,4.56-.44.84-.76.88-1.52.56-.68-.28-1.36-.68-1.92-1.32-.56-.64-.56-1.2-.08-2.32,2.64-5.88,7.88-15.64,11.28-20.96.64-1,1.36-1.52,2.76-1.48,1.64.04,3.8.6,5.08,1.12.96.4,1.08,1,.92,2-.72,5.04-1.64,14.68-2.16,22.08-.04.92-.28,1.16-1.16,1.16s-1.92-.16-2.48-.36c-.8-.28-1.04-.8-1.04-2,0-1.28.08-2.8.16-4.52ZM259.92,26.48c1.56-.24,3.16-.48,4.68-.6.24-3.16.56-6.44.92-9.28-1.56,2.64-3.6,6.24-5.6,9.88ZM275.23,17.24c-.28-.56-.68-1.32-.92-2-.4-.96-.36-1.48.52-1.96,3.92-2.24,12.48-3.64,15,3.36,2.24,6.2-2.08,16.92-13.24,21.08-1.04.4-1.88.36-2.8-.32-.88-.72-1.48-1.28-2.28-2.12-.8-.84-1.2-1.36-.64-3.44,1.12-4.12,2.84-9.88,4.36-14.6ZM275.95,32.4c7.72-3.84,9.8-11.52,8.96-14-.44-1.2-1.92-2.04-4-1.28-1.76,4.76-3.44,10.04-4.96,15.28ZM307.01,13.52c1.08,1.08,1.52,2.32,1.6,3.84.28,5.44-1.96,14.16-6.48,18.6-1.52,1.48-3.16,1.88-5.12,1.64-1.28-.16-2.8-.64-3.84-1.36-.8-.56-1.68-1.64-2.04-2.88-1.72-5.72,1.76-15.88,7.32-20.48,1.16-.96,2.96-1.44,4.24-1.24,1.68.24,3.4.96,4.32,1.88ZM302.96,16.16c-1.24-.4-4.08,4.04-5.48,7.8-1.4,3.72-2.16,8.8-.68,9.4,1.44.6,3.72-2.88,5.32-7.64,1.24-3.68,2.12-9.16.84-9.56ZM313.86,29.4c-.84,2.52-1.64,5.04-2.32,7.36-.24.84-.52,1-1.36.8-.84-.24-1.6-.52-2.16-.92-.72-.52-.8-1.08-.6-2.2.76-3.68,2.88-10.68,4.72-16.44-.32-.6-.72-1.36-.96-2-.36-1-.32-1.48.52-1.96,3.92-2.2,11.44-4.08,13.88-1.16,1,1.2,1.84,2.88,2.12,5,.28,2.24-.76,4.08-2.32,5.6-1.6,1.56-3.88,3.12-6.48,4.4,1.28,2.16,3.4,5.08,4.92,6.88.64.72.44,1.12-.12,1.6-.68.56-1.04.64-1.72.84-.76.24-1.72.28-2.8-.76-1.52-1.36-3.8-4.4-5.32-7.04ZM318.14,17.52c-.76,1.88-1.56,4.16-2.44,6.6,4.72-1.8,7.8-5.44,7.48-6.72-.2-.92-2.48-1.12-5.04.12ZM330.74,16.76c-.44-.76-.8-1.92-.96-2.64-.16-.8.04-.96.68-1.12,2.76-.8,7.88-1.4,11.56-1.52.84-.04,1.36.36,1.56,1.12.28.84.4,1.44.48,2.24.04.88-.2,1.2-1.08,1.28-1.84.2-4.12.48-6.28.84-.6,1.64-1.32,3.52-2.04,5.48,1-.16,2-.24,3.08-.28.88-.04,1.36.16,1.64.92.28.8.48,1.52.56,2.32.12.88-.12,1.12-1,1.32-2.04.4-4.32.84-6.32,1.36-.44,1.24-.88,2.48-1.24,3.64,1.64-.32,3.08-.52,4.8-.64.88-.08,1.4.12,1.68.88.32.84.52,1.56.6,2.36.12.88-.08,1.16-.96,1.36-2.28.52-4.84,1.08-7,1.68-1.2.32-1.8.16-2.52-.44-.52-.44-1.04-.96-1.6-1.72-.44-.6-.72-1.48-.48-2.6.8-3.56,3.08-10.56,4.84-15.84ZM339.91,30.68c1.24-.64,2.96-.48,3.8.24,2.36,2.08,4.64,2.76,5.64,1.88,1.16-.96-3-3.48-5.12-5.92-1.48-1.72-2.2-4.36-.88-7.28,1.12-2.6,3.6-5.6,6-7.12.92-.56,2.44-1.16,4.12-.56,1.28.48,2.72,1.4,3.48,2.28,1.12,1.24,1,2.6.88,3.68-.28,1.84-1.28,4.96-2.12,6.6-.4.76-.8.92-1.52.6-2.04-.88-2.96-2.12-2.6-3.72.32-1.44,1.52-4.48,1.04-4.72-.84-.48-6,4.8-3.84,7.72,2.36,3.12,7.52,5.16,5.64,8.8-1.36,2.64-3.56,4.6-6.84,4.6-2.64,0-5.2-1.24-7.44-4.44-1.16-1.64-1-2.24-.24-2.64ZM369.84,17.24c-.28-.56-.68-1.32-.92-2-.4-.96-.36-1.48.52-1.96,3.92-2.24,12.48-3.64,15,3.36,2.24,6.2-2.08,16.92-13.24,21.08-1.04.4-1.88.36-2.8-.32-.88-.72-1.48-1.28-2.28-2.12s-1.2-1.36-.64-3.44c1.12-4.12,2.84-9.88,4.36-14.6ZM370.56,32.4c7.72-3.84,9.8-11.52,8.96-14-.44-1.2-1.92-2.04-4-1.28-1.76,4.76-3.44,10.04-4.96,15.28ZM389.1,16.76c-.44-.76-.8-1.92-.96-2.64-.16-.8.04-.96.68-1.12,2.76-.8,7.88-1.4,11.56-1.52.84-.04,1.36.36,1.56,1.12.28.84.4,1.44.48,2.24.04.88-.2,1.2-1.08,1.28-1.84.2-4.12.48-6.28.84-.6,1.64-1.32,3.52-2.04,5.48,1-.16,2-.24,3.08-.28.88-.04,1.36.16,1.64.92.28.8.48,1.52.56,2.32.12.88-.12,1.12-1,1.32-2.04.4-4.32.84-6.32,1.36-.44,1.24-.88,2.48-1.24,3.64,1.64-.32,3.08-.52,4.8-.64.88-.08,1.4.12,1.68.88.32.84.52,1.56.6,2.36.12.88-.08,1.16-.96,1.36-2.28.52-4.84,1.08-7,1.68-1.2.32-1.8.16-2.52-.44-.52-.44-1.04-.96-1.6-1.72-.44-.6-.72-1.48-.48-2.6.8-3.56,3.08-10.56,4.84-15.84ZM419.36,35.64c-2.28.52-4.64,1.04-6.8,1.68-1.36.4-2.08.24-2.76-.36-.56-.48-1.04-.96-1.6-1.76-.52-.76-.72-1.4-.48-2.44,1.16-4.96,4.32-15.08,6.48-20.44.4-.96.92-1.08,1.76-.8.88.28,2.12.84,2.88,1.44s.84,1,.48,1.92c-1.68,4.4-4,11-5.84,16.76,1.56-.32,2.92-.48,4.56-.6.88-.08,1.36.08,1.68.88.32.8.52,1.56.6,2.36.16.88.12,1.12-.96,1.36ZM433.42,30.8c-2.56.44-5.44.92-7.48,1.48-.88,1.64-1.68,3.2-2.36,4.56-.44.84-.76.88-1.52.56-.68-.28-1.36-.68-1.92-1.32-.56-.64-.56-1.2-.08-2.32,2.64-5.88,7.88-15.64,11.28-20.96.64-1,1.36-1.52,2.76-1.48,1.64.04,3.8.6,5.08,1.12.96.4,1.08,1,.92,2-.72,5.04-1.64,14.68-2.16,22.08-.04.92-.28,1.16-1.16,1.16s-1.92-.16-2.48-.36c-.8-.28-1.04-.8-1.04-2,0-1.28.08-2.8.16-4.52ZM429.02,26.48c1.56-.24,3.16-.48,4.68-.6.24-3.16.56-6.44.92-9.28-1.56,2.64-3.6,6.24-5.6,9.88Z"/>
  <path class="st1" d="M85.32,80.76c33.67.78,67.31,2.47,100.97,3.5,38.12,1.17,76.25,2.28,114.38,2.92,17.41.29,34.83.7,52.24.82,4.37.03,8.09-5.53,8.09-11.97s-3.7-11.93-8.09-11.97c-33.65-.24-67.31.19-100.97.47-38.13.31-76.25,1.38-114.38,1.97-17.42.27-34.82.9-52.24,1.06-5.75.05-5.75,13.07,0,13.2Z"/>
  <path class="st0" d="M145.38,65.34c0-4.29,4.35-9.79,9.73-9.79,4.16,0,9.02,2.11,9.02,7.36,0,7.1-4.54,10.05-8.96,10.05-4.93,0-9.79-2.11-9.79-7.62ZM157.66,62.34c0-1.41-.58-2.11-1.54-2.11-2.5,0-4.16,3.65-4.16,6.4,0,1.34.64,1.92,1.73,1.92,2.56,0,3.97-4.03,3.97-6.21ZM183.4,63.62c-.7-1.22-1.28-3.07-1.54-4.22-.26-1.28.06-1.54,1.09-1.79,4.42-1.28,12.61-2.24,18.5-2.43,1.34-.06,2.18.58,2.5,1.79.45,1.34.64,2.3.77,3.58.06,1.41-.32,1.92-1.73,2.05-2.94.32-6.59.77-10.05,1.34-.96,2.62-2.11,5.63-3.26,8.77,1.6-.26,3.2-.38,4.93-.45,1.41-.06,2.18.26,2.62,1.47.45,1.28.77,2.43.9,3.71.19,1.41-.19,1.79-1.6,2.11-3.26.64-6.91,1.34-10.11,2.18-.7,1.98-1.41,3.97-1.98,5.82,2.62-.51,4.93-.83,7.68-1.02,1.41-.13,2.24.19,2.69,1.41.51,1.34.83,2.5.96,3.78.19,1.41-.13,1.86-1.54,2.18-3.65.83-7.74,1.73-11.2,2.69-1.92.51-2.88.26-4.03-.7-.83-.7-1.66-1.54-2.56-2.75-.7-.96-1.15-2.37-.77-4.16,1.28-5.7,4.93-16.9,7.74-25.34ZM207.9,64.38c-.45-.9-1.09-2.11-1.47-3.2-.64-1.54-.58-2.37.83-3.14,6.27-3.58,19.97-5.82,24,5.38,3.58,9.92-3.33,27.07-21.18,33.73-1.66.64-3.01.58-4.48-.51-1.41-1.15-2.37-2.05-3.65-3.39s-1.92-2.18-1.02-5.5c1.79-6.59,4.54-15.81,6.98-23.36ZM209.05,88.64c12.35-6.14,15.68-18.43,14.34-22.4-.7-1.92-3.07-3.26-6.4-2.05-2.82,7.62-5.5,16.06-7.94,24.45ZM247.79,58.3c1.28,1.02,1.41,1.6.9,3.07-2.94,7.94-8.26,24.96-10.88,34.3-.38,1.41-.9,1.66-2.24,1.28-1.34-.38-2.88-1.09-3.97-1.86-1.15-.83-1.34-1.66-.96-3.52,1.54-7.3,6.98-26.37,9.79-34.37.58-1.54,1.41-1.79,2.82-1.34,1.41.45,3.39,1.54,4.54,2.43ZM267.44,84.99c1.98.7,1.66,2.18.58,4.29-1.22,2.43-3.26,4.67-4.93,6.14-1.79,1.54-4.8,2.43-7.3,2.18-2.62-.26-4.74-1.22-6.27-2.11-1.34-.83-2.94-2.43-3.52-4.35-2.75-8.83,3.65-26.37,12.61-34.05,2.37-1.98,4.61-2.43,6.46-2.24,2.75.26,6.02,1.66,7.62,3.14,1.79,1.66,2.11,3.46,2.05,5.7-.06,2.56-.77,6.21-1.6,8.26-.38,1.02-.7,1.73-2.37,1.34-3.33-.77-4.48-2.43-4.61-5.44-.06-2.18.96-5.12-.45-5.7-1.86-.77-7.04,7.81-9.22,13.7-2.37,6.34-3.39,13.7-1.15,14.53,1.22.45,2.88-.7,5.5-3.65,1.79-1.98,4.16-2.56,6.59-1.73ZM288.48,58.3c1.28,1.02,1.41,1.6.9,3.07-2.94,7.94-8.26,24.96-10.88,34.3-.38,1.41-.9,1.66-2.24,1.28-1.34-.38-2.88-1.09-3.97-1.86-1.15-.83-1.34-1.66-.96-3.52,1.54-7.3,6.98-26.37,9.79-34.37.58-1.54,1.41-1.79,2.82-1.34,1.41.45,3.39,1.54,4.54,2.43ZM312.81,58.43c1.73,1.73,2.43,3.71,2.56,6.14.45,8.7-3.14,22.66-10.37,29.76-2.43,2.37-5.06,3.01-8.19,2.62-2.05-.26-4.48-1.02-6.14-2.18-1.28-.9-2.69-2.62-3.26-4.61-2.75-9.15,2.82-25.41,11.71-32.77,1.86-1.54,4.74-2.3,6.78-1.98,2.69.38,5.44,1.54,6.91,3.01ZM306.35,62.66c-1.98-.64-6.53,6.46-8.77,12.48-2.24,5.95-3.46,14.08-1.09,15.04,2.3.96,5.95-4.61,8.51-12.22,1.98-5.89,3.39-14.66,1.34-15.3ZM309.67,52.16c-1.54.32-2.88.19-3.78-.32-1.47-.83-2.75-2.3-2.75-3.07,0-.51.19-.77,1.15-1.09,4.61-1.54,8.96-3.46,13.44-5.7,1.15-.58,1.66-.32,2.11.58.38.77.64,2.05.64,3.2,0,.9-.32,1.86-1.34,2.56-2.43,1.66-6.46,3.2-9.47,3.84ZM334.69,80.96c1.66-6.85,4.8-17.6,6.98-23.74.58-1.6,1.41-1.86,2.82-1.41.96.32,2.05.83,2.88,1.34,1.41.9,1.86,1.66,1.22,3.71-2.88,9.15-7.62,24.38-10.24,34.24-.38,1.54-1.41,1.86-2.94,1.47-1.15-.32-2.56-.9-3.58-1.47-1.15-.64-1.79-1.54-2.24-3.26-1.09-4.8-1.86-11.2-2.37-19.46-1.6,5.06-4.35,14.08-6.91,23.1-.38,1.34-1.02,1.73-2.43,1.28-.9-.32-2.05-.9-2.75-1.34-1.41-.9-1.79-1.54-1.22-4.29,1.41-6.53,6.91-24.64,10.05-33.79.45-1.22,1.09-1.66,2.05-1.66,1.02,0,3.52.9,5.38,1.86,1.47.77,1.79,1.47,1.92,3.2.38,6.02.83,13.38,1.41,20.22ZM103.85,95.55c-.38,1.41-.83,1.66-2.18,1.28-1.34-.38-2.69-.9-3.84-1.73-1.09-.77-1.34-1.73-.9-3.58,1.15-5.18,4.54-17.28,7.23-25.54-1.86-1.22-2.37-1.6-1.34-3.33,1.09-1.92,2.75-4.16,3.9-5.63,1.09-1.34,1.66-1.54,3.07-1.09,1.34.45,2.82,1.15,4.1,2.24,1.22,1.02,1.41,1.54.83,3.07-3.01,8.19-8.38,25.15-10.88,34.3ZM124.71,73.15c2.24-.51,4.93-.38,6.91,1.02,3.71,2.62,3.9,8.7.64,15.1-2.3,4.54-6.59,7.42-11.58,7.42-3.52,0-7.04-1.41-9.09-4.93-1.66-2.75-1.54-3.39-.38-4.16,1.92-1.22,4.74-.96,6.08.19,3.2,2.75,5.57,1.98,7.36-.45,2.05-2.82,2.62-6.53,1.73-7.55-.83-.9-2.37-.83-5.12.06-1.54.51-1.79.45-2.82-.26-.83-.58-1.73-1.41-2.5-2.24-.64-.7-.9-1.6-.26-3.46,1.28-3.78,3.46-8.96,6.27-14.59.7-1.41,1.66-2.11,3.2-2.37,3.97-.64,8-.96,11.65-1.09,1.41-.06,2.37.51,2.75,1.73.51,1.34.51,2.82.64,4.1.19,1.41-.19,1.86-1.6,1.98-3.01.32-6.66.83-10.11,1.34-1.47,2.82-2.75,5.63-3.78,8.13Z"/>
</svg>