<svg width="287" height="66" viewBox="0 0 287 66" fill="none" xmlns="http://www.w3.org/2000/svg">
<path d="M10.1404 19.528C10.9464 19.814 10.8164 20.412 10.3744 21.27C9.88042 22.258 9.04842 23.168 8.37242 23.766C7.64442 24.39 6.42242 24.754 5.40842 24.65C4.34242 24.546 3.48442 24.156 2.86042 23.792C2.31442 23.454 1.66442 22.804 1.43042 22.024C0.312422 18.436 2.91242 11.312 6.55242 8.192C7.51442 7.386 8.42442 7.204 9.17842 7.282C10.2964 7.386 11.6224 7.958 12.2724 8.556C13.0004 9.232 13.1304 9.96 13.1044 10.87C13.0784 11.91 12.7924 13.392 12.4544 14.224C12.2984 14.64 12.1684 14.926 11.4924 14.77C10.1404 14.458 9.67242 13.782 9.62042 12.56C9.59442 11.676 10.0104 10.48 9.43842 10.246C8.68442 9.934 6.57842 13.418 5.69442 15.81C4.73242 18.384 4.31642 21.374 5.22642 21.712C5.72042 21.894 6.39642 21.426 7.46242 20.23C8.19042 19.424 9.15242 19.19 10.1404 19.528ZM23.1136 8.738C23.8156 9.44 24.1016 10.246 24.1536 11.234C24.3356 14.77 22.8796 20.438 19.9416 23.324C18.9536 24.286 17.8876 24.546 16.6136 24.39C15.7816 24.286 14.7936 23.974 14.1176 23.506C13.5976 23.142 13.0256 22.44 12.7916 21.634C11.6736 17.916 13.9356 11.312 17.5496 8.322C18.3036 7.698 19.4736 7.386 20.3056 7.516C21.3976 7.672 22.5156 8.14 23.1136 8.738ZM20.4876 10.454C19.6816 10.194 17.8356 13.08 16.9256 15.524C16.0156 17.942 15.5216 21.244 16.4836 21.634C17.4196 22.024 18.9016 19.762 19.9416 16.668C20.7476 14.276 21.3196 10.714 20.4876 10.454ZM32.0028 17.89C32.6788 15.108 33.9528 10.74 34.8368 8.244C35.0708 7.594 35.4088 7.49 35.9808 7.672C36.3708 7.802 36.8128 8.01 37.1508 8.218C37.7228 8.582 37.9048 8.894 37.6448 9.726C36.4748 13.444 34.5508 19.632 33.4848 23.636C33.3288 24.26 32.9128 24.39 32.2888 24.234C31.8208 24.104 31.2488 23.87 30.8328 23.636C30.3648 23.376 30.1048 23.012 29.9228 22.31C29.4808 20.36 29.1688 17.76 28.9608 14.406C28.3108 16.46 27.1928 20.126 26.1528 23.792C25.9968 24.338 25.7368 24.494 25.1648 24.312C24.8008 24.182 24.3328 23.948 24.0468 23.766C23.4748 23.402 23.3188 23.142 23.5528 22.024C24.1248 19.372 26.3608 12.014 27.6348 8.296C27.8168 7.802 28.0768 7.62 28.4668 7.62C28.8828 7.62 29.8968 7.984 30.6508 8.374C31.2488 8.686 31.3788 8.972 31.4308 9.674C31.5868 12.118 31.7688 15.108 32.0028 17.89ZM47.2855 8.738C47.9875 9.44 48.2735 10.246 48.3255 11.234C48.5075 14.77 47.0515 20.438 44.1135 23.324C43.1255 24.286 42.0595 24.546 40.7855 24.39C39.9535 24.286 38.9655 23.974 38.2895 23.506C37.7695 23.142 37.1975 22.44 36.9635 21.634C35.8455 17.916 38.1075 11.312 41.7215 8.322C42.4755 7.698 43.6455 7.386 44.4775 7.516C45.5695 7.672 46.6875 8.14 47.2855 8.738ZM44.6595 10.454C43.8535 10.194 42.0075 13.08 41.0975 15.524C40.1875 17.942 39.6935 21.244 40.6555 21.634C41.5915 22.024 43.0735 19.762 44.1135 16.668C44.9195 14.276 45.4915 10.714 44.6595 10.454ZM57.2146 19.528C58.0206 19.814 57.8906 20.412 57.4486 21.27C56.9546 22.258 56.1226 23.168 55.4466 23.766C54.7186 24.39 53.4966 24.754 52.4826 24.65C51.4166 24.546 50.5586 24.156 49.9346 23.792C49.3886 23.454 48.7386 22.804 48.5046 22.024C47.3866 18.436 49.9866 11.312 53.6266 8.192C54.5886 7.386 55.4986 7.204 56.2526 7.282C57.3706 7.386 58.6966 7.958 59.3466 8.556C60.0746 9.232 60.2046 9.96 60.1786 10.87C60.1526 11.91 59.8666 13.392 59.5286 14.224C59.3726 14.64 59.2426 14.926 58.5666 14.77C57.2146 14.458 56.7466 13.782 56.6946 12.56C56.6686 11.676 57.0846 10.48 56.5126 10.246C55.7586 9.934 53.6526 13.418 52.7686 15.81C51.8066 18.384 51.3906 21.374 52.3006 21.712C52.7946 21.894 53.4706 21.426 54.5366 20.23C55.2646 19.424 56.2266 19.19 57.2146 19.528ZM62.2028 10.844C61.9168 10.35 61.6828 9.596 61.5788 9.128C61.4748 8.608 61.6048 8.504 62.0208 8.4C63.8148 7.88 67.1428 7.49 69.5348 7.412C70.0808 7.386 70.4188 7.646 70.5488 8.14C70.7308 8.686 70.8088 9.076 70.8608 9.596C70.8868 10.168 70.7308 10.376 70.1588 10.428C68.9628 10.558 67.4808 10.74 66.0768 10.974C65.6868 12.04 65.2188 13.262 64.7508 14.536C65.4008 14.432 66.0508 14.38 66.7528 14.354C67.3248 14.328 67.6368 14.458 67.8188 14.952C68.0008 15.472 68.1308 15.94 68.1828 16.46C68.2608 17.032 68.1048 17.188 67.5328 17.318C66.2068 17.578 64.7248 17.864 63.4248 18.202C63.1388 19.008 62.8528 19.814 62.6188 20.568C63.6848 20.36 64.6208 20.23 65.7388 20.152C66.3108 20.1 66.6488 20.23 66.8308 20.724C67.0388 21.27 67.1688 21.738 67.2208 22.258C67.2988 22.83 67.1688 23.012 66.5968 23.142C65.1148 23.48 63.4508 23.844 62.0468 24.234C61.2668 24.442 60.8768 24.338 60.4088 23.948C60.0708 23.662 59.7328 23.324 59.3688 22.83C59.0828 22.44 58.9008 21.868 59.0568 21.14C59.5768 18.826 61.0588 14.276 62.2028 10.844ZM82.8106 19.97C81.1466 20.256 79.2746 20.568 77.9486 20.932C77.3766 21.998 76.8566 23.012 76.4146 23.896C76.1286 24.442 75.9206 24.468 75.4266 24.26C74.9846 24.078 74.5426 23.818 74.1786 23.402C73.8146 22.986 73.8146 22.622 74.1266 21.894C75.8426 18.072 79.2486 11.728 81.4586 8.27C81.8746 7.62 82.3426 7.282 83.2526 7.308C84.3186 7.334 85.7226 7.698 86.5546 8.036C87.1786 8.296 87.2566 8.686 87.1526 9.336C86.6846 12.612 86.0866 18.878 85.7486 23.688C85.7226 24.286 85.5666 24.442 84.9946 24.442C84.4226 24.442 83.7466 24.338 83.3826 24.208C82.8626 24.026 82.7066 23.688 82.7066 22.908C82.7066 22.076 82.7586 21.088 82.8106 19.97ZM79.9506 17.162C80.9646 17.006 82.0046 16.85 82.9926 16.772C83.1486 14.718 83.3566 12.586 83.5906 10.74C82.5766 12.456 81.2506 14.796 79.9506 17.162ZM99.902 23.116C98.42 23.454 96.886 23.792 95.482 24.208C94.598 24.468 94.13 24.364 93.688 23.974C93.324 23.662 93.012 23.35 92.648 22.83C92.31 22.336 92.18 21.92 92.336 21.244C93.09 18.02 95.144 11.442 96.548 7.958C96.808 7.334 97.146 7.256 97.692 7.438C98.264 7.62 99.07 7.984 99.564 8.374C100.058 8.764 100.11 9.024 99.876 9.622C98.784 12.482 97.276 16.772 96.08 20.516C97.094 20.308 97.978 20.204 99.044 20.126C99.616 20.074 99.928 20.178 100.136 20.698C100.344 21.218 100.474 21.712 100.526 22.232C100.63 22.804 100.604 22.96 99.902 23.116ZM111.828 8.738C112.53 9.44 112.816 10.246 112.868 11.234C113.05 14.77 111.594 20.438 108.656 23.324C107.668 24.286 106.602 24.546 105.328 24.39C104.496 24.286 103.508 23.974 102.832 23.506C102.312 23.142 101.74 22.44 101.506 21.634C100.388 17.916 102.65 11.312 106.264 8.322C107.018 7.698 108.188 7.386 109.02 7.516C110.112 7.672 111.23 8.14 111.828 8.738ZM109.202 10.454C108.396 10.194 106.55 13.08 105.64 15.524C104.73 17.942 104.236 21.244 105.198 21.634C106.134 22.024 107.616 19.762 108.656 16.668C109.462 14.276 110.034 10.714 109.202 10.454ZM112.268 19.892C113.074 19.476 114.192 19.58 114.738 20.048C116.272 21.4 117.754 21.842 118.404 21.27C119.158 20.646 116.454 19.008 115.076 17.422C114.114 16.304 113.646 14.588 114.504 12.69C115.232 11 116.844 9.05 118.404 8.062C119.002 7.698 119.99 7.308 121.082 7.698C121.914 8.01 122.85 8.608 123.344 9.18C124.072 9.986 123.994 10.87 123.916 11.572C123.734 12.768 123.084 14.796 122.538 15.862C122.278 16.356 122.018 16.46 121.55 16.252C120.224 15.68 119.626 14.874 119.86 13.834C120.068 12.898 120.848 10.922 120.536 10.766C119.99 10.454 116.636 13.886 118.04 15.784C119.574 17.812 122.928 19.138 121.706 21.504C120.822 23.22 119.392 24.494 117.26 24.494C115.544 24.494 113.88 23.688 112.424 21.608C111.67 20.542 111.774 20.152 112.268 19.892ZM140.197 14.302C140.041 14.77 139.859 14.952 139.313 14.874C137.857 14.666 137.285 13.808 137.311 12.612C137.337 11.702 137.545 10.428 137.155 10.298C136.375 10.038 134.503 12.716 133.255 15.68C132.189 18.202 131.799 21.374 132.709 21.79C133.463 22.128 134.659 20.672 135.543 18.852C134.217 18.93 133.593 18.28 133.437 16.824C133.385 16.356 133.619 16.226 134.061 16.122C134.945 15.888 136.427 15.628 137.233 15.524C137.987 15.42 138.377 15.55 138.715 16.018C138.949 16.356 139.157 16.746 139.313 17.058C139.599 17.682 139.573 18.072 139.287 18.748C138.299 21.14 136.973 22.96 135.595 23.922C134.711 24.546 133.723 24.754 132.735 24.572C131.825 24.416 131.019 24.078 130.291 23.584C129.745 23.194 129.173 22.466 128.965 21.66C127.951 17.916 130.681 10.74 134.555 7.88C135.361 7.282 136.349 7.23 137.077 7.334C138.065 7.464 139.235 7.958 139.885 8.608C140.509 9.232 140.691 9.934 140.717 10.87C140.743 11.832 140.457 13.496 140.197 14.302ZM147.608 19.97C145.944 20.256 144.072 20.568 142.746 20.932C142.174 21.998 141.653 23.012 141.212 23.896C140.926 24.442 140.718 24.468 140.224 24.26C139.781 24.078 139.339 23.818 138.975 23.402C138.611 22.986 138.611 22.622 138.923 21.894C140.64 18.072 144.046 11.728 146.256 8.27C146.672 7.62 147.14 7.282 148.05 7.308C149.116 7.334 150.52 7.698 151.352 8.036C151.976 8.296 152.054 8.686 151.95 9.336C151.482 12.612 150.884 18.878 150.546 23.688C150.52 24.286 150.364 24.442 149.792 24.442C149.22 24.442 148.544 24.338 148.18 24.208C147.66 24.026 147.504 23.688 147.504 22.908C147.504 22.076 147.556 21.088 147.608 19.97ZM144.748 17.162C145.762 17.006 146.801 16.85 147.79 16.772C147.946 14.718 148.154 12.586 148.388 10.74C147.374 12.456 146.048 14.796 144.748 17.162ZM159.997 17.89C160.673 15.108 161.947 10.74 162.831 8.244C163.065 7.594 163.403 7.49 163.975 7.672C164.365 7.802 164.807 8.01 165.145 8.218C165.717 8.582 165.899 8.894 165.639 9.726C164.469 13.444 162.545 19.632 161.479 23.636C161.323 24.26 160.907 24.39 160.283 24.234C159.815 24.104 159.243 23.87 158.827 23.636C158.359 23.376 158.099 23.012 157.917 22.31C157.475 20.36 157.163 17.76 156.955 14.406C156.305 16.46 155.187 20.126 154.147 23.792C153.991 24.338 153.731 24.494 153.159 24.312C152.795 24.182 152.327 23.948 152.041 23.766C151.469 23.402 151.313 23.142 151.547 22.024C152.119 19.372 154.355 12.014 155.629 8.296C155.811 7.802 156.071 7.62 156.461 7.62C156.877 7.62 157.891 7.984 158.645 8.374C159.243 8.686 159.373 8.972 159.425 9.674C159.581 12.118 159.763 15.108 159.997 17.89ZM171.83 19.97C170.166 20.256 168.294 20.568 166.968 20.932C166.396 21.998 165.876 23.012 165.434 23.896C165.148 24.442 164.94 24.468 164.446 24.26C164.004 24.078 163.562 23.818 163.198 23.402C162.834 22.986 162.834 22.622 163.146 21.894C164.862 18.072 168.268 11.728 170.478 8.27C170.894 7.62 171.362 7.282 172.272 7.308C173.338 7.334 174.742 7.698 175.574 8.036C176.198 8.296 176.276 8.686 176.172 9.336C175.704 12.612 175.106 18.878 174.768 23.688C174.742 24.286 174.586 24.442 174.014 24.442C173.442 24.442 172.766 24.338 172.402 24.208C171.882 24.026 171.726 23.688 171.726 22.908C171.726 22.076 171.778 21.088 171.83 19.97ZM168.97 17.162C169.984 17.006 171.024 16.85 172.012 16.772C172.168 14.718 172.376 12.586 172.61 10.74C171.596 12.456 170.27 14.796 168.97 17.162ZM178.922 11.156C178.74 10.792 178.48 10.298 178.324 9.856C178.064 9.232 178.09 8.894 178.662 8.582C181.21 7.126 186.774 6.216 188.412 10.766C189.868 14.796 187.06 21.764 179.806 24.468C179.13 24.728 178.584 24.702 177.986 24.26C177.414 23.792 177.024 23.428 176.504 22.882C175.984 22.336 175.724 21.998 176.088 20.646C176.816 17.968 177.934 14.224 178.922 11.156ZM179.39 21.01C184.408 18.514 185.76 13.522 185.214 11.91C184.928 11.13 183.966 10.584 182.614 11.078C181.47 14.172 180.378 17.604 179.39 21.01ZM199.578 8.738C200.28 9.44 200.566 10.246 200.618 11.234C200.8 14.77 199.344 20.438 196.406 23.324C195.418 24.286 194.352 24.546 193.078 24.39C192.246 24.286 191.258 23.974 190.582 23.506C190.062 23.142 189.49 22.44 189.256 21.634C188.138 17.916 190.4 11.312 194.014 8.322C194.768 7.698 195.938 7.386 196.77 7.516C197.862 7.672 198.98 8.14 199.578 8.738ZM196.952 10.454C196.146 10.194 194.3 13.08 193.39 15.524C192.48 17.942 191.986 21.244 192.948 21.634C193.884 22.024 195.366 19.762 196.406 16.668C197.212 14.276 197.784 10.714 196.952 10.454ZM204.037 19.06C203.491 20.698 202.971 22.336 202.529 23.844C202.373 24.39 202.191 24.494 201.645 24.364C201.099 24.208 200.605 24.026 200.241 23.766C199.773 23.428 199.721 23.064 199.851 22.336C200.345 19.944 201.723 15.394 202.919 11.65C202.711 11.26 202.451 10.766 202.295 10.35C202.061 9.7 202.087 9.388 202.633 9.076C205.181 7.646 210.069 6.424 211.655 8.322C212.305 9.102 212.851 10.194 213.033 11.572C213.215 13.028 212.539 14.224 211.525 15.212C210.485 16.226 209.003 17.24 207.313 18.072C208.145 19.476 209.523 21.374 210.511 22.544C210.927 23.012 210.797 23.272 210.433 23.584C209.991 23.948 209.757 24 209.315 24.13C208.821 24.286 208.197 24.312 207.495 23.636C206.507 22.752 205.025 20.776 204.037 19.06ZM206.819 11.338C206.325 12.56 205.805 14.042 205.233 15.628C208.301 14.458 210.303 12.092 210.095 11.26C209.965 10.662 208.483 10.532 206.819 11.338ZM215.004 10.844C214.718 10.35 214.484 9.596 214.38 9.128C214.276 8.608 214.406 8.504 214.822 8.4C216.616 7.88 219.944 7.49 222.336 7.412C222.882 7.386 223.22 7.646 223.35 8.14C223.532 8.686 223.61 9.076 223.662 9.596C223.688 10.168 223.532 10.376 222.96 10.428C221.764 10.558 220.282 10.74 218.878 10.974C218.488 12.04 218.02 13.262 217.552 14.536C218.202 14.432 218.852 14.38 219.554 14.354C220.126 14.328 220.438 14.458 220.62 14.952C220.802 15.472 220.932 15.94 220.984 16.46C221.062 17.032 220.906 17.188 220.334 17.318C219.008 17.578 217.526 17.864 216.226 18.202C215.94 19.008 215.654 19.814 215.42 20.568C216.486 20.36 217.422 20.23 218.54 20.152C219.112 20.1 219.45 20.23 219.632 20.724C219.84 21.27 219.97 21.738 220.022 22.258C220.1 22.83 219.97 23.012 219.398 23.142C217.916 23.48 216.252 23.844 214.848 24.234C214.068 24.442 213.678 24.338 213.21 23.948C212.872 23.662 212.534 23.324 212.17 22.83C211.884 22.44 211.702 21.868 211.858 21.14C212.378 18.826 213.86 14.276 215.004 10.844ZM220.965 19.892C221.771 19.476 222.889 19.58 223.435 20.048C224.969 21.4 226.451 21.842 227.101 21.27C227.855 20.646 225.151 19.008 223.773 17.422C222.811 16.304 222.343 14.588 223.201 12.69C223.929 11 225.541 9.05 227.101 8.062C227.699 7.698 228.687 7.308 229.779 7.698C230.611 8.01 231.547 8.608 232.041 9.18C232.769 9.986 232.691 10.87 232.613 11.572C232.431 12.768 231.781 14.796 231.235 15.862C230.975 16.356 230.715 16.46 230.247 16.252C228.921 15.68 228.323 14.874 228.557 13.834C228.765 12.898 229.545 10.922 229.233 10.766C228.687 10.454 225.333 13.886 226.737 15.784C228.271 17.812 231.625 19.138 230.403 21.504C229.519 23.22 228.089 24.494 225.957 24.494C224.241 24.494 222.577 23.688 221.121 21.608C220.367 20.542 220.471 20.152 220.965 19.892ZM240.418 11.156C240.236 10.792 239.976 10.298 239.82 9.856C239.56 9.232 239.586 8.894 240.158 8.582C242.706 7.126 248.27 6.216 249.908 10.766C251.364 14.796 248.556 21.764 241.302 24.468C240.626 24.728 240.08 24.702 239.482 24.26C238.91 23.792 238.52 23.428 238 22.882C237.48 22.336 237.22 21.998 237.584 20.646C238.312 17.968 239.43 14.224 240.418 11.156ZM240.886 21.01C245.904 18.514 247.256 13.522 246.71 11.91C246.424 11.13 245.462 10.584 244.11 11.078C242.966 14.172 241.874 17.604 240.886 21.01ZM252.937 10.844C252.651 10.35 252.417 9.596 252.313 9.128C252.209 8.608 252.339 8.504 252.755 8.4C254.549 7.88 257.877 7.49 260.269 7.412C260.815 7.386 261.153 7.646 261.283 8.14C261.465 8.686 261.543 9.076 261.595 9.596C261.621 10.168 261.465 10.376 260.893 10.428C259.697 10.558 258.215 10.74 256.811 10.974C256.421 12.04 255.953 13.262 255.485 14.536C256.135 14.432 256.785 14.38 257.487 14.354C258.059 14.328 258.371 14.458 258.553 14.952C258.735 15.472 258.865 15.94 258.917 16.46C258.995 17.032 258.839 17.188 258.267 17.318C256.941 17.578 255.459 17.864 254.159 18.202C253.873 19.008 253.587 19.814 253.353 20.568C254.419 20.36 255.355 20.23 256.473 20.152C257.045 20.1 257.383 20.23 257.565 20.724C257.773 21.27 257.903 21.738 257.955 22.258C258.033 22.83 257.903 23.012 257.331 23.142C255.849 23.48 254.185 23.844 252.781 24.234C252.001 24.442 251.611 24.338 251.143 23.948C250.805 23.662 250.467 23.324 250.103 22.83C249.817 22.44 249.635 21.868 249.791 21.14C250.311 18.826 251.793 14.276 252.937 10.844ZM272.609 23.116C271.127 23.454 269.593 23.792 268.189 24.208C267.305 24.468 266.837 24.364 266.395 23.974C266.031 23.662 265.719 23.35 265.355 22.83C265.017 22.336 264.887 21.92 265.043 21.244C265.797 18.02 267.851 11.442 269.255 7.958C269.515 7.334 269.853 7.256 270.399 7.438C270.971 7.62 271.777 7.984 272.271 8.374C272.765 8.764 272.817 9.024 272.583 9.622C271.491 12.482 269.983 16.772 268.787 20.516C269.801 20.308 270.685 20.204 271.751 20.126C272.323 20.074 272.635 20.178 272.843 20.698C273.051 21.218 273.181 21.712 273.233 22.232C273.337 22.804 273.311 22.96 272.609 23.116ZM281.746 19.97C280.082 20.256 278.21 20.568 276.884 20.932C276.312 21.998 275.792 23.012 275.35 23.896C275.064 24.442 274.856 24.468 274.362 24.26C273.92 24.078 273.478 23.818 273.114 23.402C272.75 22.986 272.75 22.622 273.062 21.894C274.778 18.072 278.184 11.728 280.394 8.27C280.81 7.62 281.278 7.282 282.188 7.308C283.254 7.334 284.658 7.698 285.49 8.036C286.114 8.296 286.192 8.686 286.088 9.336C285.62 12.612 285.022 18.878 284.684 23.688C284.658 24.286 284.502 24.442 283.93 24.442C283.358 24.442 282.682 24.338 282.318 24.208C281.798 24.026 281.642 23.688 281.642 22.908C281.642 22.076 281.694 21.088 281.746 19.97ZM278.886 17.162C279.9 17.006 280.94 16.85 281.928 16.772C282.084 14.718 282.292 12.586 282.526 10.74C281.512 12.456 280.186 14.796 278.886 17.162Z" fill="#43454A"/>
<path d="M59.6202 46.3814C80.0599 46.7712 100.486 47.6144 120.922 48.1314C144.069 48.7161 167.219 49.2711 190.369 49.5889C200.941 49.7329 211.515 49.9406 222.087 49.9999C224.742 50.0169 227 47.2373 227 44.0172C227 40.7588 224.752 38.0513 222.087 38.0343C201.654 37.9157 181.218 38.1318 160.785 38.2674C137.635 38.4199 114.488 38.9581 91.3375 39.2504C80.7628 39.386 70.195 39.6996 59.6202 39.7801C56.1266 39.8055 56.1266 46.3136 59.6202 46.3814Z" fill="#F7A400"/>
<path d="M85.695 35.995C84.05 40.475 81.11 49.75 79.745 54.755C79.535 55.525 79.29 55.665 78.555 55.455C77.82 55.245 77.085 54.965 76.455 54.51C75.86 54.09 75.72 53.565 75.965 52.55C76.595 49.715 78.45 43.1 79.92 38.585C78.905 37.92 78.625 37.71 79.185 36.765C79.78 35.715 80.69 34.49 81.32 33.685C81.915 32.95 82.23 32.845 83 33.09C83.735 33.335 84.54 33.72 85.24 34.315C85.905 34.875 86.01 35.155 85.695 35.995ZM94.0439 44.185C94.7439 44.395 95.4089 44.745 95.9339 45.305C98.1039 47.545 97.5789 50.38 96.0039 52.515C94.1489 55 91.8389 55.735 89.3539 55.77C87.3939 55.77 85.2939 55 83.4039 52.795C82.2839 51.5 82.5639 50.94 83.1589 50.555C84.1389 49.855 85.5389 50.1 86.3439 50.625C88.6889 52.165 90.2989 51.885 91.7339 50.38C93.0989 48.945 93.0289 47.195 92.5389 46.565C92.0489 45.935 91.3489 45.725 90.1589 45.935C88.8289 46.18 87.7439 45.69 87.0789 44.08C86.7989 43.415 86.9039 42.89 87.5689 42.645C92.6439 40.79 95.2689 39.04 95.2689 37.64C95.2689 37.22 95.0589 37.045 94.6739 37.045C93.9739 37.045 92.8889 37.675 92.0489 38.235C90.7189 39.145 88.8989 38.795 87.9189 37.85C87.4289 37.36 87.4989 36.835 87.9189 36.31C89.0039 34.945 91.1039 33.44 93.1339 32.95C94.6039 32.6 96.6689 32.495 98.2789 34.945C100.064 37.675 99.1189 40.44 97.6489 41.875C96.7039 42.785 95.4789 43.555 94.0439 44.185ZM100.986 38.235C100.986 35.89 103.366 32.88 106.306 32.88C108.581 32.88 111.241 34.035 111.241 36.905C111.241 40.79 108.756 42.4 106.341 42.4C103.646 42.4 100.986 41.245 100.986 38.235ZM107.706 36.59C107.706 35.82 107.391 35.435 106.866 35.435C105.501 35.435 104.591 37.43 104.591 38.935C104.591 39.67 104.941 39.985 105.536 39.985C106.936 39.985 107.706 37.78 107.706 36.59ZM121.782 37.29C121.397 36.625 121.082 35.61 120.942 34.98C120.802 34.28 120.977 34.14 121.537 34C123.952 33.3 128.432 32.775 131.652 32.67C132.387 32.635 132.842 32.985 133.017 33.65C133.262 34.385 133.367 34.91 133.437 35.61C133.472 36.38 133.262 36.66 132.492 36.73C130.882 36.905 128.887 37.15 126.997 37.465C126.472 38.9 125.842 40.545 125.212 42.26C126.087 42.12 126.962 42.05 127.907 42.015C128.677 41.98 129.097 42.155 129.342 42.82C129.587 43.52 129.762 44.15 129.832 44.85C129.937 45.62 129.727 45.83 128.957 46.005C127.172 46.355 125.177 46.74 123.427 47.195C123.042 48.28 122.657 49.365 122.342 50.38C123.777 50.1 125.037 49.925 126.542 49.82C127.312 49.75 127.767 49.925 128.012 50.59C128.292 51.325 128.467 51.955 128.537 52.655C128.642 53.425 128.467 53.67 127.697 53.845C125.702 54.3 123.462 54.79 121.572 55.315C120.522 55.595 119.997 55.455 119.367 54.93C118.912 54.545 118.457 54.09 117.967 53.425C117.582 52.9 117.337 52.13 117.547 51.15C118.247 48.035 120.242 41.91 121.782 37.29ZM135.179 37.71C134.934 37.22 134.584 36.555 134.374 35.96C134.024 35.12 134.059 34.665 134.829 34.245C138.259 32.285 145.749 31.06 147.954 37.185C149.914 42.61 146.134 51.99 136.369 55.63C135.459 55.98 134.724 55.945 133.919 55.35C133.149 54.72 132.624 54.23 131.924 53.495C131.224 52.76 130.874 52.305 131.364 50.485C132.344 46.88 133.849 41.84 135.179 37.71ZM135.809 50.975C142.564 47.615 144.384 40.895 143.649 38.725C143.264 37.675 141.969 36.94 140.149 37.605C138.609 41.77 137.139 46.39 135.809 50.975ZM156.993 34.385C157.693 34.945 157.763 35.26 157.483 36.065C155.873 40.405 152.968 49.715 151.533 54.825C151.323 55.595 151.043 55.735 150.308 55.525C149.573 55.315 148.733 54.93 148.138 54.51C147.508 54.055 147.403 53.6 147.613 52.585C148.453 48.595 151.428 38.165 152.968 33.79C153.283 32.95 153.738 32.81 154.508 33.055C155.278 33.3 156.363 33.895 156.993 34.385ZM167.738 48.98C168.823 49.365 168.648 50.17 168.053 51.325C167.388 52.655 166.268 53.88 165.358 54.685C164.378 55.525 162.733 56.015 161.368 55.875C159.933 55.735 158.778 55.21 157.938 54.72C157.203 54.265 156.328 53.39 156.013 52.34C154.508 47.51 158.008 37.92 162.908 33.72C164.203 32.635 165.428 32.39 166.443 32.495C167.948 32.635 169.733 33.405 170.608 34.21C171.588 35.12 171.763 36.1 171.728 37.325C171.693 38.725 171.308 40.72 170.853 41.84C170.643 42.4 170.468 42.785 169.558 42.575C167.738 42.155 167.108 41.245 167.038 39.6C167.003 38.41 167.563 36.8 166.793 36.485C165.778 36.065 162.943 40.755 161.753 43.975C160.458 47.44 159.898 51.465 161.123 51.92C161.788 52.165 162.698 51.535 164.133 49.925C165.113 48.84 166.408 48.525 167.738 48.98ZM179.244 34.385C179.944 34.945 180.014 35.26 179.734 36.065C178.124 40.405 175.219 49.715 173.784 54.825C173.574 55.595 173.294 55.735 172.559 55.525C171.824 55.315 170.984 54.93 170.389 54.51C169.759 54.055 169.654 53.6 169.864 52.585C170.704 48.595 173.679 38.165 175.219 33.79C175.534 32.95 175.989 32.81 176.759 33.055C177.529 33.3 178.614 33.895 179.244 34.385ZM192.551 34.455C193.496 35.4 193.881 36.485 193.951 37.815C194.196 42.575 192.236 50.205 188.281 54.09C186.951 55.385 185.516 55.735 183.801 55.525C182.681 55.385 181.351 54.965 180.441 54.335C179.741 53.845 178.971 52.9 178.656 51.815C177.151 46.81 180.196 37.92 185.061 33.895C186.076 33.055 187.651 32.635 188.771 32.81C190.241 33.02 191.746 33.65 192.551 34.455ZM189.016 36.765C187.931 36.415 185.446 40.3 184.221 43.59C182.996 46.845 182.331 51.29 183.626 51.815C184.886 52.34 186.881 49.295 188.281 45.13C189.366 41.91 190.136 37.115 189.016 36.765ZM190.836 31.025C189.996 31.2 189.261 31.13 188.771 30.85C187.966 30.395 187.266 29.59 187.266 29.17C187.266 28.89 187.371 28.75 187.896 28.575C190.416 27.735 192.796 26.685 195.246 25.46C195.876 25.145 196.156 25.285 196.401 25.775C196.611 26.195 196.751 26.895 196.751 27.525C196.751 28.015 196.576 28.54 196.016 28.925C194.686 29.835 192.481 30.675 190.836 31.025ZM204.517 46.775C205.427 43.03 207.142 37.15 208.332 33.79C208.647 32.915 209.102 32.775 209.872 33.02C210.397 33.195 210.992 33.475 211.447 33.755C212.217 34.245 212.462 34.665 212.112 35.785C210.537 40.79 207.947 49.12 206.512 54.51C206.302 55.35 205.742 55.525 204.902 55.315C204.272 55.14 203.502 54.825 202.942 54.51C202.312 54.16 201.962 53.67 201.717 52.725C201.122 50.1 200.702 46.6 200.422 42.085C199.547 44.85 198.042 49.785 196.642 54.72C196.432 55.455 196.082 55.665 195.312 55.42C194.822 55.245 194.192 54.93 193.807 54.685C193.037 54.195 192.827 53.845 193.142 52.34C193.912 48.77 196.922 38.865 198.637 33.86C198.882 33.195 199.232 32.95 199.757 32.95C200.317 32.95 201.682 33.44 202.697 33.965C203.502 34.385 203.677 34.77 203.747 35.715C203.957 39.005 204.202 43.03 204.517 46.775Z" fill="#43454A"/>
</svg>
